<svg width="52" height="51" viewBox="0 0 52 51" fill="none" xmlns="http://www.w3.org/2000/svg">
<g clip-path="url(#clip0_1_32)">
<path fill-rule="evenodd" clip-rule="evenodd" d="M34.7375 5.4661C35.9951 5.58358 37.2159 5.95246 38.3288 6.55063C39.4419 7.14877 40.4243 7.96386 41.2201 8.94736C42.0157 9.93081 42.6089 11.0631 42.9667 12.2781C43.3245 13.4931 43.4399 14.7674 43.307 16.0276C43.1741 17.2877 42.7952 18.5098 42.1918 19.6233C41.5905 20.7328 40.7775 21.7131 39.7986 22.507L24.1109 35.4931L24.0977 35.5036C22.9167 36.4516 21.4531 37.1336 19.8105 37.003C18.1402 36.8704 16.7605 35.9366 15.6935 34.6298C14.4032 33.0497 14.1771 31.2712 14.5397 29.7427C14.8799 28.3085 15.7227 27.1161 16.596 26.3685L16.6093 26.3571L29.2662 15.8652C29.8329 15.3953 30.6734 15.474 31.1432 16.0408L32.2775 17.4092C32.7475 17.976 32.6689 18.8164 32.102 19.2863L19.4756 29.7529C19.2343 29.9638 18.9606 30.3586 18.8634 30.7684C18.8192 30.9546 18.8173 31.1175 18.8476 31.263C18.8763 31.4016 18.947 31.5885 19.1354 31.8193C19.6875 32.4953 20.0456 32.564 20.1626 32.5734C20.3063 32.5848 20.6757 32.549 21.3043 32.0477L36.984 19.0682L36.9939 19.0602C37.5202 18.6347 37.9594 18.1067 38.285 17.5058C38.6108 16.905 38.8159 16.244 38.888 15.5613C38.96 14.8787 38.8972 14.1893 38.7042 13.5333C38.511 12.8774 38.1914 12.2688 37.7655 11.7424C37.3397 11.216 36.8159 10.7822 36.2254 10.4648C35.635 10.1475 34.9888 9.95257 34.3243 9.89049C33.6597 9.8284 32.9886 9.90035 32.3495 10.1028C31.7106 10.3053 31.1155 10.6345 30.5996 11.0729L30.5893 11.0816L14.7857 24.182L14.7731 24.1922C13.9379 24.8644 13.2411 25.6989 12.7245 26.648C12.2079 27.5972 11.8823 28.6414 11.7672 29.7197C11.6522 30.798 11.7503 31.8876 12.0551 32.925C12.3347 33.8767 13.1261 35.2449 13.8666 36.1599C14.6334 37.1078 15.9754 38.3493 16.8099 38.7973C17.7476 39.3006 18.7744 39.6094 19.8306 39.7069C20.8869 39.8043 21.9528 39.6884 22.9669 39.3651C23.9809 39.0418 24.9236 38.5174 25.7395 37.8208L25.7517 37.8104L41.1949 25.0088C41.7618 24.5388 42.6021 24.6174 43.0721 25.1844L44.2064 26.5528C44.6763 27.1195 44.5976 27.96 44.0309 28.4298L28.6118 41.2116C27.3509 42.285 25.8913 43.0968 24.3166 43.5988C22.7363 44.1025 21.0728 44.284 19.4226 44.1317C17.7724 43.9796 16.17 43.497 14.7087 42.7128C13.1441 41.8731 11.3652 40.1331 10.412 38.9551C9.43258 37.7444 8.28613 35.8605 7.79166 34.1776C7.32235 32.5804 7.17197 30.905 7.34868 29.2483C7.52536 27.5918 8.02577 25.9858 8.82148 24.5238C9.61451 23.0668 10.6856 21.7807 11.9739 20.741L27.7333 7.67723C28.6949 6.86272 29.8074 6.2469 31.0074 5.8667C32.212 5.48502 33.48 5.34864 34.7375 5.4661Z" fill="#A6A6A6" stroke="#A6A6A6"/>
</g>
<defs>
<clipPath id="clip0_1_32">
<rect width="42.6589" height="42.6589" fill="white" transform="translate(0.985001 9.02545) rotate(-11.8979)"/>
</clipPath>
</defs>
</svg>
