<svg width="16" height="13" viewBox="0 0 16 13" fill="none" xmlns="http://www.w3.org/2000/svg">
<path d="M8.70711 12.7072C8.31658 13.0977 7.68342 13.0977 7.29289 12.7072L0.928932 6.34325C0.538408 5.95272 0.538408 5.31956 0.928932 4.92903C1.31946 4.53851 1.95262 4.53851 2.34315 4.92903L8 10.5859L13.6569 4.92903C14.0474 4.53851 14.6805 4.53851 15.0711 4.92903C15.4616 5.31956 15.4616 5.95272 15.0711 6.34325L8.70711 12.7072ZM8 12H9V12.0001H8H7V12H8Z" fill="#FF0004"/>
<path d="M8.70711 8.70721C8.31658 9.09773 7.68342 9.09773 7.29289 8.70721L0.928932 2.34325C0.538408 1.95272 0.538408 1.31956 0.928932 0.929032C1.31946 0.538508 1.95262 0.538508 2.34315 0.929032L8 6.58589L13.6569 0.929032C14.0474 0.538508 14.6805 0.538508 15.0711 0.929032C15.4616 1.31956 15.4616 1.95272 15.0711 2.34325L8.70711 8.70721ZM8 8H9V8.0001H8H7V8H8Z" fill="#FF0004"/>
</svg>
