<svg width="37" height="37" viewBox="0 0 37 37" fill="none" xmlns="http://www.w3.org/2000/svg">
<g clip-path="url(#clip0_16_1933)">
<path d="M35.8391 18.6054C35.838 9.03046 28.0761 1.26855 18.5 1.26855C8.92395 1.26855 1.16089 9.03162 1.16089 18.6077C1.16089 27.2275 7.45089 34.3778 15.6903 35.7202L15.7898 35.7341V23.6189H11.3868V18.6054H15.7898V14.7874C15.7678 14.5943 15.7562 14.37 15.7562 14.1434C15.7562 10.7637 18.4965 8.02337 21.8763 8.02337C22.0393 8.02337 22.2012 8.0303 22.3619 8.04187L22.3411 8.04071C23.7274 8.06037 25.0687 8.18293 26.3775 8.40146L26.2226 8.37949V12.6461H24.035C23.9355 12.6322 23.8211 12.6241 23.7055 12.6241C22.3214 12.6241 21.1987 13.7456 21.1987 15.1308C21.1987 15.2095 21.2022 15.2869 21.2091 15.3644L21.208 15.354V18.6054H26.0168L25.2479 23.6189H21.208V35.7341C29.548 34.3766 35.838 27.2252 35.8391 18.6054Z" fill="white" stroke="white"/>
</g>
<defs>
<clipPath id="clip0_16_1933">
<rect width="37" height="37" fill="white"/>
</clipPath>
</defs>
</svg>
