<svg width="555" height="340" viewBox="0 0 555 340" fill="none" xmlns="http://www.w3.org/2000/svg">
<g filter="url(#filter0_d_12_607)">
<rect x="2" width="547" height="332" fill="white"/>
</g>
<g clip-path="url(#clip0_12_607)">
<path d="M116.395 118.322C122.273 129.223 134.748 133.903 134.748 133.903C134.748 133.903 137.694 120.908 131.815 110.007C125.937 99.1056 113.462 94.4259 113.462 94.4259C113.462 94.4259 110.516 107.421 116.395 118.322Z" fill="#2F2E41"/>
<path d="M120.435 114.736C131.047 121.12 135.135 133.803 135.135 133.803C135.135 133.803 122.016 136.133 111.403 129.748C100.791 123.363 96.7033 110.681 96.7033 110.681C96.7033 110.681 109.822 108.351 120.435 114.736Z" fill="#46A6FF"/>
<path d="M456.627 295.582C456.627 307.075 429.311 332 395.615 332C361.919 332 334.603 307.075 334.603 295.582C334.603 284.089 361.919 290.379 395.615 290.379C429.311 290.379 456.627 284.089 456.627 295.582Z" fill="#3F3D56"/>
<path opacity="0.1" d="M456.627 295.582C456.627 307.075 429.311 332 395.615 332C361.919 332 334.603 307.075 334.603 295.582C334.603 284.089 361.919 290.379 395.615 290.379C429.311 290.379 456.627 284.089 456.627 295.582Z" fill="black"/>
<path d="M395.615 316.392C429.311 316.392 456.627 307.075 456.627 295.582C456.627 284.089 429.311 274.772 395.615 274.772C361.919 274.772 334.603 284.089 334.603 295.582C334.603 307.075 361.919 316.392 395.615 316.392Z" fill="#3F3D56"/>
<path d="M326.563 143.288H132.648V253.961H326.563V143.288Z" fill="#F1F1F1"/>
<path d="M417.135 37.3449C427.453 37.3449 435.817 29.51 435.817 19.8453C435.817 10.1805 427.453 2.3457 417.135 2.3457C406.817 2.3457 398.453 10.1805 398.453 19.8453C398.453 29.51 406.817 37.3449 417.135 37.3449Z" fill="#2F2E41"/>
<path d="M362.744 128.863L358.015 135.485C358.015 135.485 335.313 140.214 343.826 147.309C352.339 154.403 364.636 140.687 364.636 140.687L371.258 132.174L362.744 128.863Z" fill="#FFB8B8"/>
<path d="M387.338 53.6621C387.338 53.6621 381.19 53.6621 379.771 62.1754C378.352 70.6887 376.933 99.0664 376.933 99.0664C376.933 99.0664 357.069 125.079 360.379 128.39C363.69 131.701 367.474 137.849 369.839 136.903C372.203 135.957 392.541 108.053 392.541 108.053L387.338 53.6621Z" fill="#46A6FF"/>
<path opacity="0.1" d="M387.338 53.6621C387.338 53.6621 381.19 53.6621 379.771 62.1754C378.352 70.6887 376.933 99.0664 376.933 99.0664C376.933 99.0664 357.069 125.079 360.379 128.39C363.69 131.701 367.474 137.849 369.839 136.903C372.203 135.957 392.541 108.053 392.541 108.053L387.338 53.6621Z" fill="black"/>
<path d="M406.257 29.541C406.257 29.541 405.784 47.9865 400.108 48.9324C394.433 49.8784 396.324 56.0269 396.324 56.0269C396.324 56.0269 414.77 66.905 427.067 56.0269L429.432 50.3513C429.432 50.3513 420.918 44.2028 424.702 35.6895L406.257 29.541Z" fill="#FFB8B8"/>
<path d="M374.568 143.052C374.568 143.052 346.664 195.078 357.069 211.158C367.474 227.239 383.082 260.346 385.446 260.346C387.811 260.346 401.054 253.725 400.108 249.468C399.162 245.212 384.973 213.523 381.19 210.685C377.406 207.848 379.298 200.28 379.771 199.807C380.244 199.334 395.852 174.267 395.852 174.267C395.852 174.267 395.379 213.996 397.27 220.145C399.162 226.293 396.798 270.279 399.162 272.17C401.527 274.062 412.405 277.373 414.297 274.535C416.189 271.697 421.864 228.658 418.081 218.726L425.175 150.619L374.568 143.052Z" fill="#2F2E41"/>
<path d="M400.108 269.333L388.284 291.089C388.284 291.089 371.258 303.386 383.082 305.278C394.906 307.17 402 302.44 402 302.44L412.405 294.873V273.116L400.108 269.333Z" fill="#2F2E41"/>
<path d="M384.028 257.036L390.176 271.697C390.176 271.697 392.541 277.846 390.176 279.265C387.811 280.684 381.19 289.197 385.446 290.143C386.303 290.311 387.173 290.397 388.046 290.401C391.59 290.461 395.11 289.803 398.394 288.467C401.677 287.13 404.656 285.144 407.152 282.626L410.986 278.792C410.986 278.792 397.852 248.547 398.034 248.771C398.216 248.995 384.028 257.036 384.028 257.036Z" fill="#2F2E41"/>
<path d="M418.081 40.8921C426.962 40.8921 434.161 33.6925 434.161 24.8114C434.161 15.9303 426.962 8.73071 418.081 8.73071C409.2 8.73071 402 15.9303 402 24.8114C402 33.6925 409.2 40.8921 418.081 40.8921Z" fill="#FFB8B8"/>
<path d="M427.304 47.2771L422.337 52.2432C422.337 52.2432 407.203 57.9187 400.108 52.2432C400.108 52.2432 402.71 46.8041 402.71 47.2771C402.71 47.75 382.136 50.8243 380.244 59.3376C378.352 67.8509 381.663 82.5127 381.663 82.5127C381.663 82.5127 368.42 144.944 373.622 146.363C378.825 147.781 427.54 159.605 427.067 150.619C426.594 141.633 430.851 104.742 430.851 104.742L447.404 73.0535C447.404 73.0535 445.04 62.6483 439.364 59.3376C433.688 56.0269 427.304 47.2771 427.304 47.2771Z" fill="#46A6FF"/>
<path d="M406.257 139.741L400.108 143.525C400.108 143.525 376.46 159.605 388.757 162.443C401.054 165.281 408.149 151.092 408.149 151.092L412.878 145.417L406.257 139.741Z" fill="#FFB8B8"/>
<path opacity="0.1" d="M441.256 70.2157L445.513 74.4724C445.513 74.4724 448.35 114.201 442.675 122.241C436.999 130.282 410.986 152.038 409.567 150.619C408.149 149.2 399.162 142.106 401.054 141.16C402.946 140.214 428.099 113.932 428.099 113.932L426.121 77.3101L441.256 70.2157Z" fill="black"/>
<path d="M443.148 68.7969L447.404 73.0535C447.404 73.0535 450.242 112.782 444.567 120.823C438.891 128.863 412.878 150.619 411.459 149.2C410.04 147.781 401.054 140.687 402.946 139.741C404.838 138.795 429.991 112.513 429.991 112.513L428.013 75.8913L443.148 68.7969Z" fill="#46A6FF"/>
<path d="M411.43 1.9698C411.43 1.9698 405.964 -0.0179372 398.51 4.20599L402.485 5.19985C402.485 5.19985 396.522 5.69679 395.777 13.6477H398.51C398.51 13.6477 396.771 20.6048 398.51 22.5925L399.628 20.4805L402.858 26.9407L403.603 23.7106L405.094 24.2075L406.088 18.9897C406.088 18.9897 408.573 22.7167 410.561 22.9652V19.7351C410.561 19.7351 416.027 25.9468 417.766 25.6983L415.281 22.2198L418.76 22.9652L417.269 20.4805L426.214 22.9652L424.226 20.4805L430.438 22.4683L433.419 23.7106C433.419 23.7106 437.643 14.0204 431.68 7.31181C425.717 0.603219 417.021 -0.887565 411.43 1.9698Z" fill="#2F2E41"/>
<path d="M255.192 203.393C254.795 203.644 254.384 203.876 253.959 204.091C250.504 205.828 246.5 206.124 242.827 204.914C239.154 203.704 236.111 201.086 234.366 197.635L231.219 191.396L233.331 190.332L236.477 196.57C237.2 198.004 238.197 199.282 239.413 200.33C240.63 201.378 242.04 202.177 243.565 202.68C245.09 203.183 246.699 203.38 248.3 203.261C249.901 203.142 251.463 202.708 252.897 201.985C254.331 201.262 255.608 200.264 256.655 199.047C257.703 197.83 258.5 196.419 259.002 194.894C259.504 193.369 259.701 191.76 259.581 190.159C259.461 188.558 259.027 186.996 258.303 185.563L245.09 159.364C244.367 157.931 243.369 156.654 242.153 155.607C240.937 154.559 239.526 153.762 238.002 153.259C236.478 152.757 234.869 152.56 233.269 152.679C231.668 152.799 230.107 153.232 228.674 153.955C227.24 154.677 225.964 155.675 224.916 156.892C223.869 158.108 223.071 159.518 222.569 161.043C222.067 162.567 221.87 164.176 221.989 165.776C222.108 167.377 222.542 168.938 223.265 170.371L227.943 179.647L225.831 180.712L221.153 171.436C219.412 167.982 219.115 163.978 220.326 160.304C221.537 156.631 224.157 153.589 227.611 151.847C231.064 150.105 235.068 149.806 238.742 151.016C242.416 152.226 245.459 154.846 247.202 158.299L260.415 184.498C262.046 187.734 262.415 191.461 261.45 194.954C260.484 198.447 258.254 201.455 255.192 203.393Z" fill="#3F3D56"/>
<path d="M256.47 235.731C256.078 235.978 255.672 236.207 255.251 236.42C251.796 238.158 247.792 238.454 244.119 237.244C240.446 236.033 237.403 233.416 235.658 229.964L222.445 203.765C220.703 200.311 220.404 196.306 221.615 192.632C222.826 188.957 225.447 185.914 228.901 184.172C232.355 182.43 236.36 182.132 240.034 183.343C243.709 184.553 246.752 187.174 248.494 190.629L251.965 197.511L249.853 198.576L246.382 191.693C245.659 190.26 244.661 188.983 243.445 187.936C242.229 186.889 240.818 186.091 239.294 185.589C237.77 185.086 236.161 184.889 234.561 185.009C232.96 185.128 231.399 185.561 229.966 186.284C228.532 187.007 227.256 188.005 226.208 189.221C225.161 190.437 224.363 191.848 223.861 193.372C223.359 194.897 223.162 196.505 223.281 198.106C223.4 199.706 223.834 201.268 224.557 202.701L237.769 228.9C238.492 230.334 239.489 231.611 240.706 232.66C241.922 233.708 243.332 234.506 244.857 235.009C246.382 235.512 247.991 235.709 249.592 235.59C251.193 235.471 252.755 235.038 254.189 234.315C255.623 233.592 256.9 232.593 257.947 231.377C258.995 230.16 259.792 228.749 260.295 227.223C260.797 225.698 260.993 224.089 260.873 222.488C260.753 220.887 260.319 219.325 259.595 217.892L255.047 208.874L257.159 207.81L261.707 216.828C263.335 220.066 263.701 223.795 262.733 227.289C261.765 230.783 259.533 233.791 256.47 235.731Z" fill="#3F3D56"/>
<path d="M350.684 254.907H132.175V133.356H350.684V254.907ZM133.121 253.961H349.738V134.302H133.121V253.961Z" fill="#2F2E41"/>
</g>
<defs>
<filter id="filter0_d_12_607" x="0" y="0" width="555" height="340" filterUnits="userSpaceOnUse" color-interpolation-filters="sRGB">
<feFlood flood-opacity="0" result="BackgroundImageFix"/>
<feColorMatrix in="SourceAlpha" type="matrix" values="0 0 0 0 0 0 0 0 0 0 0 0 0 0 0 0 0 0 127 0" result="hardAlpha"/>
<feOffset dx="2" dy="4"/>
<feGaussianBlur stdDeviation="2"/>
<feComposite in2="hardAlpha" operator="out"/>
<feColorMatrix type="matrix" values="0 0 0 0 0 0 0 0 0 0 0 0 0 0 0 0 0 0 0.25 0"/>
<feBlend mode="normal" in2="BackgroundImageFix" result="effect1_dropShadow_12_607"/>
<feBlend mode="normal" in="SourceGraphic" in2="effect1_dropShadow_12_607" result="shape"/>
</filter>
<clipPath id="clip0_12_607">
<rect width="359.924" height="331.409" fill="white" transform="translate(96.7033 0.590942)"/>
</clipPath>
</defs>
</svg>
