<svg width="555" height="340" viewBox="0 0 555 340" fill="none" xmlns="http://www.w3.org/2000/svg">
<g filter="url(#filter0_d_26_4)">
<rect x="2" width="547" height="332" fill="white"/>
</g>
<path d="M409.149 64.8822C409.149 64.8822 389.829 35.135 348.429 33.402C307.029 31.6689 292.298 66.9406 262.134 80.546C246.341 87.6773 214.405 75.7386 197.559 79.8222C143.702 92.8964 124.478 152.736 147.652 184.336C167.706 211.732 202.299 224.302 254.584 224.129C306.869 223.957 343.593 225.457 389.813 194.024C436.034 162.59 431.78 104.184 409.149 64.8822Z" fill="#46A6FF"/>
<path opacity="0.8" d="M409.149 64.8822C409.149 64.8822 389.829 35.135 348.429 33.402C307.029 31.6689 292.298 66.9406 262.134 80.546C246.341 87.6773 214.405 75.7386 197.559 79.8222C143.702 92.8964 124.478 152.736 147.652 184.336C167.706 211.732 202.299 224.302 254.584 224.129C306.869 223.957 343.593 225.457 389.813 194.024C436.034 162.59 431.78 104.184 409.149 64.8822Z" fill="white"/>
<path d="M301.962 70.0614H279.37V74.3907H301.962V70.0614Z" fill="#46A6FF"/>
<path d="M294.213 76.3163H279.37V80.6456H294.213V76.3163Z" fill="#46A6FF"/>
<path d="M287.917 82.5712H279.37V86.9004H287.917V82.5712Z" fill="#46A6FF"/>
<g opacity="0.2">
<path d="M301.962 70.0614H279.37V74.3907H301.962V70.0614Z" fill="black"/>
<path d="M294.213 76.3163H279.37V80.6456H294.213V76.3163Z" fill="black"/>
<path d="M287.917 82.5712H279.37V86.9004H287.917V82.5712Z" fill="black"/>
</g>
<path d="M240.141 118.002V131.036H247.801V118.002H240.141Z" fill="#46A6FF"/>
<path d="M251.209 122.478V131.036H258.87V122.478H251.209Z" fill="#46A6FF"/>
<path d="M262.269 126.103V131.03H269.93V126.103H262.269Z" fill="#46A6FF"/>
<g opacity="0.2">
<path d="M240.141 118.002V131.036H247.801V118.002H240.141Z" fill="black"/>
<path d="M251.209 122.478V131.036H258.87V122.478H251.209Z" fill="black"/>
<path d="M262.269 126.103V131.03H269.93V126.103H262.269Z" fill="black"/>
</g>
<path d="M238.425 140.545H331.192C332.407 140.547 333.611 140.349 334.734 139.964C335.857 139.578 336.877 139.012 337.737 138.298C338.597 137.583 339.279 136.735 339.744 135.801C340.21 134.868 340.449 133.867 340.449 132.856V69.2447C340.449 68.2338 340.21 67.2329 339.744 66.2991C339.279 65.3653 338.597 64.5171 337.737 63.8029C336.877 63.0888 335.857 62.5227 334.734 62.137C333.611 61.7514 332.407 61.5538 331.192 61.5556H238.425C237.21 61.5547 236.007 61.7529 234.885 62.1388C233.762 62.5248 232.742 63.0909 231.883 63.8049C231.023 64.5189 230.341 65.3668 229.875 66.3001C229.409 67.2335 229.169 68.2341 229.168 69.2447V132.856C229.169 133.866 229.409 134.867 229.875 135.8C230.341 136.734 231.023 137.582 231.883 138.296C232.742 139.01 233.762 139.576 234.885 139.962C236.007 140.348 237.21 140.546 238.425 140.545Z" stroke="#263238" stroke-width="1.0631" stroke-miterlimit="10"/>
<path d="M296.918 118.706H329.995" stroke="#263238" stroke-width="1.0631" stroke-miterlimit="10"/>
<path d="M296.918 121.648H329.995" stroke="#263238" stroke-width="1.0631" stroke-miterlimit="10"/>
<path d="M296.918 124.589H329.995" stroke="#263238" stroke-width="1.0631" stroke-miterlimit="10"/>
<path d="M296.918 127.537H329.995" stroke="#263238" stroke-width="1.0631" stroke-miterlimit="10"/>
<path d="M296.918 130.479H329.995" stroke="#263238" stroke-width="1.0631" stroke-miterlimit="10"/>
<path d="M239.127 70.7054H272.204" stroke="#263238" stroke-width="1.0631" stroke-miterlimit="10"/>
<path d="M239.127 73.647H272.204" stroke="#263238" stroke-width="1.0631" stroke-miterlimit="10"/>
<path d="M239.127 76.5885H272.204" stroke="#263238" stroke-width="1.0631" stroke-miterlimit="10"/>
<path d="M239.127 79.53H272.204" stroke="#263238" stroke-width="1.0631" stroke-miterlimit="10"/>
<path d="M239.127 82.4781H272.204" stroke="#263238" stroke-width="1.0631" stroke-miterlimit="10"/>
<path d="M325.854 93.8392L332.158 96.5948L331.448 81.8009L316.381 89.7091L322.686 92.4581L317.946 99.9679C317.107 99.9707 316.294 100.204 315.631 100.632L307.284 97.4049C307.284 96.5561 306.879 95.742 306.158 95.1418C305.436 94.5416 304.458 94.2044 303.438 94.2044C302.418 94.2044 301.439 94.5416 300.718 95.1418C299.997 95.742 299.592 96.5561 299.592 97.4049C299.591 97.8636 299.711 98.3167 299.943 98.7329L289.002 108.6C288.654 108.507 288.291 108.458 287.925 108.454C287.74 108.459 287.556 108.475 287.374 108.5L271.646 91.9601C271.872 91.5429 271.986 91.0898 271.981 90.6321C271.981 89.7833 271.576 88.9692 270.854 88.369C270.133 87.7688 269.155 87.4316 268.134 87.4316C267.114 87.4316 266.136 87.7688 265.415 88.369C264.693 88.9692 264.288 89.7833 264.288 90.6321C264.296 90.9617 264.364 91.2884 264.488 91.6015L246.525 106.82C246.103 106.692 245.657 106.625 245.208 106.621C244.449 106.623 243.708 106.811 243.078 107.163C242.447 107.514 241.957 108.014 241.667 108.597C241.378 109.181 241.303 109.823 241.452 110.442C241.601 111.061 241.967 111.63 242.504 112.076C243.042 112.522 243.726 112.825 244.47 112.948C245.214 113.071 245.986 113.007 246.687 112.765C247.387 112.523 247.986 112.114 248.408 111.589C248.829 111.064 249.054 110.446 249.054 109.815C249.053 109.55 249.01 109.287 248.927 109.032L267.041 93.64C267.395 93.7326 267.763 93.7818 268.134 93.7861C268.37 93.7857 268.605 93.7679 268.837 93.733L284.485 110.24C284.202 110.711 284.063 111.233 284.081 111.759C284.098 112.286 284.272 112.801 284.585 113.258C284.899 113.715 285.344 114.101 285.88 114.381C286.416 114.662 287.026 114.827 287.658 114.864C288.289 114.901 288.922 114.807 289.499 114.592C290.077 114.376 290.582 114.046 290.969 113.629C291.356 113.212 291.613 112.722 291.719 112.203C291.824 111.684 291.773 111.151 291.572 110.652L302.792 100.539C303.005 100.57 303.221 100.588 303.438 100.592C304.2 100.593 304.945 100.403 305.577 100.048L314.115 103.368C314.148 103.86 314.317 104.34 314.61 104.769C314.903 105.198 315.312 105.564 315.803 105.84C316.295 106.116 316.857 106.293 317.445 106.357C318.033 106.422 318.63 106.372 319.191 106.213C319.752 106.053 320.261 105.787 320.678 105.436C321.095 105.085 321.408 104.659 321.593 104.19C321.779 103.721 321.831 103.224 321.747 102.735C321.662 102.247 321.443 101.782 321.106 101.376L325.854 93.8392Z" fill="#263238"/>
<path d="M207.965 108.374L197.176 94.3439L179.349 105.253L162.91 78.1821L119.531 101.13V119.669H217.35V104.085L207.965 108.374Z" fill="#263238" stroke="#263238" stroke-width="1.16063" stroke-linecap="round" stroke-linejoin="round"/>
<path d="M209.841 118.892L198.118 104.085L178.415 110.711L155.425 92.3983L119.531 104.457V131.362H217.35V114.602L209.841 118.892Z" fill="#46A6FF" stroke="#263238" stroke-width="0.876601" stroke-miterlimit="10"/>
<path opacity="0.2" d="M209.841 118.892L198.118 104.085L178.415 110.711L155.425 92.3983L119.531 104.457V131.362H217.35V114.602L209.841 118.892Z" fill="black"/>
<path d="M209.841 118.892L198.118 104.085L178.415 110.711L155.425 92.3983L119.531 104.457V131.362H217.35V114.602L209.841 118.892Z" stroke="#263238" stroke-width="0.876601" stroke-miterlimit="10"/>
<path d="M175.112 71.3163H167.235C166.754 71.3134 166.285 71.4462 165.906 71.6933C165.527 71.9404 165.259 72.2871 165.147 72.6768C165.035 73.0666 165.085 73.4765 165.289 73.8395C165.493 74.2026 165.839 74.4975 166.27 74.6762L163.517 77.1131L168.536 74.8754H175.112C175.679 74.8754 176.223 74.6879 176.624 74.3542C177.025 74.0204 177.25 73.5678 177.25 73.0959C177.25 72.6239 177.025 72.1713 176.624 71.8375C176.223 71.5038 175.679 71.3163 175.112 71.3163Z" fill="#46A6FF"/>
<path opacity="0.2" d="M175.112 71.3163H167.235C166.754 71.3134 166.285 71.4462 165.906 71.6933C165.527 71.9404 165.259 72.2871 165.147 72.6768C165.035 73.0666 165.085 73.4765 165.289 73.8395C165.493 74.2026 165.839 74.4975 166.27 74.6762L163.517 77.1131L168.536 74.8754H175.112C175.679 74.8754 176.223 74.6879 176.624 74.3542C177.025 74.0204 177.25 73.5678 177.25 73.0959C177.25 72.6239 177.025 72.1713 176.624 71.8375C176.223 71.5038 175.679 71.3163 175.112 71.3163Z" fill="black"/>
<path d="M209.609 87.1594H201.733C201.251 87.1564 200.783 87.2893 200.404 87.5363C200.024 87.7834 199.757 88.1301 199.645 88.5199C199.533 88.9096 199.583 89.3195 199.787 89.6826C199.991 90.0456 200.336 90.3406 200.767 90.5192L198.014 92.976L203.034 90.7317H209.609C210.176 90.7317 210.72 90.5442 211.121 90.2105C211.523 89.8767 211.748 89.4241 211.748 88.9522C211.748 88.4802 211.523 88.0276 211.121 87.6938C210.72 87.3601 210.176 87.1726 209.609 87.1726V87.1594Z" fill="#46A6FF"/>
<path opacity="0.2" d="M209.609 87.1594H201.733C201.251 87.1564 200.783 87.2893 200.404 87.5363C200.024 87.7834 199.757 88.1301 199.645 88.5199C199.533 88.9096 199.583 89.3195 199.787 89.6826C199.991 90.0456 200.336 90.3406 200.767 90.5192L198.014 92.976L203.034 90.7317H209.609C210.176 90.7317 210.72 90.5442 211.121 90.2105C211.523 89.8767 211.748 89.4241 211.748 88.9522C211.748 88.4802 211.523 88.0276 211.121 87.6938C210.72 87.3601 210.176 87.1726 209.609 87.1726V87.1594Z" fill="black"/>
<path d="M123.481 140.545H216.249C217.463 140.547 218.667 140.349 219.79 139.964C220.913 139.578 221.933 139.012 222.793 138.298C223.653 137.583 224.335 136.735 224.8 135.801C225.266 134.868 225.505 133.867 225.505 132.856V69.2447C225.505 68.2338 225.266 67.2329 224.8 66.2991C224.335 65.3653 223.653 64.5171 222.793 63.8029C221.933 63.0888 220.913 62.5227 219.79 62.137C218.667 61.7514 217.463 61.5538 216.249 61.5556H123.481C122.266 61.5538 121.063 61.7514 119.94 62.137C118.817 62.5227 117.796 63.0888 116.936 63.8029C116.077 64.5171 115.395 65.3653 114.929 66.2991C114.464 67.2329 114.224 68.2338 114.224 69.2447V132.856C114.224 133.867 114.464 134.868 114.929 135.801C115.395 136.735 116.077 137.583 116.936 138.298C117.796 139.012 118.817 139.578 119.94 139.964C121.063 140.349 122.266 140.547 123.481 140.545Z" stroke="#263238" stroke-width="1.0631" stroke-miterlimit="10"/>
<path d="M121.271 70.1411H127.663" stroke="#263238" stroke-width="1.0631" stroke-miterlimit="10"/>
<path d="M121.271 75.9312H127.663" stroke="#263238" stroke-width="1.0631" stroke-miterlimit="10"/>
<path d="M121.271 81.7212H127.663" stroke="#263238" stroke-width="1.0631" stroke-miterlimit="10"/>
<path d="M121.271 87.5114H127.663" stroke="#263238" stroke-width="1.0631" stroke-miterlimit="10"/>
<path d="M121.271 93.3014H127.663" stroke="#263238" stroke-width="1.0631" stroke-miterlimit="10"/>
<path d="M372.313 77.9895C368.157 77.9948 364.097 79.025 360.644 80.95C357.192 82.8749 354.503 85.6083 352.917 88.8046C351.331 92.0009 350.919 95.5167 351.734 98.9076C352.548 102.299 354.553 105.412 357.494 107.856C360.434 110.299 364.18 111.962 368.256 112.635C372.333 113.308 376.557 112.96 380.396 111.635C384.235 110.311 387.516 108.069 389.824 105.193C392.133 102.318 393.365 98.9373 393.365 95.4793C393.356 90.8383 391.134 86.3897 387.188 83.1105C383.241 79.8313 377.891 77.9895 372.313 77.9895ZM372.313 107.83C369.378 107.82 366.512 107.088 364.077 105.724C361.642 104.36 359.747 102.427 358.632 100.168C357.517 97.9087 357.231 95.4252 357.811 93.0311C358.391 90.6369 359.811 88.4395 361.891 86.7162C363.971 84.993 366.618 83.8212 369.497 83.3489C372.377 82.8766 375.36 83.125 378.071 84.0626C380.781 85.0003 383.096 86.5852 384.725 88.6171C386.353 90.6491 387.222 93.037 387.22 95.4793C387.216 97.1046 386.827 98.7134 386.076 100.214C385.324 101.714 384.225 103.076 382.841 104.223C381.457 105.37 379.814 106.279 378.008 106.898C376.202 107.516 374.267 107.833 372.313 107.83Z" fill="#46A6FF" stroke="#263238" stroke-width="1.0631" stroke-miterlimit="10"/>
<g opacity="0.2">
<path d="M372.313 77.9895C368.157 77.9948 364.097 79.025 360.644 80.95C357.192 82.8749 354.503 85.6083 352.917 88.8046C351.331 92.0009 350.919 95.5167 351.734 98.9076C352.548 102.299 354.553 105.412 357.494 107.856C360.434 110.299 364.18 111.962 368.256 112.635C372.333 113.308 376.557 112.96 380.396 111.635C384.235 110.311 387.516 108.069 389.824 105.193C392.133 102.318 393.365 98.9373 393.365 95.4793C393.356 90.8383 391.134 86.3897 387.188 83.1105C383.241 79.8313 377.891 77.9895 372.313 77.9895ZM372.313 107.83C369.378 107.82 366.512 107.088 364.077 105.724C361.642 104.36 359.747 102.427 358.632 100.168C357.517 97.9087 357.231 95.4252 357.811 93.0311C358.391 90.6369 359.811 88.4395 361.891 86.7162C363.971 84.993 366.618 83.8212 369.497 83.3489C372.377 82.8766 375.36 83.125 378.071 84.0626C380.781 85.0003 383.096 86.5852 384.725 88.6171C386.353 90.6491 387.222 93.037 387.22 95.4793C387.216 97.1046 386.827 98.7134 386.076 100.214C385.324 101.714 384.225 103.076 382.841 104.223C381.457 105.37 379.814 106.279 378.008 106.898C376.202 107.516 374.267 107.833 372.313 107.83Z" fill="black"/>
</g>
<path d="M372.313 77.9895C368.157 77.9948 364.097 79.025 360.644 80.95C357.192 82.8749 354.503 85.6083 352.917 88.8046C351.331 92.0009 350.919 95.5167 351.734 98.9076C352.548 102.299 354.553 105.412 357.494 107.856C360.434 110.299 364.18 111.962 368.256 112.635C372.333 113.308 376.557 112.96 380.396 111.635C384.235 110.311 387.516 108.069 389.824 105.193C392.133 102.318 393.365 98.9373 393.365 95.4793C393.356 90.8383 391.134 86.3897 387.188 83.1105C383.241 79.8313 377.891 77.9895 372.313 77.9895ZM372.313 107.83C369.378 107.82 366.512 107.088 364.077 105.724C361.642 104.36 359.747 102.427 358.632 100.168C357.517 97.9087 357.231 95.4252 357.811 93.0311C358.391 90.6369 359.811 88.4395 361.891 86.7162C363.971 84.993 366.618 83.8212 369.497 83.3489C372.377 82.8766 375.36 83.125 378.071 84.0626C380.781 85.0003 383.096 86.5852 384.725 88.6171C386.353 90.6491 387.222 93.037 387.22 95.4793C387.216 97.1046 386.827 98.7134 386.076 100.214C385.324 101.714 384.225 103.076 382.841 104.223C381.457 105.37 379.814 106.279 378.008 106.898C376.202 107.516 374.267 107.833 372.313 107.83Z" stroke="#263238" stroke-width="1.0631" stroke-miterlimit="10"/>
<path d="M372.313 77.9895C369.473 77.98 366.659 78.4526 364.045 79.3785C361.432 80.3044 359.072 81.6641 357.111 83.3746L361.572 86.927C363.27 85.4478 365.382 84.3421 367.72 83.7092C370.057 83.0762 372.547 82.9357 374.966 83.3003C377.385 83.6648 379.657 84.5229 381.579 85.7979C383.502 87.0728 385.014 88.7246 385.98 90.6053C386.947 92.486 387.337 94.5368 387.117 96.574C386.897 98.6112 386.072 100.571 384.718 102.278C383.364 103.985 381.521 105.386 379.356 106.355C377.192 107.323 374.772 107.83 372.313 107.83V112.962C375.108 113.008 377.885 112.589 380.482 111.73C383.079 110.872 385.445 109.591 387.44 107.963C389.436 106.335 391.021 104.392 392.103 102.248C393.185 100.104 393.742 97.8014 393.742 95.476C393.742 93.1505 393.185 90.8484 392.103 88.7043C391.021 86.5602 389.436 84.6172 387.44 82.9889C385.445 81.3607 383.079 80.0799 380.482 79.2215C377.885 78.363 375.108 77.9442 372.313 77.9895Z" fill="#263238" stroke="#263238" stroke-width="1.0631" stroke-linecap="round" stroke-linejoin="round"/>
<path d="M424.231 77.9895C420.075 77.9948 416.015 79.025 412.562 80.95C409.11 82.8749 406.421 85.6083 404.835 88.8046C403.249 92.0009 402.837 95.5167 403.652 98.9076C404.466 102.299 406.471 105.412 409.411 107.856C412.352 110.299 416.098 111.962 420.174 112.635C424.251 113.308 428.475 112.96 432.314 111.635C436.153 110.311 439.434 108.069 441.742 105.193C444.05 102.318 445.282 98.9373 445.282 95.4793C445.274 90.8383 443.052 86.3897 439.105 83.1105C435.158 79.8313 429.809 77.9895 424.231 77.9895ZM424.231 107.83C421.294 107.828 418.423 107.102 415.982 105.743C413.541 104.385 411.638 102.454 410.516 100.195C409.393 97.9369 409.101 95.4521 409.675 93.0554C410.25 90.6586 411.666 88.4574 413.744 86.7302C415.822 85.0029 418.469 83.8272 421.35 83.3517C424.231 82.8762 427.217 83.1223 429.93 84.0588C432.643 84.9952 434.961 86.5801 436.592 88.6129C438.222 90.6458 439.092 93.0353 439.09 95.4793C439.079 98.7544 437.51 101.893 434.725 104.207C431.941 106.522 428.167 107.824 424.231 107.83Z" fill="#46A6FF" stroke="#263238" stroke-width="1.0631" stroke-miterlimit="10"/>
<g opacity="0.2">
<path d="M424.231 77.9895C420.075 77.9948 416.015 79.025 412.562 80.95C409.11 82.8749 406.421 85.6083 404.835 88.8046C403.249 92.0009 402.837 95.5167 403.652 98.9076C404.466 102.299 406.471 105.412 409.411 107.856C412.352 110.299 416.098 111.962 420.174 112.635C424.251 113.308 428.475 112.96 432.314 111.635C436.153 110.311 439.434 108.069 441.742 105.193C444.05 102.318 445.282 98.9373 445.282 95.4793C445.274 90.8383 443.052 86.3897 439.105 83.1105C435.158 79.8313 429.809 77.9895 424.231 77.9895ZM424.231 107.83C421.294 107.828 418.423 107.102 415.982 105.743C413.541 104.385 411.638 102.454 410.516 100.195C409.393 97.9369 409.101 95.4521 409.675 93.0554C410.25 90.6586 411.666 88.4574 413.744 86.7302C415.822 85.0029 418.469 83.8272 421.35 83.3517C424.231 82.8762 427.217 83.1223 429.93 84.0588C432.643 84.9952 434.961 86.5801 436.592 88.6129C438.222 90.6458 439.092 93.0353 439.09 95.4793C439.079 98.7544 437.51 101.893 434.725 104.207C431.941 106.522 428.167 107.824 424.231 107.83Z" fill="black"/>
</g>
<path d="M424.231 77.9895C420.075 77.9948 416.015 79.025 412.562 80.95C409.11 82.8749 406.421 85.6083 404.835 88.8046C403.249 92.0009 402.837 95.5167 403.652 98.9076C404.466 102.299 406.471 105.412 409.411 107.856C412.352 110.299 416.098 111.962 420.174 112.635C424.251 113.308 428.475 112.96 432.314 111.635C436.153 110.311 439.434 108.069 441.742 105.193C444.05 102.318 445.282 98.9373 445.282 95.4793C445.274 90.8383 443.052 86.3897 439.105 83.1105C435.158 79.8313 429.809 77.9895 424.231 77.9895ZM424.231 107.83C421.294 107.828 418.423 107.102 415.982 105.743C413.541 104.385 411.638 102.454 410.516 100.195C409.393 97.9369 409.101 95.4521 409.675 93.0554C410.25 90.6586 411.666 88.4574 413.744 86.7302C415.822 85.0029 418.469 83.8272 421.35 83.3517C424.231 82.8762 427.217 83.1223 429.93 84.0588C432.643 84.9952 434.961 86.5801 436.592 88.6129C438.222 90.6458 439.092 93.0353 439.09 95.4793C439.079 98.7544 437.51 101.893 434.725 104.207C431.941 106.522 428.167 107.824 424.231 107.83Z" stroke="#263238" stroke-width="1.0631" stroke-miterlimit="10"/>
<path d="M432.427 79.364L430.033 84.0917C433.189 85.2025 435.787 87.1875 437.385 89.71C438.983 92.2325 439.484 95.1373 438.801 97.9319C438.119 100.726 436.297 103.239 433.643 105.043C430.989 106.847 427.666 107.831 424.239 107.83V112.962C429.095 112.972 433.804 111.582 437.567 109.028C441.329 106.475 443.913 102.916 444.879 98.9569C445.845 94.9976 445.133 90.8822 442.864 87.3103C440.596 83.7384 436.91 80.9305 432.435 79.364H432.427Z" fill="#263238" stroke="#263238" stroke-width="1.0631" stroke-linecap="round" stroke-linejoin="round"/>
<path d="M442.537 61.5555H355.795C354.285 61.5547 352.789 61.8013 351.394 62.2813C349.998 62.7614 348.73 63.4654 347.661 64.3533C346.593 65.2412 345.745 66.2955 345.166 67.456C344.587 68.6166 344.289 69.8606 344.288 71.1171V130.99C344.292 133.527 345.506 135.958 347.664 137.75C349.822 139.541 352.746 140.547 355.795 140.545H442.537C444.047 140.547 445.542 140.301 446.938 139.822C448.333 139.342 449.602 138.639 450.67 137.752C451.739 136.864 452.587 135.81 453.166 134.65C453.745 133.49 454.043 132.246 454.045 130.99V71.1171C454.043 69.8606 453.745 68.6166 453.166 67.456C452.587 66.2955 451.739 65.2412 450.671 64.3533C449.602 63.4654 448.334 62.7614 446.939 62.2813C445.543 61.8013 444.047 61.5547 442.537 61.5555Z" stroke="#263238" stroke-width="1.0631" stroke-miterlimit="10"/>
<path d="M353.608 118.706H386.677" stroke="#263238" stroke-width="1.0631" stroke-miterlimit="10"/>
<path d="M353.608 121.648H386.677" stroke="#263238" stroke-width="1.0631" stroke-miterlimit="10"/>
<path d="M353.608 124.589H386.677" stroke="#263238" stroke-width="1.0631" stroke-miterlimit="10"/>
<path d="M353.608 127.537H386.677" stroke="#263238" stroke-width="1.0631" stroke-miterlimit="10"/>
<path d="M353.608 130.479H386.677" stroke="#263238" stroke-width="1.0631" stroke-miterlimit="10"/>
<path d="M408.223 118.706H441.3" stroke="#263238" stroke-width="1.0631" stroke-miterlimit="10"/>
<path d="M408.223 121.648H441.3" stroke="#263238" stroke-width="1.0631" stroke-miterlimit="10"/>
<path d="M408.223 124.589H441.3" stroke="#263238" stroke-width="1.0631" stroke-miterlimit="10"/>
<path d="M408.223 127.537H441.3" stroke="#263238" stroke-width="1.0631" stroke-miterlimit="10"/>
<path d="M408.223 130.479H441.3" stroke="#263238" stroke-width="1.0631" stroke-miterlimit="10"/>
<path d="M381.522 69.663H414.591" stroke="#263238" stroke-width="1.0631" stroke-miterlimit="10"/>
<path d="M381.522 72.6111H414.591" stroke="#263238" stroke-width="1.0631" stroke-miterlimit="10"/>
<path d="M343.936 251.234H441.835C445.07 251.235 448.173 250.168 450.462 248.267C452.752 246.366 454.04 243.786 454.044 241.094V155.299C454.043 153.966 453.727 152.646 453.113 151.414C452.498 150.183 451.599 149.064 450.465 148.122C449.331 147.18 447.986 146.433 446.505 145.923C445.024 145.414 443.437 145.152 441.835 145.153H297.237C295.635 145.152 294.048 145.414 292.568 145.923C291.087 146.433 289.741 147.18 288.607 148.122C287.474 149.064 286.574 150.183 285.96 151.414C285.346 152.646 285.029 153.966 285.028 155.299V211.832" stroke="#263238" stroke-width="1.0631" stroke-miterlimit="10"/>
<path d="M332.381 195.185H309.096V223.346H332.381V195.185Z" fill="#46A6FF" stroke="#263238" stroke-width="1.16063" stroke-miterlimit="10"/>
<path opacity="0.2" d="M332.381 195.185H309.096V223.346H332.381V195.185Z" fill="black"/>
<path d="M332.381 195.185H309.096V223.346H332.381V195.185Z" stroke="#263238" stroke-width="1.16063" stroke-miterlimit="10"/>
<path d="M364.716 181.102H341.431V212.277H364.716V181.102Z" fill="#46A6FF" stroke="#263238" stroke-width="1.16063" stroke-miterlimit="10"/>
<path opacity="0.2" d="M364.716 181.102H341.431V212.277H364.716V181.102Z" fill="black"/>
<path d="M364.716 181.102H341.431V212.277H364.716V181.102Z" stroke="#263238" stroke-width="1.16063" stroke-miterlimit="10"/>
<path d="M397.051 169.542H373.766V190.159H397.051V169.542Z" fill="#46A6FF" stroke="#263238" stroke-width="1.16063" stroke-miterlimit="10"/>
<path opacity="0.2" d="M397.051 169.542H373.766V190.159H397.051V169.542Z" fill="black"/>
<path d="M397.051 169.542H373.766V190.159H397.051V169.542Z" stroke="#263238" stroke-width="1.16063" stroke-miterlimit="10"/>
<path d="M332.381 223.339H309.096V234.906H332.381V223.339Z" fill="#263238" stroke="#263238" stroke-width="1.16063" stroke-linecap="round" stroke-linejoin="round"/>
<path d="M364.716 212.277H341.431V234.906H364.716V212.277Z" fill="#263238" stroke="#263238" stroke-width="1.16063" stroke-linecap="round" stroke-linejoin="round"/>
<path d="M427.479 181.102H404.193V212.277H427.479V181.102Z" fill="#46A6FF" stroke="#263238" stroke-width="1.16063" stroke-miterlimit="10"/>
<path opacity="0.2" d="M427.479 181.102H404.193V212.277H427.479V181.102Z" fill="black"/>
<path d="M427.479 181.102H404.193V212.277H427.479V181.102Z" stroke="#263238" stroke-width="1.16063" stroke-miterlimit="10"/>
<path d="M427.479 212.277H404.193V234.906H427.479V212.277Z" fill="#263238" stroke="#263238" stroke-width="1.16063" stroke-linecap="round" stroke-linejoin="round"/>
<path d="M397.051 190.152H373.766V234.906H397.051V190.152Z" fill="#263238" stroke="#263238" stroke-width="1.16063" stroke-linecap="round" stroke-linejoin="round"/>
<path d="M360.678 169.582H346.147C345.48 169.582 344.841 169.802 344.369 170.194C343.898 170.587 343.633 171.119 343.633 171.673V174.455C343.633 175.01 343.898 175.542 344.369 175.934C344.841 176.327 345.48 176.547 346.147 176.547H351.533L353.417 179.256L355.292 176.547H360.678C361.345 176.547 361.984 176.327 362.456 175.934C362.927 175.542 363.192 175.01 363.192 174.455V171.673C363.192 171.119 362.927 170.587 362.456 170.194C361.984 169.802 361.345 169.582 360.678 169.582Z" fill="#46A6FF"/>
<mask id="mask0_26_4" style="mask-type:luminance" maskUnits="userSpaceOnUse" x="343" y="169" width="21" height="11">
<path d="M360.678 169.582H346.147C345.48 169.582 344.841 169.802 344.369 170.194C343.898 170.587 343.633 171.119 343.633 171.673V174.455C343.633 175.01 343.898 175.542 344.369 175.934C344.841 176.327 345.48 176.547 346.147 176.547H351.533L353.417 179.256L355.292 176.547H360.678C361.345 176.547 361.984 176.327 362.456 175.934C362.927 175.542 363.192 175.01 363.192 174.455V171.673C363.192 171.119 362.927 170.587 362.456 170.194C361.984 169.802 361.345 169.582 360.678 169.582Z" fill="white"/>
</mask>
<g mask="url(#mask0_26_4)">
<path opacity="0.5" d="M360.678 169.582H346.147C345.48 169.582 344.841 169.802 344.369 170.194C343.898 170.587 343.633 171.119 343.633 171.673V174.455C343.633 175.01 343.898 175.542 344.369 175.934C344.841 176.327 345.48 176.547 346.147 176.547H351.533L353.417 179.256L355.292 176.547H360.678C361.345 176.547 361.984 176.327 362.456 175.934C362.927 175.542 363.192 175.01 363.192 174.455V171.673C363.192 171.119 362.927 170.587 362.456 170.194C361.984 169.802 361.345 169.582 360.678 169.582Z" fill="white"/>
</g>
<path d="M360.678 169.582H346.147C345.48 169.582 344.841 169.802 344.369 170.194C343.898 170.587 343.633 171.119 343.633 171.673V174.455C343.633 175.01 343.898 175.542 344.369 175.934C344.841 176.327 345.48 176.547 346.147 176.547H351.533L353.417 179.256L355.292 176.547H360.678C361.345 176.547 361.984 176.327 362.456 175.934C362.927 175.542 363.192 175.01 363.192 174.455V171.673C363.192 171.119 362.927 170.587 362.456 170.194C361.984 169.802 361.345 169.582 360.678 169.582Z" stroke="#263238" stroke-width="1.16689" stroke-linecap="round" stroke-linejoin="round"/>
<path d="M328 184.024H313.477C312.811 184.024 312.173 184.243 311.702 184.634C311.231 185.025 310.965 185.555 310.963 186.109V188.897C310.965 189.451 311.231 189.981 311.702 190.372C312.173 190.763 312.811 190.982 313.477 190.982H318.855L320.739 193.692L322.622 190.982H328C328.666 190.982 329.304 190.763 329.775 190.372C330.246 189.981 330.512 189.451 330.514 188.897V186.109C330.512 185.555 330.246 185.025 329.775 184.634C329.304 184.243 328.666 184.024 328 184.024Z" fill="#46A6FF"/>
<mask id="mask1_26_4" style="mask-type:luminance" maskUnits="userSpaceOnUse" x="310" y="184" width="21" height="10">
<path d="M328 184.024H313.477C312.811 184.024 312.173 184.243 311.702 184.634C311.231 185.025 310.965 185.555 310.963 186.109V188.897C310.965 189.451 311.231 189.981 311.702 190.372C312.173 190.763 312.811 190.982 313.477 190.982H318.855L320.739 193.692L322.622 190.982H328C328.666 190.982 329.304 190.763 329.775 190.372C330.246 189.981 330.512 189.451 330.514 188.897V186.109C330.512 185.555 330.246 185.025 329.775 184.634C329.304 184.243 328.666 184.024 328 184.024Z" fill="white"/>
</mask>
<g mask="url(#mask1_26_4)">
<path opacity="0.5" d="M328 184.024H313.477C312.811 184.024 312.173 184.243 311.702 184.634C311.231 185.025 310.965 185.555 310.963 186.109V188.897C310.965 189.451 311.231 189.981 311.702 190.372C312.173 190.763 312.811 190.982 313.477 190.982H318.855L320.739 193.692L322.622 190.982H328C328.666 190.982 329.304 190.763 329.775 190.372C330.246 189.981 330.512 189.451 330.514 188.897V186.109C330.512 185.555 330.246 185.025 329.775 184.634C329.304 184.243 328.666 184.024 328 184.024Z" fill="white"/>
</g>
<path d="M328 184.024H313.477C312.811 184.024 312.173 184.243 311.702 184.634C311.231 185.025 310.965 185.555 310.963 186.109V188.897C310.965 189.451 311.231 189.981 311.702 190.372C312.173 190.763 312.811 190.982 313.477 190.982H318.855L320.739 193.692L322.622 190.982H328C328.666 190.982 329.304 190.763 329.775 190.372C330.246 189.981 330.512 189.451 330.514 188.897V186.109C330.512 185.555 330.246 185.025 329.775 184.634C329.304 184.243 328.666 184.024 328 184.024Z" stroke="#263238" stroke-width="1.16689" stroke-linecap="round" stroke-linejoin="round"/>
<path d="M392.527 157.982H377.995C377.328 157.982 376.689 158.202 376.218 158.594C375.746 158.986 375.481 159.518 375.481 160.073V162.855C375.481 163.13 375.546 163.401 375.673 163.655C375.799 163.908 375.985 164.138 376.218 164.332C376.452 164.526 376.729 164.679 377.034 164.783C377.339 164.888 377.665 164.941 377.995 164.94H383.382L385.257 167.649L387.14 164.94H392.527C392.856 164.941 393.183 164.888 393.488 164.783C393.793 164.679 394.07 164.526 394.304 164.332C394.537 164.138 394.722 163.908 394.849 163.655C394.975 163.401 395.04 163.13 395.04 162.855V160.073C395.04 159.518 394.775 158.986 394.304 158.594C393.833 158.202 393.193 157.982 392.527 157.982Z" fill="#46A6FF"/>
<mask id="mask2_26_4" style="mask-type:luminance" maskUnits="userSpaceOnUse" x="375" y="157" width="21" height="11">
<path d="M392.527 157.982H377.995C377.328 157.982 376.689 158.202 376.218 158.594C375.746 158.986 375.481 159.518 375.481 160.073V162.855C375.481 163.13 375.546 163.401 375.673 163.655C375.799 163.908 375.985 164.138 376.218 164.332C376.452 164.526 376.729 164.679 377.034 164.783C377.339 164.888 377.665 164.941 377.995 164.94H383.382L385.257 167.649L387.14 164.94H392.527C392.856 164.941 393.183 164.888 393.488 164.783C393.793 164.679 394.07 164.526 394.304 164.332C394.537 164.138 394.722 163.908 394.849 163.655C394.975 163.401 395.04 163.13 395.04 162.855V160.073C395.04 159.518 394.775 158.986 394.304 158.594C393.833 158.202 393.193 157.982 392.527 157.982Z" fill="white"/>
</mask>
<g mask="url(#mask2_26_4)">
<path opacity="0.5" d="M392.527 157.982H377.995C377.328 157.982 376.689 158.202 376.218 158.594C375.746 158.986 375.481 159.518 375.481 160.073V162.855C375.481 163.13 375.546 163.401 375.673 163.655C375.799 163.908 375.985 164.138 376.218 164.332C376.452 164.526 376.729 164.679 377.034 164.783C377.339 164.888 377.665 164.941 377.995 164.94H383.382L385.257 167.649L387.14 164.94H392.527C392.856 164.941 393.183 164.888 393.488 164.783C393.793 164.679 394.07 164.526 394.304 164.332C394.537 164.138 394.722 163.908 394.849 163.655C394.975 163.401 395.04 163.13 395.04 162.855V160.073C395.04 159.518 394.775 158.986 394.304 158.594C393.833 158.202 393.193 157.982 392.527 157.982Z" fill="white"/>
</g>
<path d="M392.527 157.982H377.995C377.328 157.982 376.689 158.202 376.218 158.594C375.746 158.986 375.481 159.518 375.481 160.073V162.855C375.481 163.13 375.546 163.401 375.673 163.655C375.799 163.908 375.985 164.138 376.218 164.332C376.452 164.526 376.729 164.679 377.034 164.783C377.339 164.888 377.665 164.941 377.995 164.94H383.382L385.257 167.649L387.14 164.94H392.527C392.856 164.941 393.183 164.888 393.488 164.783C393.793 164.679 394.07 164.526 394.304 164.332C394.537 164.138 394.722 163.908 394.849 163.655C394.975 163.401 395.04 163.13 395.04 162.855V160.073C395.04 159.518 394.775 158.986 394.304 158.594C393.833 158.202 393.193 157.982 392.527 157.982Z" stroke="#263238" stroke-width="1.16689" stroke-linecap="round" stroke-linejoin="round"/>
<path d="M423.13 169.402H408.606C407.94 169.402 407.3 169.623 406.829 170.015C406.357 170.407 406.093 170.939 406.093 171.494V174.276C406.093 174.55 406.158 174.822 406.284 175.076C406.411 175.329 406.596 175.559 406.829 175.753C407.063 175.946 407.34 176.1 407.645 176.204C407.95 176.309 408.277 176.362 408.606 176.361H413.985L415.868 179.07L417.751 176.361H423.13C423.46 176.362 423.787 176.309 424.093 176.204C424.398 176.1 424.676 175.947 424.91 175.753C425.144 175.56 425.33 175.329 425.457 175.076C425.585 174.823 425.651 174.551 425.652 174.276V171.494C425.65 170.939 425.383 170.407 424.91 170.015C424.438 169.622 423.797 169.402 423.13 169.402Z" fill="#46A6FF"/>
<mask id="mask3_26_4" style="mask-type:luminance" maskUnits="userSpaceOnUse" x="406" y="169" width="20" height="11">
<path d="M423.13 169.402H408.606C407.94 169.402 407.3 169.623 406.829 170.015C406.357 170.407 406.093 170.939 406.093 171.494V174.276C406.093 174.55 406.158 174.822 406.284 175.076C406.411 175.329 406.596 175.559 406.829 175.753C407.063 175.946 407.34 176.1 407.645 176.204C407.95 176.309 408.277 176.362 408.606 176.361H413.985L415.868 179.07L417.751 176.361H423.13C423.46 176.362 423.787 176.309 424.093 176.204C424.398 176.1 424.676 175.947 424.91 175.753C425.144 175.56 425.33 175.329 425.457 175.076C425.585 174.823 425.651 174.551 425.652 174.276V171.494C425.65 170.939 425.383 170.407 424.91 170.015C424.438 169.622 423.797 169.402 423.13 169.402Z" fill="white"/>
</mask>
<g mask="url(#mask3_26_4)">
<path opacity="0.5" d="M423.13 169.402H408.606C407.94 169.402 407.3 169.623 406.829 170.015C406.357 170.407 406.093 170.939 406.093 171.494V174.276C406.093 174.55 406.158 174.822 406.284 175.076C406.411 175.329 406.596 175.559 406.829 175.753C407.063 175.946 407.34 176.1 407.645 176.204C407.95 176.309 408.277 176.362 408.606 176.361H413.985L415.868 179.07L417.751 176.361H423.13C423.46 176.362 423.787 176.309 424.093 176.204C424.398 176.1 424.676 175.947 424.91 175.753C425.144 175.56 425.33 175.329 425.457 175.076C425.585 174.823 425.651 174.551 425.652 174.276V171.494C425.65 170.939 425.383 170.407 424.91 170.015C424.438 169.622 423.797 169.402 423.13 169.402Z" fill="white"/>
</g>
<path d="M423.13 169.402H408.606C407.94 169.402 407.3 169.623 406.829 170.015C406.357 170.407 406.093 170.939 406.093 171.494V174.276C406.093 174.55 406.158 174.822 406.284 175.076C406.411 175.329 406.596 175.559 406.829 175.753C407.063 175.946 407.34 176.1 407.645 176.204C407.95 176.309 408.277 176.362 408.606 176.361H413.985L415.868 179.07L417.751 176.361H423.13C423.46 176.362 423.787 176.309 424.093 176.204C424.398 176.1 424.676 175.947 424.91 175.753C425.144 175.56 425.33 175.329 425.457 175.076C425.585 174.823 425.651 174.551 425.652 174.276V171.494C425.65 170.939 425.383 170.407 424.91 170.015C424.438 169.622 423.797 169.402 423.13 169.402Z" stroke="#263238" stroke-width="1.16689" stroke-linecap="round" stroke-linejoin="round"/>
<path d="M309.886 154.024H342.963" stroke="#263238" stroke-width="1.0631" stroke-miterlimit="10"/>
<path d="M309.886 156.966H342.963" stroke="#263238" stroke-width="1.0631" stroke-miterlimit="10"/>
<path d="M309.886 159.914H342.963" stroke="#263238" stroke-width="1.0631" stroke-miterlimit="10"/>
<path d="M309.886 162.855H342.963" stroke="#263238" stroke-width="1.0631" stroke-miterlimit="10"/>
<path d="M309.886 165.797H342.963" stroke="#263238" stroke-width="1.0631" stroke-miterlimit="10"/>
<path d="M132.403 200.962C131.964 201.401 131.517 201.865 131.038 202.397C125.101 209.037 128.197 222.981 124.59 228.127C120.983 233.273 111.95 231.799 110.146 239.886C108.343 247.974 109.348 256.42 107.824 260.47C106.3 264.52 100.347 267.11 99.3096 271.864C98.2722 276.619 97.9609 280.065 97.9609 280.065L132.403 279.122V200.962Z" fill="#46A6FF"/>
<path opacity="0.7" d="M132.403 200.962C131.964 201.401 131.517 201.865 131.038 202.397C125.101 209.037 128.197 222.981 124.59 228.127C120.983 233.273 111.95 231.799 110.146 239.886C108.343 247.974 109.348 256.42 107.824 260.47C106.3 264.52 100.347 267.11 99.3096 271.864C98.2722 276.619 97.9609 280.065 97.9609 280.065L132.403 279.122V200.962Z" fill="white"/>
<path d="M254.88 279.421L219.512 282.82L230.373 291.187L254.76 289.427" fill="#263238"/>
<path d="M254.88 279.421L219.512 282.82L230.373 291.187L254.76 289.427" stroke="#263238" stroke-width="0.969857" stroke-linecap="round" stroke-linejoin="round"/>
<path d="M231.043 284.155L253.699 282.097" stroke="white" stroke-width="0.484928" stroke-linecap="round" stroke-linejoin="round"/>
<path d="M232.815 286.213L253.347 284.746" stroke="white" stroke-width="0.484928" stroke-linecap="round" stroke-linejoin="round"/>
<path d="M234.938 287.98L253.699 286.505" stroke="white" stroke-width="0.484928" stroke-linecap="round" stroke-linejoin="round"/>
<path d="M233.302 282.946L239.758 288.803" stroke="white" stroke-width="0.484928" stroke-linecap="round" stroke-linejoin="round"/>
<path d="M238.082 282.754L244.498 288.272" stroke="white" stroke-width="0.484928" stroke-linecap="round" stroke-linejoin="round"/>
<path d="M243.045 282.163L249.453 287.681" stroke="white" stroke-width="0.484928" stroke-linecap="round" stroke-linejoin="round"/>
<path d="M248.352 281.871L253.699 286.506" stroke="white" stroke-width="0.484928" stroke-linecap="round" stroke-linejoin="round"/>
<path d="M218.714 209.74C217.549 209.329 212.155 191.859 212.155 191.859L209.378 185.272C209.378 185.272 205.204 173.42 203.608 171.215C202.012 169.011 195.628 167.231 195.628 167.231L193.234 166.136L182.86 161.488V161.534L181.368 158.938L163.509 146.986C163.509 146.986 163.828 149.868 164.307 152.71C164.259 152.71 160.588 154.702 159.279 156.448C159.032 156.773 158.816 157.47 157.827 159.296C153.837 161.01 138.811 167.563 133.839 170.757C128.006 174.495 126.944 177.138 127.208 179.343L127.479 182.862C127.479 182.862 129.969 195.478 132.562 201.699L132.243 201.573L132.155 279.009L206.872 276.652L206.992 219.129C209.545 218.432 212.203 217.616 213.807 217.025L214.206 217.323L217.573 219.375C218.115 219.714 218.743 219.943 219.409 220.046C220.075 220.149 220.76 220.121 221.412 219.966C222.84 219.627 221.946 218.22 220.909 217.755C220.121 217.313 219.374 216.822 218.674 216.288L215.562 213.06C217.43 213.339 220.422 213.778 221.667 213.924C223.518 214.143 225.904 214.588 226.168 212.596C226.431 210.604 220.574 210.404 218.714 209.74Z" fill="white"/>
<path d="M163.596 147.012C163.596 147.012 164.61 156.375 165.272 158.061C165.871 159.588 168.895 167.922 171.545 171.66C174.194 175.398 177.426 174.98 177.929 170.784C178.431 166.587 178.176 159.781 178.176 159.781" stroke="#263238" stroke-width="0.969857" stroke-linecap="round" stroke-linejoin="round"/>
<path d="M164.203 152.929C164.203 152.929 160.684 154.715 159.359 156.474C158.034 158.234 152.464 174.522 152.464 174.522L163.062 174.967L154.052 178.287" stroke="#263238" stroke-width="0.969857" stroke-linecap="round" stroke-linejoin="round"/>
<path d="M154.324 180.246C154.324 180.246 163.333 192.576 164.658 193.904C165.472 194.726 166.18 195.616 166.773 196.56" stroke="#263238" stroke-width="0.969857" stroke-linecap="round" stroke-linejoin="round"/>
<path d="M164.921 156.72C164.921 156.72 169.422 172.132 172.103 180.272C174.784 188.413 177.346 198.552 177.346 198.552" stroke="#263238" stroke-width="0.969857" stroke-linecap="round" stroke-linejoin="round"/>
<path d="M178.144 161.541C178.144 161.541 179.205 179.369 179.205 186.414V197.636" stroke="#263238" stroke-width="0.969857" stroke-linecap="round" stroke-linejoin="round"/>
<path d="M181.879 159.774L189.037 171.886L183.203 173.426L192.213 177.603L184.001 198.957" stroke="#263238" stroke-width="0.969857" stroke-linecap="round" stroke-linejoin="round"/>
<path d="M182.94 161.541L193.274 166.162" stroke="#263238" stroke-width="0.969857" stroke-linecap="round" stroke-linejoin="round"/>
<path d="M201.493 179.588L202.818 200.279" stroke="#263238" stroke-width="0.969857" stroke-linecap="round" stroke-linejoin="round"/>
<path d="M157.763 159.336C157.763 159.336 139.744 167.039 133.919 170.784C128.093 174.528 127.024 177.165 127.287 179.369" stroke="#263238" stroke-width="0.969857" stroke-linecap="round" stroke-linejoin="round"/>
<path d="M132.323 201.6V278.637" stroke="#263238" stroke-width="0.969857" stroke-linecap="round" stroke-linejoin="round"/>
<path d="M178.966 220.531V275.782" stroke="#263238" stroke-width="0.969857" stroke-linecap="round" stroke-linejoin="round"/>
<path d="M138.795 178.273C138.795 178.273 144.875 180.046 147.573 184.342" stroke="#263238" stroke-width="0.969857" stroke-linecap="round" stroke-linejoin="round"/>
<path d="M142.745 178.021C142.745 178.021 148.219 179.794 150.653 184.09" stroke="#263238" stroke-width="0.969857" stroke-linecap="round" stroke-linejoin="round"/>
<path d="M139.098 248.73H159.271V252.024H139.816" stroke="#263238" stroke-width="0.969857" stroke-linecap="round" stroke-linejoin="round"/>
<path d="M213.695 194.767C211.796 190.783 210.208 187.463 209.378 185.279C209.421 186.603 209.14 187.92 208.552 189.151C207.963 190.382 207.079 191.5 205.954 192.437C200.448 196.912 198.892 195.358 199.139 201.573C199.387 207.788 202.331 210.61 200.488 215.909C198.645 221.208 190.625 226.44 190.912 235.617C191.015 237.629 191.688 239.592 192.875 241.347L159.662 278.232L207.159 277.07V224.302L213.695 194.767Z" fill="#46A6FF"/>
<path opacity="0.7" d="M213.695 194.767C211.796 190.783 210.208 187.463 209.378 185.279C209.421 186.603 209.14 187.92 208.552 189.151C207.963 190.382 207.079 191.5 205.954 192.437C200.448 196.912 198.892 195.358 199.139 201.573C199.387 207.788 202.331 210.61 200.488 215.909C198.645 221.208 190.625 226.44 190.912 235.617C191.015 237.629 191.688 239.592 192.875 241.347L159.662 278.232L207.159 277.07V224.302L213.695 194.767Z" fill="white"/>
<path d="M207.199 251.858V274.786" stroke="#263238" stroke-width="0.969857" stroke-linecap="round" stroke-linejoin="round"/>
<path d="M191.71 128.739C193.306 128.52 201.246 124.337 199.921 120.154C198.597 115.97 187.449 110.904 178.703 113.334C173.434 114.794 168.567 117.112 164.386 120.154C164.386 120.154 158.561 120.154 156.406 122.146C154.252 124.138 155.88 127.205 157.204 129.41C158.354 131.315 158.306 136.368 158.274 137.677C158.201 137.673 158.13 137.687 158.066 137.716C157.623 137.92 157.236 138.199 156.931 138.535C156.625 138.872 156.409 139.258 156.295 139.669C155.936 140.997 156.598 142.769 158.21 144.775C158.746 145.528 159.5 146.157 160.403 146.606C161.306 147.055 162.33 147.309 163.381 147.344C164.072 148.007 164.635 148.755 165.049 149.562C165.719 150.89 172.398 159.416 176.221 159.662C176.771 159.701 177.298 159.715 177.817 159.715C181.113 159.715 183.507 158.978 184.791 157.557C186.491 155.678 190.704 148.101 191.231 144.416C191.319 143.752 191.367 142.922 191.391 141.926C191.98 141.305 192.301 140.536 192.301 139.745C192.301 138.953 191.98 138.185 191.391 137.564C191.303 133.666 191.056 129.629 190.992 128.699C191.224 128.758 191.47 128.772 191.71 128.739Z" fill="white"/>
<path d="M190.625 128.52C190.625 128.52 191.423 140.625 190.888 144.37C190.353 148.115 186.1 155.591 184.504 157.358C182.908 159.124 179.716 159.555 176.293 159.35C172.869 159.144 166.222 150.983 165.424 149.443C164.982 148.553 164.355 147.735 163.573 147.026C163.573 147.026 160.66 147.245 158.537 144.602C156.414 141.959 155.624 139.29 158.274 137.995" stroke="#263238" stroke-width="0.969857" stroke-linecap="round" stroke-linejoin="round"/>
<path d="M179.229 140.406C179.229 140.406 181.089 137.75 182.94 139.303L184.265 146.348L180.275 147.231L180.801 150.751" stroke="#263238" stroke-width="0.969857" stroke-linecap="round" stroke-linejoin="round"/>
<path d="M175.255 143.706C177.45 143.706 179.229 142.228 179.229 140.406C179.229 138.583 177.45 137.105 175.255 137.105C173.06 137.105 171.281 138.583 171.281 140.406C171.281 142.228 173.06 143.706 175.255 143.706Z" fill="#46A6FF" stroke="#263238" stroke-width="0.969857" stroke-linecap="round" stroke-linejoin="round"/>
<path opacity="0.4" d="M175.255 143.706C177.45 143.706 179.229 142.228 179.229 140.406C179.229 138.583 177.45 137.105 175.255 137.105C173.06 137.105 171.281 138.583 171.281 140.406C171.281 142.228 173.06 143.706 175.255 143.706Z" fill="white" stroke="#263238" stroke-width="1.16689" stroke-miterlimit="10"/>
<path d="M191.949 139.748C191.949 139.092 191.715 138.45 191.277 137.904C190.839 137.358 190.215 136.932 189.486 136.681C188.757 136.43 187.955 136.364 187.181 136.492C186.407 136.62 185.696 136.936 185.138 137.401C184.58 137.865 184.2 138.457 184.046 139.101C183.892 139.745 183.971 140.412 184.273 141.019C184.575 141.625 185.086 142.144 185.743 142.509C186.399 142.874 187.17 143.068 187.959 143.068C189.018 143.068 190.032 142.718 190.781 142.096C191.529 141.473 191.949 140.629 191.949 139.748Z" fill="#46A6FF" stroke="#263238" stroke-width="0.969857" stroke-linecap="round" stroke-linejoin="round"/>
<path opacity="0.4" d="M191.949 139.748C191.949 139.092 191.715 138.45 191.277 137.904C190.839 137.358 190.215 136.932 189.486 136.681C188.757 136.43 187.955 136.364 187.181 136.492C186.407 136.62 185.696 136.936 185.138 137.401C184.58 137.865 184.2 138.457 184.046 139.101C183.892 139.745 183.971 140.412 184.273 141.019C184.575 141.625 185.086 142.144 185.743 142.509C186.399 142.874 187.17 143.068 187.959 143.068C189.018 143.068 190.032 142.718 190.781 142.096C191.529 141.473 191.949 140.629 191.949 139.748Z" fill="white" stroke="#263238" stroke-width="1.16689" stroke-miterlimit="10"/>
<path d="M171.281 140.406L163.333 140.844" stroke="#263238" stroke-width="0.969857" stroke-linecap="round" stroke-linejoin="round"/>
<path d="M171.345 135.817C171.345 135.817 173.476 134.051 177.434 135.06" stroke="#263238" stroke-width="0.969857" stroke-linecap="round" stroke-linejoin="round"/>
<path d="M184.735 134.808C184.735 134.808 188.725 133.042 189.907 135.313" stroke="#263238" stroke-width="0.969857" stroke-linecap="round" stroke-linejoin="round"/>
<path d="M166.509 128.958C166.509 128.958 168.632 133.141 169.158 133.805C169.685 134.469 166.509 137.544 166.509 137.544V140.625L163.317 140.844L160.125 138.427L158.274 137.982C158.274 137.982 158.537 131.601 157.212 129.403C155.888 127.205 154.3 124.091 156.414 122.139C158.529 120.187 164.394 120.147 164.394 120.147C168.575 117.105 173.442 114.787 178.711 113.328C187.489 110.904 198.581 115.984 199.905 120.147C201.23 124.31 193.306 128.52 191.71 128.739C190.114 128.958 187.72 126.322 185.326 126.322H181.615C178.966 126.322 178.703 126.096 175.782 126.096C172.861 126.096 166.509 128.958 166.509 128.958Z" fill="#263238"/>
<path d="M169.829 125.346C169.829 125.346 174.353 123.261 176.62 119.709C178.886 116.156 171.337 117.83 169.326 120.127C167.315 122.424 172.095 121.588 172.095 121.588" stroke="white" stroke-width="0.484928" stroke-linecap="round" stroke-linejoin="round"/>
<path d="M166.509 128.958C166.509 128.958 163.796 131.402 160.277 131.614" stroke="white" stroke-width="0.484928" stroke-linecap="round" stroke-linejoin="round"/>
<path d="M167.818 132.032C167.818 132.032 163.03 133.912 160.524 133.912" stroke="white" stroke-width="0.484928" stroke-linecap="round" stroke-linejoin="round"/>
<path d="M160.524 135.578C160.524 135.578 164.299 136.242 166.31 135.578" stroke="white" stroke-width="0.484928" stroke-linecap="round" stroke-linejoin="round"/>
<path d="M173.851 125.764C173.851 125.764 175.862 125.559 182.397 123.679C188.933 121.8 191.175 119.695 186.922 116.993" stroke="white" stroke-width="0.484928" stroke-linecap="round" stroke-linejoin="round"/>
<path d="M305.202 243.81C305.202 243.81 294.788 220.763 292.114 218.545C289.441 216.327 276.043 209.535 276.043 209.535L274.965 208.001L274.311 206.135C274.311 206.135 273.513 203.326 271.215 201.939L271.031 201.613L255.231 195.982C255.231 195.982 255.342 197.722 255.51 199.82C253.643 200.385 249.501 201.899 248.081 204.595C247.155 206.341 246.628 209.242 246.365 211.972L245.719 212.37L245.958 211.64C245.958 211.64 228.466 219.8 227.676 221.128C226.654 222.244 224.013 229.395 224.013 229.395C224.013 229.395 221.38 236.267 218.483 243.857C214.397 254.295 210.447 264.726 210.192 266.393C210.192 266.546 210.192 266.473 210.192 266.473C209.928 269.335 223.063 279.885 223.063 279.885H223.239L224.835 281.213C224.835 281.213 224.835 281.081 224.835 280.662C225.944 282.541 227.756 285.31 229.192 284.726C230.373 284.241 229.99 282.535 229.032 280.31C230.221 281.818 231.586 282.913 232.671 282.475C234.547 281.705 233.613 279.042 231.73 275.231C231.569 274.906 231.324 274.614 231.012 274.376C230.7 274.139 230.33 273.961 229.926 273.856C230.533 273.803 231.147 273.75 231.778 273.684C232.408 276.121 233.82 278.232 235.408 277.953C236.996 277.674 237.236 275.961 236.917 273.046C237.076 273.046 237.292 272.655 237.451 272.635C238.154 274.686 239.231 276.512 240.587 276.273C242.08 276.008 242.487 274.773 242.311 272.289C242.311 271.366 242.231 271.068 242.191 270.483C242.774 270.782 245.631 272.216 245.958 272.422C247.019 273.086 255.095 271.652 255.095 271.652C266.89 268.478 285.746 268.332 297.924 261.546C306.055 256.984 305.202 243.81 305.202 243.81ZM230.86 262.661L234.052 245.185L235.321 261.121L234.946 265.052L230.86 262.661Z" fill="white"/>
<path d="M227.724 220.75L246.724 211.454C246.724 211.454 247.913 202.981 250.339 202.118C250.339 202.118 253.675 199.694 257.465 200.172C259.636 200.438 261.24 198.18 262.469 194.249C262.469 186.474 262.341 176.547 262.245 170.345C261.447 167.284 260.585 164.801 260.298 163.831L251.344 160.704C251.344 160.704 249.429 155.326 239.582 154.124C229.735 152.922 219.177 161.707 217.972 167.689C216.767 173.672 223.734 180.053 221.092 183.446C218.451 186.839 207.407 191.819 204.526 197.602C201.645 203.386 202.363 207.377 202.363 207.377C202.363 207.377 210.287 216.746 208.125 219.939C205.962 223.133 193.242 226.121 193.481 235.497C193.705 244.182 204.039 250.298 215.49 251.433L227.724 220.75Z" fill="#263238"/>
<path d="M248.512 162.304C248.512 162.304 241.729 155.837 233.182 157.922C224.635 160.007 221.364 167.53 223.127 171.288C224.891 175.046 228.905 178.174 225.888 183.811C222.872 189.449 215.331 190.285 211.524 196.759C207.718 203.233 208.763 205.325 208.763 205.325" stroke="white" stroke-width="0.484928" stroke-linecap="round" stroke-linejoin="round"/>
<path d="M243.987 167.736C243.987 167.736 237.707 168.36 237.707 171.72C237.707 175.08 241.226 176.726 241.697 180.903C242.168 185.08 240.691 186.753 236.909 191.972C233.126 197.191 232.919 199.907 235.656 203.459C238.393 207.011 240.181 212.855 236.661 214.94" stroke="white" stroke-width="0.484928" stroke-linecap="round" stroke-linejoin="round"/>
<path d="M245.495 163.559C245.495 163.559 237.954 160.239 231.929 163.353C225.904 166.468 233.94 172.749 234.946 178.592C235.951 184.435 230.956 188.619 224.141 194.88C222.144 196.775 220.662 199.005 219.794 201.419C218.927 203.834 218.695 206.375 219.113 208.871" stroke="white" stroke-width="0.484928" stroke-linecap="round" stroke-linejoin="round"/>
<path d="M218.603 216.181C218.603 216.181 220.358 219.309 215.578 223.485C210.798 227.662 200.496 228.711 198.022 234.972C195.548 241.234 200.488 244.581 200.488 244.581" stroke="white" stroke-width="0.484928" stroke-linecap="round" stroke-linejoin="round"/>
<path d="M255.287 195.63C255.287 195.63 255.813 204.023 256.348 206.221C256.883 208.419 259.013 216.268 259.819 223.2C260.209 226.796 261.011 230.354 262.213 233.824C262.213 233.824 268.669 254.687 269.052 228.479C269.188 219.236 267.991 204.707 267.991 204.707L268.517 200.305" fill="white"/>
<mask id="mask4_26_4" style="mask-type:luminance" maskUnits="userSpaceOnUse" x="255" y="195" width="15" height="47">
<path d="M255.287 195.63C255.287 195.63 255.813 204.023 256.348 206.221C256.883 208.419 259.013 216.268 259.819 223.2C260.209 226.796 261.011 230.354 262.213 233.824C262.213 233.824 268.669 254.687 269.052 228.479C269.188 219.236 267.991 204.707 267.991 204.707L268.517 200.305" fill="white"/>
</mask>
<g mask="url(#mask4_26_4)">
<g style="mix-blend-mode:multiply" opacity="0.3">
<path d="M266.084 200.996L256.348 206.221L255.726 197.397C255.726 197.397 262.229 200.597 266.084 200.996Z" fill="#46A6FF"/>
</g>
<g style="mix-blend-mode:multiply" opacity="0.3">
<path d="M268.007 204.681C268.007 204.681 267.688 219.661 266.81 225.995C266.325 230.021 266.825 234.086 268.278 237.947C268.278 237.947 269.499 214.774 268.007 204.681Z" fill="#46A6FF"/>
</g>
</g>
<path d="M255.287 195.63C255.287 195.63 255.813 204.023 256.348 206.221C256.883 208.419 259.013 216.268 259.819 223.2C260.209 226.796 261.011 230.354 262.213 233.824C262.213 233.824 268.669 254.687 269.052 228.479C269.188 219.236 267.991 204.707 267.991 204.707L268.517 200.305" stroke="#263238" stroke-width="0.969857" stroke-linecap="round" stroke-linejoin="round"/>
<path d="M248.264 230.796L246.58 233.797L257.657 242.794L248.264 230.796Z" fill="#46A6FF"/>
<path opacity="0.7" d="M248.264 230.796L246.58 233.797L257.657 242.794L248.264 230.796Z" fill="white"/>
<path d="M235.361 237.429C235.361 237.429 239.063 230.311 240.228 231.931C241.393 233.551 233.996 240.504 236.917 241.473C239.837 242.442 244.099 238.883 242.758 241.792C241.417 244.7 239.063 248.1 239.063 249.56C239.063 251.021 239.861 265.41 239.861 265.41L240.061 266.38L237.723 267.708C237.723 267.708 235.193 265.603 235.193 263.823C235.193 262.044 234.802 254.926 234.802 253.312C234.802 251.699 233.892 246.008 233.892 246.008L235.361 237.429Z" fill="#46A6FF"/>
<path opacity="0.7" d="M235.361 237.429C235.361 237.429 239.063 230.311 240.228 231.931C241.393 233.551 233.996 240.504 236.917 241.473C239.837 242.442 244.099 238.883 242.758 241.792C241.417 244.7 239.063 248.1 239.063 249.56C239.063 251.021 239.861 265.41 239.861 265.41L240.061 266.38L237.723 267.708C237.723 267.708 235.193 265.603 235.193 263.823C235.193 262.044 234.802 254.926 234.802 253.312C234.802 251.699 234.004 245.61 234.004 245.61L235.361 237.429Z" fill="white"/>
<path d="M255.414 199.767C255.414 199.767 249.988 200.717 248.129 204.243C246.269 207.768 246.014 215.909 246.277 218.107C246.425 219.875 246.425 221.65 246.277 223.419L253.699 221.427" fill="white"/>
<mask id="mask5_26_4" style="mask-type:luminance" maskUnits="userSpaceOnUse" x="246" y="199" width="10" height="25">
<path d="M255.414 199.767C255.414 199.767 249.988 200.717 248.129 204.243C246.269 207.768 246.014 215.909 246.277 218.107C246.425 219.875 246.425 221.65 246.277 223.419L253.699 221.427" fill="white"/>
</mask>
<g mask="url(#mask5_26_4)">
<g style="mix-blend-mode:multiply" opacity="0.3">
<path d="M256.436 205.358C254.2 205.402 252.05 206.079 250.339 207.277C247.203 209.329 246.876 213.027 246.876 213.027C246.876 213.027 245.886 208.645 247.865 204.814C249.844 200.982 255.414 199.767 255.414 199.767L256.436 205.358Z" fill="#46A6FF"/>
</g>
</g>
<path d="M255.414 199.767C255.414 199.767 249.988 200.717 248.129 204.243C246.269 207.768 246.014 215.909 246.277 218.107C246.425 219.875 246.425 221.65 246.277 223.419L253.699 221.427" stroke="#263238" stroke-width="0.969857" stroke-linecap="round" stroke-linejoin="round"/>
<path d="M255.55 221.852L247.339 229.554C247.339 229.554 253.435 237.476 256.348 240.118" stroke="#263238" stroke-width="0.969857" stroke-linecap="round" stroke-linejoin="round"/>
<path d="M276.489 239.016L280.727 225.59L273.305 220.942L279.139 219.402L274.351 205.757C274.351 205.757 273.465 202.33 270.361 201.228" stroke="#263238" stroke-width="0.969857" stroke-linecap="round" stroke-linejoin="round"/>
<path d="M259.54 215.245C259.54 215.245 262.189 217.901 265.126 217.449C268.063 216.998 268.039 215.69 268.039 215.69" stroke="#263238" stroke-width="0.969857" stroke-linecap="round" stroke-linejoin="round"/>
<mask id="mask6_26_4" style="mask-type:luminance" maskUnits="userSpaceOnUse" x="210" y="211" width="37" height="69">
<path d="M246.014 211.288C246.014 211.288 228.522 219.428 227.724 220.75C226.926 222.071 210.503 263.246 210.24 266.094C209.976 268.943 223.223 279.739 223.223 279.739" fill="white"/>
</mask>
<g mask="url(#mask6_26_4)">
<path d="M233.613 218.021C233.613 218.021 229.328 221.905 229.519 222.874C229.711 223.844 234.778 225.623 233.613 226.752C232.448 227.881 229.519 225.139 228.937 225.623C228.354 226.108 217.645 256.513 218.619 256.984C219.592 257.456 221.93 255.689 222.513 256.825C223.095 257.96 212.777 261.187 214.916 262.137C217.054 263.086 222.313 261.001 221.3 261.327C220.286 261.652 217.406 264.72 218.188 266.015C218.97 267.309 227.309 273.87 227.309 273.87C226.818 274.038 226.424 274.359 226.211 274.764C225.999 275.169 225.983 275.627 226.168 276.041C226.39 276.876 226.954 277.62 227.764 278.146C227.764 278.146 225.529 276.612 225.186 278.272C224.991 279.138 224.876 280.014 224.843 280.895L219.377 276.393C214.924 272.621 211.301 269.089 210.232 266.054C210.232 266.054 210.04 266.499 211.213 262.94C212.386 259.381 224.061 228.977 224.061 228.977C224.061 228.977 226.702 221.819 227.716 220.71C228.729 219.601 233.613 218.021 233.613 218.021Z" fill="#46A6FF"/>
<path opacity="0.7" d="M233.613 218.021C233.613 218.021 229.328 221.905 229.519 222.874C229.711 223.844 234.778 225.623 233.613 226.752C232.448 227.881 229.519 225.139 228.937 225.623C228.354 226.108 217.645 256.513 218.619 256.984C219.592 257.456 221.93 255.689 222.513 256.825C223.095 257.96 212.777 261.187 214.916 262.137C217.055 263.086 222.313 261.001 221.3 261.327C220.286 261.652 217.406 264.72 218.188 266.015C218.97 267.309 227.309 273.87 227.309 273.87C226.818 274.038 226.424 274.359 226.211 274.764C225.999 275.169 225.983 275.627 226.168 276.041C226.39 276.876 226.954 277.62 227.764 278.146C227.764 278.146 225.529 276.612 225.186 278.272C224.843 279.932 224.667 281.021 224.667 281.021L219.377 276.373C213.855 271.785 210.439 268.166 210.232 266.034C210.232 266.034 209.585 267.044 211.213 262.92C212.594 259.414 224.061 228.957 224.061 228.957C224.061 228.957 226.702 221.799 227.716 220.69C228.729 219.581 233.613 218.021 233.613 218.021Z" fill="white"/>
<path d="M243.205 213.598V225.995L252.597 223.997L255.726 220.995L246.094 222.596L246.724 211.42L243.205 213.598Z" fill="#46A6FF"/>
<path opacity="0.7" d="M243.205 213.598V225.995L252.597 223.997L255.726 220.995L246.094 222.596L246.724 211.42L243.205 213.598Z" fill="white"/>
</g>
<path d="M246.014 211.288C246.014 211.288 228.522 219.428 227.724 220.75C226.926 222.071 210.503 263.246 210.24 266.094C209.976 268.943 223.223 279.739 223.223 279.739" stroke="#263238" stroke-width="0.969857" stroke-linecap="round" stroke-linejoin="round"/>
<path d="M236.206 231.978L230.908 262.349" stroke="#263238" stroke-width="0.969857" stroke-linecap="round" stroke-linejoin="round"/>
<path d="M236.733 230.212L237.531 227.131" stroke="#263238" stroke-width="0.969857" stroke-linecap="round" stroke-linejoin="round"/>
<path d="M215.802 264.115C215.802 264.115 219.249 260.131 224.284 260.37C229.32 260.609 236.733 266.532 236.733 266.532" stroke="#263238" stroke-width="0.969857" stroke-linecap="round" stroke-linejoin="round"/>
<path d="M217.39 259.487C218.501 258.656 219.917 258.161 221.408 258.081C222.899 258.002 224.379 258.343 225.609 259.049" stroke="#263238" stroke-width="0.969857" stroke-linecap="round" stroke-linejoin="round"/>
<path d="M241.984 268.657C241.926 268.291 241.766 267.942 241.516 267.638C241.266 267.333 240.933 267.082 240.544 266.904C240.156 266.726 239.723 266.627 239.28 266.614C238.837 266.602 238.396 266.676 237.994 266.831C237.668 266.967 237.389 267.172 237.186 267.424C236.984 267.677 236.863 267.969 236.837 268.272C236.542 270.696 238.329 276.652 240.723 276.24C242.71 275.868 242.646 272.734 241.984 268.657Z" fill="white" stroke="#263238" stroke-width="0.969857" stroke-linecap="round" stroke-linejoin="round"/>
<path d="M236.653 270.417C236.594 270.052 236.433 269.703 236.183 269.399C235.932 269.095 235.599 268.845 235.211 268.668C234.823 268.491 234.39 268.392 233.947 268.38C233.505 268.368 233.065 268.442 232.663 268.597C232.337 268.731 232.058 268.934 231.855 269.186C231.652 269.438 231.531 269.729 231.506 270.032C231.211 272.455 232.998 278.411 235.392 278C237.411 277.628 237.348 274.5 236.653 270.417Z" fill="white" stroke="#263238" stroke-width="0.969857" stroke-linecap="round" stroke-linejoin="round"/>
<path d="M231.786 274.852C231.62 274.507 231.359 274.2 231.024 273.955C230.688 273.709 230.288 273.534 229.855 273.442C229.423 273.35 228.97 273.344 228.535 273.426C228.099 273.507 227.693 273.673 227.349 273.909C227.071 274.107 226.86 274.362 226.739 274.649C226.617 274.935 226.588 275.244 226.654 275.543C227.085 277.947 230.596 283.385 232.775 282.462C234.65 281.665 233.613 278.451 231.786 274.852Z" fill="white" stroke="#263238" stroke-width="0.969857" stroke-linecap="round" stroke-linejoin="round"/>
<path d="M228.354 279.102C228.232 278.843 228.038 278.613 227.788 278.429C227.537 278.245 227.238 278.113 226.915 278.045C226.591 277.976 226.253 277.972 225.927 278.034C225.602 278.095 225.299 278.22 225.042 278.398C224.836 278.547 224.68 278.738 224.587 278.952C224.495 279.166 224.471 279.396 224.516 279.62C224.843 281.419 227.46 285.456 229.096 284.786C230.501 284.208 229.759 281.957 228.354 279.102Z" fill="white" stroke="#263238" stroke-width="0.969857" stroke-linecap="round" stroke-linejoin="round"/>
<path d="M242.391 270.264C242.391 270.264 244.466 272.13 246.006 272.528C247.275 272.854 253.874 271.864 253.874 271.864" stroke="#263238" stroke-width="0.969857" stroke-linecap="round" stroke-linejoin="round"/>
<path d="M251.839 276.001C251.839 276.001 247.602 276.877 244.657 277.329C241.713 277.78 238.561 277.993 238.561 277.993C238.561 277.993 236.438 280.197 234.85 280.197" stroke="#263238" stroke-width="0.969857" stroke-linecap="round" stroke-linejoin="round"/>
<path d="M276.099 209.176C276.099 209.176 289.497 215.975 292.17 218.193C294.844 220.411 304.228 241.207 304.228 241.207" stroke="#263238" stroke-width="0.969857" stroke-linecap="round" stroke-linejoin="round"/>
<path d="M288.834 224.016L291.835 242.044" stroke="#263238" stroke-width="0.969857" stroke-linecap="round" stroke-linejoin="round"/>
<path d="M291.835 239.873L289.968 226.48L298.219 241.606L292.21 241.832L291.835 239.873Z" fill="#46A6FF"/>
<path opacity="0.7" d="M291.835 239.873L289.968 226.48L298.219 241.606L292.21 241.832L291.835 239.873Z" fill="white"/>
<path d="M240.811 233.273L235.624 240.357L240.021 237.462" stroke="#263238" stroke-width="0.969857" stroke-linecap="round" stroke-linejoin="round"/>
<path d="M234.18 246.041C234.18 246.041 235.257 259.202 235.257 260.995C235.257 262.787 234.954 265.151 234.954 265.151" stroke="#263238" stroke-width="0.969857" stroke-linecap="round" stroke-linejoin="round"/>
<path d="M252.103 160C252.103 160 244.418 163.738 243.891 169.243C243.637 172.873 244.085 176.514 245.216 180.026C245.216 180.026 242.822 178.267 242.566 182.231C242.311 186.195 246.277 189.269 247.865 189.269H249.461C249.461 189.269 252.996 195.312 257.242 198.174C261.487 201.035 265.629 201.162 268.541 200.278C271.454 199.395 277.024 195.438 277.559 190.152C278.093 184.867 277.559 176.062 277.024 170.564C276.489 165.066 275.173 161.096 268.015 159.117C260.857 157.138 255.813 158.453 252.103 160Z" fill="white"/>
<mask id="mask7_26_4" style="mask-type:luminance" maskUnits="userSpaceOnUse" x="242" y="158" width="36" height="43">
<path d="M252.103 160C252.103 160 244.418 163.738 243.891 169.243C243.637 172.873 244.085 176.514 245.216 180.026C245.216 180.026 242.822 178.267 242.566 182.231C242.311 186.195 246.277 189.269 247.865 189.269H249.461C249.461 189.269 252.996 195.312 257.242 198.174C261.487 201.035 265.629 201.162 268.541 200.278C271.454 199.395 277.024 195.438 277.559 190.152C278.093 184.867 277.559 176.062 277.024 170.564C276.489 165.066 275.173 161.096 268.015 159.117C260.857 157.138 255.813 158.453 252.103 160Z" fill="white"/>
</mask>
<g mask="url(#mask7_26_4)">
<g style="mix-blend-mode:multiply" opacity="0.3">
<path d="M245.216 180.026C245.216 180.026 242.822 178.267 242.566 182.231C242.311 186.195 246.277 189.269 247.865 189.269H249.461C249.461 189.269 252.996 195.305 257.242 198.173L259.061 199.216C259.681 199.528 260.329 199.799 261 200.026C259.572 198.565 256.468 195.199 255.007 192.171C253.076 188.187 252.613 179.774 253.076 174.376C253.539 168.977 256.93 166.773 256.93 166.773L252.142 166.574C251.432 166.574 247.722 171.169 243.955 173.805L245.216 180.026Z" fill="#46A6FF"/>
</g>
</g>
<path d="M252.103 160C252.103 160 244.418 163.738 243.891 169.243C243.637 172.873 244.085 176.514 245.216 180.026C245.216 180.026 242.822 178.267 242.566 182.231C242.311 186.195 246.277 189.269 247.865 189.269H249.461C249.461 189.269 252.996 195.312 257.242 198.174C261.487 201.035 265.629 201.162 268.541 200.278C271.454 199.395 277.024 195.438 277.559 190.152C278.093 184.867 277.559 176.062 277.024 170.564C276.489 165.066 275.173 161.096 268.015 159.117C260.857 157.138 255.813 158.453 252.103 160Z" stroke="#263238" stroke-width="0.969857" stroke-linecap="round" stroke-linejoin="round"/>
<path d="M264.376 180.206C264.376 180.206 266.594 177.052 268.805 178.878L270.401 185.139L267.209 185.684L267.512 189.595" stroke="#263238" stroke-width="0.969857" stroke-linecap="round" stroke-linejoin="round"/>
<path d="M259.636 184.143C262.254 184.143 264.376 182.38 264.376 180.206C264.376 178.031 262.254 176.268 259.636 176.268C257.018 176.268 254.896 178.031 254.896 180.206C254.896 182.38 257.018 184.143 259.636 184.143Z" fill="#46A6FF" stroke="#263238" stroke-width="0.969857" stroke-linecap="round" stroke-linejoin="round"/>
<path opacity="0.4" d="M259.636 184.143C262.254 184.143 264.376 182.38 264.376 180.206C264.376 178.031 262.254 176.268 259.636 176.268C257.018 176.268 254.896 178.031 254.896 180.206C254.896 182.38 257.018 184.143 259.636 184.143Z" fill="white" stroke="#263238" stroke-width="1.16689" stroke-miterlimit="10"/>
<path d="M279.562 179.416C279.563 178.635 279.287 177.872 278.768 177.222C278.249 176.572 277.51 176.065 276.645 175.764C275.78 175.463 274.827 175.382 273.907 175.531C272.986 175.68 272.14 176.052 271.473 176.601C270.807 177.15 270.351 177.851 270.162 178.616C269.974 179.38 270.062 180.174 270.415 180.896C270.768 181.619 271.37 182.239 272.146 182.677C272.922 183.116 273.836 183.353 274.774 183.36C275.4 183.365 276.022 183.267 276.602 183.071C277.183 182.875 277.711 182.585 278.157 182.219C278.602 181.852 278.955 181.415 279.196 180.934C279.438 180.453 279.562 179.937 279.562 179.416Z" fill="#46A6FF" stroke="#263238" stroke-width="0.969857" stroke-linecap="round" stroke-linejoin="round"/>
<path opacity="0.4" d="M279.562 179.416C279.563 178.635 279.287 177.872 278.768 177.222C278.249 176.572 277.51 176.065 276.645 175.764C275.78 175.463 274.827 175.382 273.907 175.531C272.986 175.68 272.14 176.052 271.473 176.601C270.807 177.15 270.351 177.851 270.162 178.616C269.974 179.38 270.062 180.174 270.415 180.896C270.768 181.619 271.37 182.239 272.146 182.677C272.922 183.116 273.836 183.353 274.774 183.36C275.4 183.365 276.022 183.267 276.602 183.071C277.183 182.875 277.711 182.585 278.157 182.219C278.602 181.852 278.955 181.415 279.196 180.934C279.438 180.453 279.562 179.937 279.562 179.416Z" fill="white" stroke="#263238" stroke-width="1.16689" stroke-miterlimit="10"/>
<path d="M254.896 180.206L245.407 180.73" stroke="#263238" stroke-width="0.969857" stroke-linecap="round" stroke-linejoin="round"/>
<path d="M255.773 174.94C256.327 174.374 257.056 173.945 257.882 173.701C258.708 173.456 259.599 173.405 260.458 173.552" stroke="#263238" stroke-width="0.969857" stroke-linecap="round" stroke-linejoin="round"/>
<path d="M270.512 173.274C271.295 172.916 272.199 172.787 273.08 172.907C273.961 173.028 274.768 173.39 275.372 173.938" stroke="#263238" stroke-width="0.969857" stroke-linecap="round" stroke-linejoin="round"/>
<path d="M277.016 170.564C276.489 165.06 275.165 161.096 268.007 159.117C260.849 157.138 255.813 158.453 252.103 160C252.103 160 244.418 163.738 243.891 169.243C243.637 172.873 244.085 176.514 245.216 180.026C245.216 180.026 247.339 181.786 247.865 179.362C248.392 176.939 246.804 172.975 254.249 168.353C261.695 163.732 272.268 165.936 275.979 170.345C276.412 170.634 276.787 170.979 277.088 171.368C277.096 171.288 277.024 170.664 277.016 170.564Z" fill="#263238"/>
<path d="M161.21 194.993C161.21 194.993 154.826 194.117 150.038 196.759C148.675 197.514 147.601 198.578 146.943 199.826C146.286 201.074 146.072 202.452 146.328 203.798" stroke="#263238" stroke-width="0.969857" stroke-linecap="round" stroke-linejoin="round"/>
<path d="M147.429 195.438C147.429 195.438 144.237 198.519 144.237 201.162" stroke="#263238" stroke-width="0.969857" stroke-linecap="round" stroke-linejoin="round"/>
<path d="M127.551 182.888C127.551 182.888 130.743 198.957 133.648 203.798C136.552 208.638 144.82 213.266 151.14 215.464C157.46 217.662 187.177 221.188 188.239 220.969C189.3 220.75 183.203 216.128 184.528 210.404C185.19 207.562 189.827 204.681 189.827 204.681C189.827 204.681 176.843 200.033 171.808 198.3C166.772 196.567 161.21 194.98 161.21 194.98C161.21 194.98 154.028 189.482 150.613 187.058C147.473 185.002 144.199 183.091 140.806 181.334" stroke="#263238" stroke-width="0.969857" stroke-linecap="round" stroke-linejoin="round"/>
<path d="M215.179 212.702L218.642 216.287C219.342 216.822 220.089 217.313 220.877 217.755C221.914 218.22 222.808 219.627 221.38 219.966C220.728 220.121 220.043 220.148 219.377 220.046C218.711 219.943 218.083 219.714 217.541 219.375L214.174 217.323L211.357 215.205L213.4 212.151L215.179 212.702Z" fill="white" stroke="#263238" stroke-width="0.969857" stroke-linecap="round" stroke-linejoin="round"/>
<path d="M189.827 204.681C189.827 204.681 198.046 206.221 200.695 206.673C203.345 207.124 216.863 209.096 218.714 209.754C220.566 210.411 226.399 210.637 226.136 212.616C225.872 214.594 223.486 214.156 221.635 213.944C219.784 213.731 213.942 212.848 213.942 212.848C213.942 212.848 215.802 215.71 215.275 216.367C214.748 217.025 202.818 220.55 200.432 220.55C198.046 220.55 196.442 217.025 195.397 215.902L192.205 212.582L185.821 210.165" fill="white"/>
<path d="M189.827 204.681C189.827 204.681 198.046 206.221 200.695 206.673C203.345 207.124 216.863 209.096 218.714 209.754C220.566 210.411 226.399 210.637 226.136 212.616C225.872 214.594 223.486 214.156 221.635 213.944C219.784 213.731 213.942 212.848 213.942 212.848C213.942 212.848 215.802 215.71 215.275 216.367C214.748 217.025 202.818 220.55 200.432 220.55C198.046 220.55 196.442 217.025 195.397 215.902L192.205 212.582L185.821 210.165" stroke="#263238" stroke-width="0.969857" stroke-linecap="round" stroke-linejoin="round"/>
<path d="M213.942 212.828L212.091 210.624" stroke="#263238" stroke-width="0.969857" stroke-linecap="round" stroke-linejoin="round"/>
<path d="M188.239 220.969C189.625 219.919 190.705 218.619 191.396 217.169C192.088 215.719 192.372 214.158 192.229 212.602" stroke="#263238" stroke-width="0.969857" stroke-linecap="round" stroke-linejoin="round"/>
<path d="M202.283 215.464L204.406 219.647" stroke="#263238" stroke-width="0.969857" stroke-linecap="round" stroke-linejoin="round"/>
<path d="M207.582 213.705L209.705 218.326" stroke="#263238" stroke-width="0.969857" stroke-linecap="round" stroke-linejoin="round"/>
<path d="M258.471 245.842V297.568L341.415 293.61V242.323L258.471 245.842Z" fill="#263238" stroke="#263238" stroke-width="0.969857" stroke-linecap="round" stroke-linejoin="round"/>
<path d="M341.415 242.323L337.169 240.338L255.023 243.644V294.048L258.471 297.568V245.842L341.415 242.323Z" fill="white" stroke="#263238" stroke-width="0.969857" stroke-linecap="round" stroke-linejoin="round"/>
<path d="M255.023 243.644L258.463 245.842" stroke="#263238" stroke-width="0.969857" stroke-linecap="round" stroke-linejoin="round"/>
<path d="M291.596 276.001V311L314.387 309.679V274.461L291.596 276.001Z" fill="#263238" stroke="#263238" stroke-width="0.969857" stroke-linecap="round" stroke-linejoin="round"/>
<path d="M290.885 295.815V276.001L314.386 274.461L314.45 294.586" stroke="white" stroke-width="0.969857" stroke-linecap="round" stroke-linejoin="round"/>
<path d="M291.596 311L279.666 302.196L291.596 301.751" fill="white"/>
<path d="M291.596 311L279.666 302.196L291.596 301.751" stroke="#263238" stroke-width="0.969857" stroke-linecap="round" stroke-linejoin="round"/>
<path opacity="0.7" d="M147.062 278.657L222.433 284.938C222.433 284.938 219.544 283.006 220.669 282.82C222.808 282.475 225.976 282.236 225.976 282.236L219.329 276.406L147.062 278.657Z" fill="#46A6FF"/>
<path opacity="0.7" d="M147.062 278.657L222.433 284.938C222.433 284.938 219.544 283.006 220.669 282.82C222.808 282.475 225.976 282.236 225.976 282.236L219.329 276.406L147.062 278.657Z" fill="white"/>
<path d="M219.385 276.433L101.759 279.919" stroke="#263238" stroke-width="0.969857" stroke-linecap="round" stroke-linejoin="round"/>
<path d="M340.848 274.328L420.138 315.044" stroke="#263238" stroke-width="0.969857" stroke-linecap="round" stroke-linejoin="round"/>
<path d="M196.721 284.58L155.217 288.796L181.958 312.162L226.694 307.561L196.721 284.58Z" fill="#46A6FF"/>
<path opacity="0.7" d="M196.721 284.58L155.217 288.796L181.958 312.162L226.694 307.561L196.721 284.58Z" fill="white"/>
<path d="M154.292 293.776L191.183 289.945L217.932 312.541L175.503 317.521L154.292 293.776Z" fill="white"/>
<path d="M176.771 314.234C176.708 314.234 176.647 314.213 176.602 314.176C176.557 314.138 176.532 314.088 176.532 314.035C176.532 313.982 176.557 313.931 176.602 313.894C176.647 313.857 176.708 313.836 176.771 313.836L210.702 310.204C210.765 310.199 210.828 310.215 210.878 310.247C210.928 310.279 210.962 310.325 210.974 310.376C210.978 310.403 210.976 310.43 210.967 310.456C210.959 310.482 210.944 310.506 210.924 310.528C210.904 310.549 210.879 310.566 210.85 310.579C210.822 310.592 210.79 310.6 210.758 310.602L176.835 314.234H176.771Z" fill="#46A6FF"/>
<path d="M174.88 312.348C174.817 312.348 174.756 312.327 174.711 312.29C174.666 312.253 174.641 312.202 174.641 312.149C174.641 312.096 174.666 312.046 174.711 312.008C174.756 311.971 174.817 311.95 174.88 311.95L208.811 308.318C208.875 308.311 208.939 308.325 208.99 308.357C209.041 308.39 209.074 308.438 209.082 308.491C209.091 308.543 209.074 308.597 209.035 308.639C208.996 308.682 208.938 308.709 208.875 308.716L174.952 312.348H174.88Z" fill="#46A6FF"/>
<path d="M172.997 310.463C172.937 310.463 172.88 310.445 172.836 310.412C172.791 310.378 172.763 310.333 172.757 310.283C172.751 310.231 172.768 310.178 172.807 310.136C172.845 310.094 172.902 310.066 172.965 310.058L206.872 306.426C206.936 306.423 206.998 306.44 207.048 306.473C207.098 306.506 207.132 306.553 207.143 306.605C207.147 306.631 207.144 306.657 207.135 306.683C207.125 306.708 207.111 306.731 207.09 306.752C207.07 306.772 207.046 306.789 207.018 306.801C206.99 306.814 206.959 306.821 206.928 306.824L173.005 310.463H172.997Z" fill="#46A6FF"/>
<path d="M171.106 308.57C171.042 308.57 170.981 308.549 170.936 308.512C170.891 308.475 170.866 308.424 170.866 308.371C170.866 308.318 170.891 308.268 170.936 308.23C170.981 308.193 171.042 308.172 171.106 308.172L205.037 304.54C205.1 304.534 205.163 304.549 205.214 304.581C205.264 304.613 205.298 304.66 205.308 304.712C205.312 304.739 205.311 304.765 205.303 304.791C205.294 304.817 205.28 304.841 205.261 304.862C205.242 304.883 205.218 304.9 205.19 304.913C205.162 304.926 205.132 304.935 205.1 304.938L171.169 308.57H171.106Z" fill="#46A6FF"/>
<path d="M169.222 306.684C169.164 306.685 169.108 306.668 169.063 306.636C169.019 306.604 168.991 306.56 168.983 306.512C168.978 306.486 168.98 306.459 168.988 306.433C168.996 306.408 169.011 306.384 169.03 306.363C169.049 306.342 169.073 306.324 169.101 306.311C169.128 306.298 169.159 306.289 169.19 306.286L203.121 302.654C203.185 302.648 203.248 302.663 203.299 302.695C203.349 302.727 203.383 302.774 203.393 302.827C203.397 302.853 203.395 302.88 203.387 302.906C203.378 302.932 203.363 302.957 203.343 302.978C203.323 302.999 203.298 303.016 203.269 303.029C203.241 303.042 203.21 303.05 203.177 303.052L169.254 306.684H169.222Z" fill="#46A6FF"/>
<path d="M167.331 304.792C167.271 304.792 167.214 304.774 167.17 304.741C167.125 304.708 167.098 304.662 167.092 304.613C167.087 304.56 167.105 304.508 167.143 304.467C167.182 304.425 167.237 304.397 167.299 304.387L201.23 300.755C201.294 300.749 201.359 300.765 201.41 300.798C201.46 300.832 201.493 300.881 201.501 300.934C201.508 300.986 201.49 301.038 201.451 301.079C201.413 301.12 201.356 301.147 201.294 301.153L167.363 304.792H167.331Z" fill="#46A6FF"/>
<path d="M165.448 302.906C165.39 302.907 165.333 302.889 165.289 302.858C165.245 302.826 165.216 302.782 165.208 302.734C165.204 302.707 165.206 302.681 165.214 302.655C165.222 302.63 165.236 302.606 165.255 302.585C165.275 302.564 165.299 302.546 165.326 302.533C165.354 302.52 165.384 302.511 165.416 302.508L199.347 298.876C199.41 298.872 199.472 298.887 199.522 298.919C199.572 298.951 199.607 298.997 199.618 299.048C199.623 299.075 199.621 299.102 199.612 299.128C199.603 299.154 199.589 299.179 199.569 299.2C199.548 299.221 199.523 299.238 199.495 299.251C199.466 299.264 199.435 299.272 199.403 299.274L165.48 302.906H165.448Z" fill="#46A6FF"/>
<path d="M163.557 301.021C163.493 301.021 163.432 301 163.387 300.962C163.342 300.925 163.317 300.874 163.317 300.821C163.317 300.768 163.342 300.718 163.387 300.68C163.432 300.643 163.493 300.622 163.557 300.622L197.488 296.99C197.519 296.987 197.551 296.988 197.582 296.995C197.612 297.002 197.641 297.014 197.666 297.03C197.691 297.046 197.712 297.066 197.728 297.088C197.744 297.111 197.755 297.137 197.759 297.163C197.763 297.189 197.761 297.215 197.753 297.241C197.745 297.266 197.731 297.29 197.711 297.311C197.692 297.332 197.668 297.35 197.641 297.363C197.613 297.376 197.583 297.385 197.551 297.388L163.62 301.021H163.557Z" fill="#46A6FF"/>
<path d="M161.673 299.135C161.614 299.135 161.556 299.117 161.512 299.084C161.468 299.05 161.44 299.005 161.434 298.955C161.427 298.903 161.445 298.85 161.483 298.808C161.522 298.766 161.578 298.738 161.641 298.73L195.572 295.098C195.636 295.094 195.7 295.11 195.75 295.143C195.8 295.176 195.834 295.224 195.844 295.277C195.847 295.303 195.844 295.33 195.835 295.355C195.826 295.38 195.811 295.404 195.791 295.424C195.771 295.444 195.746 295.461 195.718 295.474C195.69 295.486 195.66 295.494 195.628 295.496L161.705 299.135H161.673Z" fill="#46A6FF"/>
<path d="M159.79 297.242C159.726 297.242 159.666 297.221 159.621 297.184C159.576 297.147 159.551 297.096 159.551 297.043C159.551 296.99 159.576 296.94 159.621 296.902C159.666 296.865 159.726 296.844 159.79 296.844L193.721 293.212C193.784 293.206 193.848 293.221 193.898 293.253C193.949 293.285 193.982 293.332 193.992 293.385C193.997 293.411 193.995 293.437 193.987 293.463C193.979 293.489 193.965 293.513 193.945 293.534C193.926 293.555 193.902 293.572 193.874 293.585C193.847 293.599 193.816 293.607 193.785 293.61L159.79 297.242Z" fill="#46A6FF"/>
<g opacity="0.7">
<path d="M176.771 314.234C176.708 314.234 176.647 314.213 176.602 314.176C176.557 314.138 176.532 314.088 176.532 314.035C176.532 313.982 176.557 313.931 176.602 313.894C176.647 313.857 176.708 313.836 176.771 313.836L210.702 310.204C210.765 310.199 210.828 310.215 210.878 310.247C210.928 310.279 210.962 310.325 210.974 310.376C210.978 310.403 210.976 310.43 210.967 310.456C210.959 310.482 210.944 310.506 210.924 310.528C210.904 310.549 210.879 310.566 210.85 310.579C210.822 310.592 210.79 310.6 210.758 310.602L176.835 314.234H176.771Z" fill="white"/>
<path d="M174.88 312.348C174.817 312.348 174.756 312.327 174.711 312.29C174.666 312.253 174.641 312.202 174.641 312.149C174.641 312.096 174.666 312.046 174.711 312.008C174.756 311.971 174.817 311.95 174.88 311.95L208.811 308.318C208.875 308.311 208.939 308.325 208.99 308.357C209.041 308.39 209.074 308.438 209.082 308.491C209.091 308.543 209.074 308.597 209.035 308.639C208.996 308.682 208.938 308.709 208.875 308.716L174.952 312.348H174.88Z" fill="white"/>
<path d="M172.997 310.463C172.937 310.463 172.88 310.445 172.836 310.412C172.791 310.378 172.763 310.333 172.757 310.283C172.751 310.231 172.768 310.178 172.807 310.136C172.845 310.094 172.902 310.066 172.965 310.058L206.872 306.426C206.936 306.423 206.998 306.44 207.048 306.473C207.098 306.506 207.132 306.553 207.143 306.605C207.147 306.631 207.144 306.657 207.135 306.683C207.125 306.708 207.111 306.731 207.09 306.752C207.07 306.772 207.046 306.789 207.018 306.801C206.99 306.814 206.959 306.821 206.928 306.824L173.005 310.463H172.997Z" fill="white"/>
<path d="M171.106 308.57C171.042 308.57 170.981 308.549 170.936 308.512C170.891 308.475 170.866 308.424 170.866 308.371C170.866 308.318 170.891 308.268 170.936 308.23C170.981 308.193 171.042 308.172 171.106 308.172L205.037 304.54C205.1 304.534 205.163 304.549 205.214 304.581C205.264 304.613 205.298 304.66 205.308 304.712C205.312 304.739 205.311 304.765 205.303 304.791C205.294 304.817 205.28 304.841 205.261 304.862C205.242 304.883 205.218 304.9 205.19 304.913C205.162 304.926 205.132 304.935 205.1 304.938L171.169 308.57H171.106Z" fill="white"/>
<path d="M169.222 306.685C169.164 306.685 169.107 306.668 169.063 306.636C169.019 306.604 168.991 306.56 168.983 306.512C168.978 306.486 168.98 306.459 168.988 306.433C168.996 306.408 169.01 306.384 169.03 306.363C169.049 306.342 169.073 306.324 169.101 306.311C169.128 306.298 169.159 306.289 169.19 306.286L203.121 302.654C203.185 302.648 203.248 302.663 203.299 302.695C203.349 302.727 203.383 302.774 203.393 302.827C203.397 302.853 203.395 302.881 203.386 302.907C203.378 302.933 203.363 302.957 203.343 302.978C203.323 302.999 203.298 303.017 203.269 303.029C203.241 303.042 203.209 303.05 203.177 303.052L169.254 306.685H169.222Z" fill="white"/>
<path d="M167.331 304.792C167.271 304.792 167.214 304.774 167.17 304.741C167.125 304.708 167.098 304.662 167.092 304.613C167.087 304.56 167.105 304.508 167.143 304.467C167.182 304.425 167.237 304.397 167.299 304.387L201.23 300.755C201.294 300.749 201.359 300.765 201.41 300.798C201.46 300.832 201.493 300.881 201.501 300.934C201.508 300.986 201.49 301.038 201.451 301.079C201.413 301.12 201.356 301.147 201.294 301.153L167.363 304.792H167.331Z" fill="white"/>
<path d="M165.448 302.906C165.389 302.907 165.333 302.889 165.289 302.858C165.245 302.826 165.216 302.782 165.208 302.734C165.204 302.707 165.206 302.681 165.214 302.655C165.222 302.63 165.236 302.606 165.255 302.585C165.274 302.564 165.299 302.546 165.326 302.533C165.354 302.52 165.384 302.511 165.416 302.508L199.347 298.876C199.41 298.872 199.472 298.887 199.522 298.919C199.572 298.951 199.606 298.997 199.618 299.048C199.623 299.075 199.62 299.102 199.612 299.128C199.603 299.154 199.589 299.179 199.568 299.2C199.548 299.221 199.523 299.238 199.495 299.251C199.466 299.264 199.435 299.272 199.403 299.274L165.48 302.906H165.448Z" fill="white"/>
<path d="M163.557 301.021C163.493 301.021 163.432 301 163.387 300.962C163.342 300.925 163.317 300.874 163.317 300.821C163.317 300.768 163.342 300.718 163.387 300.68C163.432 300.643 163.493 300.622 163.557 300.622L197.488 296.99C197.519 296.987 197.551 296.988 197.582 296.995C197.612 297.002 197.641 297.014 197.666 297.03C197.691 297.046 197.712 297.066 197.728 297.088C197.744 297.111 197.755 297.137 197.759 297.163C197.763 297.189 197.761 297.215 197.753 297.241C197.745 297.266 197.731 297.29 197.711 297.311C197.692 297.332 197.668 297.35 197.641 297.363C197.613 297.376 197.583 297.385 197.551 297.388L163.62 301.021H163.557Z" fill="white"/>
<path d="M161.673 299.135C161.614 299.135 161.556 299.117 161.512 299.084C161.468 299.05 161.44 299.005 161.434 298.955C161.427 298.903 161.445 298.85 161.483 298.808C161.522 298.766 161.578 298.738 161.641 298.73L195.572 295.098C195.636 295.094 195.7 295.11 195.75 295.143C195.8 295.176 195.834 295.224 195.844 295.277C195.847 295.303 195.844 295.33 195.835 295.355C195.826 295.38 195.811 295.404 195.791 295.424C195.771 295.444 195.746 295.461 195.718 295.474C195.69 295.486 195.66 295.494 195.628 295.496L161.705 299.135H161.673Z" fill="white"/>
<path d="M159.79 297.242C159.726 297.242 159.666 297.221 159.621 297.184C159.576 297.147 159.551 297.096 159.551 297.043C159.551 296.99 159.576 296.94 159.621 296.902C159.666 296.865 159.726 296.844 159.79 296.844L193.721 293.212C193.784 293.206 193.848 293.221 193.898 293.253C193.949 293.285 193.982 293.332 193.992 293.385C193.997 293.411 193.995 293.437 193.987 293.463C193.979 293.489 193.965 293.513 193.945 293.534C193.926 293.555 193.902 293.572 193.874 293.585C193.847 293.599 193.816 293.607 193.785 293.61L159.79 297.242Z" fill="white"/>
</g>
<path d="M195.7 167.258C195.7 167.258 202.084 169.024 203.68 171.242C205.276 173.459 209.378 185.272 209.378 185.272" stroke="#263238" stroke-width="0.969857" stroke-linecap="round" stroke-linejoin="round"/>
<defs>
<filter id="filter0_d_26_4" x="0" y="0" width="555" height="340" filterUnits="userSpaceOnUse" color-interpolation-filters="sRGB">
<feFlood flood-opacity="0" result="BackgroundImageFix"/>
<feColorMatrix in="SourceAlpha" type="matrix" values="0 0 0 0 0 0 0 0 0 0 0 0 0 0 0 0 0 0 127 0" result="hardAlpha"/>
<feOffset dx="2" dy="4"/>
<feGaussianBlur stdDeviation="2"/>
<feComposite in2="hardAlpha" operator="out"/>
<feColorMatrix type="matrix" values="0 0 0 0 0 0 0 0 0 0 0 0 0 0 0 0 0 0 0.25 0"/>
<feBlend mode="normal" in2="BackgroundImageFix" result="effect1_dropShadow_26_4"/>
<feBlend mode="normal" in="SourceGraphic" in2="effect1_dropShadow_26_4" result="shape"/>
</filter>
</defs>
</svg>
