<svg width="26" height="26" viewBox="0 0 26 26" fill="none" xmlns="http://www.w3.org/2000/svg">
<g clip-path="url(#clip0_5_104)">
<path fill-rule="evenodd" clip-rule="evenodd" d="M5.59386 13C5.59386 12.1743 5.73099 11.3828 5.97574 10.6403L1.69179 7.36896C0.856875 9.06416 0.386475 10.9743 0.386475 13C0.386475 15.0239 0.856297 16.9329 1.69006 18.627L5.97169 15.3492C5.72925 14.6102 5.59386 13.8216 5.59386 13Z" fill="#FBBC05"/>
<path fill-rule="evenodd" clip-rule="evenodd" d="M13.1157 5.48888C14.9094 5.48888 16.5295 6.12443 17.8024 7.16443L21.5054 3.46666C19.2489 1.50221 16.3559 0.288879 13.1157 0.288879C8.08541 0.288879 3.76212 3.16563 1.69189 7.36897L5.97584 10.6403C6.96293 7.64399 9.77665 5.48888 13.1157 5.48888Z" fill="#EB4335"/>
<path fill-rule="evenodd" clip-rule="evenodd" d="M13.1157 20.5111C9.77665 20.5111 6.96293 18.356 5.97584 15.3596L1.69189 18.6304C3.76212 22.8343 8.08541 25.7111 13.1157 25.7111C16.2205 25.7111 19.1847 24.6087 21.4094 22.5431L17.343 19.3994C16.1956 20.1222 14.7509 20.5111 13.1157 20.5111Z" fill="#34A853"/>
<path fill-rule="evenodd" clip-rule="evenodd" d="M25.2663 13C25.2663 12.2489 25.1506 11.44 24.977 10.6889H13.1157V15.6H19.9432C19.6018 17.2744 18.6726 18.5617 17.343 19.3995L21.4094 22.5432C23.7463 20.3742 25.2663 17.1433 25.2663 13Z" fill="#4285F4"/>
</g>
<defs>
<clipPath id="clip0_5_104">
<rect width="26" height="26" fill="white"/>
</clipPath>
</defs>
</svg>
