<svg width="53" height="53" viewBox="0 0 53 53" fill="none" xmlns="http://www.w3.org/2000/svg">
<g clip-path="url(#clip0_1_11)">
<path fill-rule="evenodd" clip-rule="evenodd" d="M34.9809 6.35998C36.2882 6.4821 37.5572 6.86556 38.7142 7.48737C39.8713 8.10915 40.8925 8.95646 41.7198 9.97884C42.5468 11.0012 43.1635 12.1782 43.5354 13.4412C43.9073 14.7042 44.0273 16.0289 43.8891 17.3389C43.7509 18.6488 43.3571 19.9193 42.7298 21.0767C42.1048 22.2301 41.2597 23.2492 40.2421 24.0744L23.9342 37.5738L23.9205 37.5847C22.6929 38.5701 21.1714 39.2792 19.464 39.1434C17.7276 39.0055 16.2934 38.0348 15.1842 36.6764C13.8429 35.0339 13.6079 33.185 13.9848 31.5961C14.3385 30.1052 15.2145 28.8657 16.1224 28.0885L16.1362 28.0767L29.2933 17.1701C29.8825 16.6817 30.7561 16.7634 31.2445 17.3526L32.4237 18.7751C32.9123 19.3644 32.8305 20.238 32.2412 20.7264L19.1158 31.6067C18.8649 31.8259 18.5804 32.2364 18.4794 32.6623C18.4335 32.8559 18.4315 33.0252 18.4629 33.1765C18.4928 33.3206 18.5663 33.5149 18.7622 33.7548C19.336 34.4575 19.7083 34.529 19.8299 34.5386C19.9793 34.5505 20.3633 34.5134 21.0168 33.9922L37.3162 20.4997L37.3265 20.4914C37.8736 20.0491 38.3302 19.5002 38.6687 18.8756C39.0073 18.2509 39.2205 17.5638 39.2954 16.8542C39.3703 16.1447 39.305 15.428 39.1044 14.7461C38.9035 14.0642 38.5714 13.4316 38.1286 12.8843C37.686 12.3371 37.1415 11.8862 36.5276 11.5563C35.9138 11.2265 35.2422 11.0238 34.5513 10.9592C33.8605 10.8947 33.1629 10.9695 32.4986 11.1799C31.8344 11.3904 31.2158 11.7327 30.6795 12.1884L30.6688 12.1975L14.2405 25.8156L14.2275 25.8262C13.3592 26.525 12.6349 27.3925 12.0979 28.3791C11.5608 29.3658 11.2223 30.4513 11.1028 31.5722C10.9832 32.6932 11.0851 33.8258 11.4019 34.9042C11.6926 35.8935 12.5154 37.3158 13.2851 38.267C14.0822 39.2523 15.4772 40.5429 16.3447 41.0086C17.3195 41.5318 18.3869 41.8528 19.4849 41.9541C20.5829 42.0554 21.6909 41.9349 22.7451 41.5988C23.7992 41.2627 24.7791 40.7176 25.6273 39.9936L25.6399 39.9827L41.6935 26.6751C42.2829 26.1865 43.1564 26.2683 43.6449 26.8576L44.8241 28.2801C45.3125 28.8693 45.2308 29.7429 44.6416 30.2313L28.6131 43.5183C27.3023 44.6341 25.785 45.478 24.1481 45.9999C22.5054 46.5234 20.7761 46.7121 19.0607 46.5538C17.3453 46.3957 15.6795 45.894 14.1604 45.0788C12.534 44.206 10.6848 42.3972 9.694 41.1726C8.67581 39.9141 7.48405 37.9557 6.97004 36.2063C6.48218 34.546 6.32586 32.8043 6.50955 31.0822C6.69322 29.3602 7.2134 27.6907 8.04057 26.171C8.86494 24.6563 9.97834 23.3194 11.3176 22.2387L27.6998 8.6585C28.6995 7.81179 29.856 7.17164 31.1034 6.77641C32.3556 6.37964 33.6737 6.23787 34.9809 6.35998Z" fill="#46A6FF" stroke="#46A6FF"/>
</g>
<defs>
<clipPath id="clip0_1_11">
<rect width="44.345" height="44.345" fill="white" transform="translate(0 9.14257) rotate(-11.8979)"/>
</clipPath>
</defs>
</svg>
