<svg width="16" height="13" viewBox="0 0 16 13" fill="none" xmlns="http://www.w3.org/2000/svg">
<path d="M8.70711 0.292915C8.31658 -0.097609 7.68342 -0.097609 7.29289 0.292915L0.928932 6.65688C0.538408 7.0474 0.538408 7.68057 0.928932 8.07109C1.31946 8.46161 1.95262 8.46161 2.34315 8.07109L8 2.41424L13.6569 8.07109C14.0474 8.46161 14.6805 8.46161 15.0711 8.07109C15.4616 7.68057 15.4616 7.0474 15.0711 6.65688L8.70711 0.292915ZM8 1.00012H9V1.00002H8H7V1.00012H8Z" fill="#009661"/>
<path d="M8.70711 4.29292C8.31658 3.90239 7.68342 3.90239 7.29289 4.29292L0.928932 10.6569C0.538408 11.0474 0.538408 11.6806 0.928932 12.0711C1.31946 12.4616 1.95262 12.4616 2.34315 12.0711L8 6.41424L13.6569 12.0711C14.0474 12.4616 14.6805 12.4616 15.0711 12.0711C15.4616 11.6806 15.4616 11.0474 15.0711 10.6569L8.70711 4.29292ZM8 5.00012H9V5.00002H8H7V5.00012H8Z" fill="#009661"/>
</svg>
