<svg width="37" height="37" viewBox="0 0 37 37" fill="none" xmlns="http://www.w3.org/2000/svg">
<path fill-rule="evenodd" clip-rule="evenodd" d="M18.5 27.75C23.6086 27.75 27.75 23.6086 27.75 18.5C27.75 13.3914 23.6086 9.25 18.5 9.25C13.3914 9.25 9.25 13.3914 9.25 18.5C9.25 23.6086 13.3914 27.75 18.5 27.75ZM18.5 24.6667C21.9057 24.6667 24.6667 21.9057 24.6667 18.5C24.6667 15.0942 21.9057 12.3333 18.5 12.3333C15.0942 12.3333 12.3333 15.0942 12.3333 18.5C12.3333 21.9057 15.0942 24.6667 18.5 24.6667Z" fill="white"/>
<path d="M27.7499 7.70801C26.8985 7.70801 26.2083 8.39824 26.2083 9.24967C26.2083 10.1011 26.8985 10.7913 27.7499 10.7913C28.6014 10.7913 29.2916 10.1011 29.2916 9.24967C29.2916 8.39824 28.6014 7.70801 27.7499 7.70801Z" fill="white"/>
<path fill-rule="evenodd" clip-rule="evenodd" d="M2.54981 6.5921C1.54163 8.57078 1.54163 11.161 1.54163 16.3415V20.6582C1.54163 25.8386 1.54163 28.4289 2.54981 30.4075C3.43664 32.1481 4.85171 33.5632 6.59222 34.4499C8.5709 35.4582 11.1611 35.4582 16.3416 35.4582H20.6583C25.8388 35.4582 28.4291 35.4582 30.4076 34.4499C32.1482 33.5632 33.5633 32.1481 34.45 30.4075C35.4583 28.4289 35.4583 25.8386 35.4583 20.6582V16.3415C35.4583 11.161 35.4583 8.57078 34.45 6.5921C33.5633 4.85159 32.1482 3.43652 30.4076 2.54969C28.4291 1.5415 25.8388 1.5415 20.6583 1.5415H16.3416C11.1611 1.5415 8.5709 1.5415 6.59222 2.54969C4.85171 3.43652 3.43664 4.85159 2.54981 6.5921ZM20.6583 4.62484H16.3416C13.7005 4.62484 11.9051 4.62724 10.5173 4.74062C9.16554 4.85106 8.47425 5.05125 7.99202 5.29696C6.83169 5.88819 5.88831 6.83156 5.29708 7.9919C5.05137 8.47413 4.85118 9.16542 4.74074 10.5172C4.62736 11.905 4.62496 13.7004 4.62496 16.3415V20.6582C4.62496 23.2994 4.62736 25.0946 4.74074 26.4824C4.85118 27.8343 5.05137 28.5256 5.29708 29.0078C5.88831 30.1681 6.83169 31.1114 7.99202 31.7027C8.47425 31.9484 9.16554 32.1487 10.5173 32.2591C11.9051 32.3724 13.7005 32.3748 16.3416 32.3748H20.6583C23.2995 32.3748 25.0947 32.3724 26.4826 32.2591C27.8344 32.1487 28.5257 31.9484 29.008 31.7027C30.1682 31.1114 31.1116 30.1681 31.7028 29.0078C31.9485 28.5256 32.1488 27.8343 32.2592 26.4824C32.3725 25.0946 32.375 23.2994 32.375 20.6582V16.3415C32.375 13.7004 32.3725 11.905 32.2592 10.5172C32.1488 9.16542 31.9485 8.47413 31.7028 7.9919C31.1116 6.83156 30.1682 5.88819 29.008 5.29696C28.5257 5.05125 27.8344 4.85106 26.4826 4.74062C25.0947 4.62724 23.2995 4.62484 20.6583 4.62484Z" fill="white"/>
</svg>
