<svg width="91" height="91" viewBox="0 0 91 91" fill="none" xmlns="http://www.w3.org/2000/svg">
<g clip-path="url(#clip0_13_1729)">
<path d="M29.6568 66.2256C24.0951 66.2255 18.7612 64.0162 14.8283 60.0833C6.63886 51.8939 6.63889 38.6161 14.8284 30.4266C18.7612 26.4938 24.0949 24.2843 29.6567 24.2843L41.2548 24.2845L41.2548 32.2844L29.6567 32.2843C26.2167 32.2843 22.9177 33.651 20.4853 36.0834C15.4199 41.1487 15.42 49.3613 20.4851 54.4264C22.9177 56.859 26.2168 58.2256 29.6568 58.2255L41.2548 58.2256L41.2548 66.2255L29.6568 66.2256Z" fill="url(#paint0_linear_13_1729)"/>
<path d="M60.853 32.2843L49.2548 32.2844L49.2548 24.2845L60.8529 24.2843C66.4147 24.2843 71.7485 26.4938 75.6812 30.4266C83.8708 38.6161 83.8708 51.8939 75.6814 60.0833C71.7485 64.0161 66.4146 66.2255 60.8528 66.2256L49.2548 66.2255L49.2548 58.2256L60.8528 58.2255C64.2928 58.2256 67.5919 56.859 70.0245 54.4264C75.0897 49.3613 75.0897 41.1487 70.0244 36.0834C67.5919 33.651 64.2929 32.2843 60.853 32.2843Z" fill="url(#paint1_linear_13_1729)"/>
<path d="M62.2254 41.255H28.2843L28.2842 49.255H62.2254L62.2254 41.255Z" fill="url(#paint2_linear_13_1729)"/>
</g>
<defs>
<linearGradient id="paint0_linear_13_1729" x1="15.5563" y1="29.6986" x2="46.669" y2="60.8113" gradientUnits="userSpaceOnUse">
<stop stop-color="#46A6FF"/>
<stop offset="1" stop-color="#3646F4"/>
</linearGradient>
<linearGradient id="paint1_linear_13_1729" x1="43.8406" y1="29.6986" x2="74.9533" y2="60.8113" gradientUnits="userSpaceOnUse">
<stop stop-color="#46A6FF"/>
<stop offset="1" stop-color="#3646F4"/>
</linearGradient>
<linearGradient id="paint2_linear_13_1729" x1="34.7695" y1="34.7698" x2="55.7401" y2="55.7403" gradientUnits="userSpaceOnUse">
<stop stop-color="#46A6FF"/>
<stop offset="1" stop-color="#3646F4"/>
</linearGradient>
<clipPath id="clip0_13_1729">
<rect width="64" height="64" fill="white" transform="translate(45.2548 90.5098) rotate(-135)"/>
</clipPath>
</defs>
</svg>
