<svg width="26" height="26" viewBox="0 0 26 26" fill="none" xmlns="http://www.w3.org/2000/svg">
<circle cx="13" cy="13" r="13" fill="#A153FF"/>
<mask id="path-2-inside-1_76_49" fill="white">
<path d="M12.0986 14.3466C10.9407 13.8226 10.0859 12.8819 9.72039 11.729C9.35485 10.5762 9.5081 9.30464 10.1468 8.19107C10.7855 7.07749 11.8579 6.21205 13.1307 5.7831C14.4035 5.35414 15.7736 5.39639 16.9428 5.90065C18.1121 6.40491 18.9858 7.33036 19.3739 8.4756C19.7619 9.62083 19.6329 10.8931 19.0149 12.0156C18.3969 13.1381 17.3399 14.0199 16.074 14.4692C14.8081 14.9184 13.4357 14.8987 12.2555 14.4143L13.0409 12.9577C13.8188 13.277 14.7235 13.29 15.5579 12.9939C16.3923 12.6978 17.089 12.1165 17.4964 11.3766C17.9038 10.6367 17.9888 9.79808 17.733 9.0432C17.4772 8.28831 16.9013 7.6783 16.1306 7.34591C15.3599 7.01353 14.4568 6.98568 13.6178 7.26843C12.7788 7.55118 12.0719 8.12163 11.6509 8.85565C11.2299 9.58966 11.1289 10.4278 11.3699 11.1877C11.6108 11.9476 12.1742 12.5677 12.9375 12.9131L12.0986 14.3466Z"/>
</mask>
<path d="M12.0986 14.3466C10.9407 13.8226 10.0859 12.8819 9.72039 11.729C9.35485 10.5762 9.5081 9.30464 10.1468 8.19107C10.7855 7.07749 11.8579 6.21205 13.1307 5.7831C14.4035 5.35414 15.7736 5.39639 16.9428 5.90065C18.1121 6.40491 18.9858 7.33036 19.3739 8.4756C19.7619 9.62083 19.6329 10.8931 19.0149 12.0156C18.3969 13.1381 17.3399 14.0199 16.074 14.4692C14.8081 14.9184 13.4357 14.8987 12.2555 14.4143L13.0409 12.9577C13.8188 13.277 14.7235 13.29 15.5579 12.9939C16.3923 12.6978 17.089 12.1165 17.4964 11.3766C17.9038 10.6367 17.9888 9.79808 17.733 9.0432C17.4772 8.28831 16.9013 7.6783 16.1306 7.34591C15.3599 7.01353 14.4568 6.98568 13.6178 7.26843C12.7788 7.55118 12.0719 8.12163 11.6509 8.85565C11.2299 9.58966 11.1289 10.4278 11.3699 11.1877C11.6108 11.9476 12.1742 12.5677 12.9375 12.9131L12.0986 14.3466Z" stroke="white" stroke-width="2" mask="url(#path-2-inside-1_76_49)"/>
<mask id="path-3-inside-2_76_49" fill="white">
<path d="M16.571 13.5325C16.9315 14.4619 16.9748 15.4876 16.6951 16.4669C16.4154 17.4461 15.8265 18.3302 15.0104 18.9959C14.1943 19.6615 13.1917 20.0758 12.1421 20.1809C11.0926 20.2859 10.0483 20.0766 9.15482 19.5821C8.2613 19.0875 7.56299 18.3324 7.15712 17.4218C6.75125 16.5112 6.65803 15.4904 6.89044 14.5017C7.12286 13.5129 7.66933 12.6054 8.45376 11.9055C9.2382 11.2056 10.2215 10.7481 11.2669 10.5968L11.4629 12.2856C10.7871 12.3835 10.1513 12.6792 9.64415 13.1317C9.13701 13.5842 8.7837 14.171 8.63345 14.8102C8.48319 15.4494 8.54346 16.1094 8.80586 16.6981C9.06826 17.2868 9.51973 17.775 10.0974 18.0948C10.6751 18.4145 11.3502 18.5498 12.0287 18.4819C12.7073 18.4139 13.3555 18.1461 13.8831 17.7158C14.4107 17.2854 14.7915 16.7138 14.9723 16.0807C15.1532 15.4476 15.1251 14.7845 14.8921 14.1836L16.571 13.5325Z"/>
</mask>
<path d="M16.571 13.5325C16.9315 14.4619 16.9748 15.4876 16.6951 16.4669C16.4154 17.4461 15.8265 18.3302 15.0104 18.9959C14.1943 19.6615 13.1917 20.0758 12.1421 20.1809C11.0926 20.2859 10.0483 20.0766 9.15482 19.5821C8.2613 19.0875 7.56299 18.3324 7.15712 17.4218C6.75125 16.5112 6.65803 15.4904 6.89044 14.5017C7.12286 13.5129 7.66933 12.6054 8.45376 11.9055C9.2382 11.2056 10.2215 10.7481 11.2669 10.5968L11.4629 12.2856C10.7871 12.3835 10.1513 12.6792 9.64415 13.1317C9.13701 13.5842 8.7837 14.171 8.63345 14.8102C8.48319 15.4494 8.54346 16.1094 8.80586 16.6981C9.06826 17.2868 9.51973 17.775 10.0974 18.0948C10.6751 18.4145 11.3502 18.5498 12.0287 18.4819C12.7073 18.4139 13.3555 18.1461 13.8831 17.7158C14.4107 17.2854 14.7915 16.7138 14.9723 16.0807C15.1532 15.4476 15.1251 14.7845 14.8921 14.1836L16.571 13.5325Z" stroke="white" stroke-width="2" mask="url(#path-3-inside-2_76_49)"/>
</svg>
