<svg width="31" height="31" viewBox="0 0 31 31" fill="none" xmlns="http://www.w3.org/2000/svg">
<g clip-path="url(#clip0_8_550)">
<path d="M16.8419 18.0046L13.7418 21.1038C13.7428 21.1397 13.7437 21.1757 13.7437 21.2116C13.7437 21.7205 13.6472 22.2276 13.4552 22.7025C13.2612 23.1756 12.9755 23.6201 12.5848 24.0081L10.5462 26.0496C10.1555 26.4394 9.71269 26.725 9.23784 26.918C8.76202 27.111 8.25586 27.2075 7.74789 27.2075C7.24082 27.2075 6.73376 27.111 6.25884 26.9199C5.78393 26.725 5.34122 26.4393 4.94956 26.0496C4.55977 25.6598 4.27412 25.2171 4.0811 24.7422C3.88808 24.2672 3.79163 23.7602 3.79163 23.2512C3.79163 22.7442 3.88814 22.2371 4.0811 21.7622C4.27406 21.2873 4.55977 20.8446 4.94956 20.4529L6.99107 18.4133C7.38086 18.0254 7.8226 17.7378 8.29848 17.5448C8.77243 17.3518 9.28046 17.2553 9.78753 17.2553C9.82349 17.2553 9.85946 17.2572 9.89445 17.2592L12.9945 14.1572C12.898 14.1128 12.8006 14.0711 12.7013 14.0314C11.7675 13.653 10.7771 13.4638 9.78753 13.4638C8.79798 13.4638 7.80655 13.653 6.8738 14.0314C5.94007 14.4098 5.06314 14.9812 4.30917 15.7323L2.26953 17.7739C1.51647 18.525 0.946077 19.4029 0.56767 20.3376C0.189264 21.2723 0 22.2617 0 23.2512C0 24.2407 0.189203 25.2322 0.56761 26.1668C0.946016 27.0995 1.51647 27.9774 2.26947 28.7286C3.02156 29.4836 3.89946 30.0549 4.83319 30.4315C5.76788 30.8117 6.75834 30.9991 7.74789 30.9991C8.73834 30.9991 9.72886 30.8117 10.6626 30.4315C11.5963 30.0549 12.4742 29.4836 13.2263 28.7286L15.2669 26.6909C16.0189 25.936 16.5894 25.06 16.9687 24.1272C17.3481 23.1906 17.5354 22.2011 17.5363 21.2116C17.5354 20.2239 17.3481 19.2325 16.9687 18.296C16.928 18.1995 16.8855 18.1011 16.8419 18.0046Z" fill="white"/>
<path d="M30.4316 4.83416C30.0532 3.89946 29.4827 3.02156 28.7297 2.26953C27.9777 1.51744 27.0998 0.946077 26.1651 0.56767C25.2313 0.189203 24.2409 0 23.2513 0C22.2618 0 21.2704 0.189203 20.3366 0.56761C19.4029 0.946016 18.525 1.51744 17.7729 2.26947L15.7324 4.31002C14.9803 5.0612 14.4099 5.9391 14.0305 6.87374C13.6511 7.80649 13.4639 8.79792 13.4639 9.78844C13.4639 10.778 13.6512 11.7684 14.0305 12.7031C14.0712 12.8015 14.1128 12.898 14.1573 12.9954L17.2574 9.89536C17.2564 9.86036 17.2555 9.82537 17.2555 9.78844C17.2555 9.2804 17.352 8.77243 17.545 8.29848C17.738 7.82357 18.0236 7.38086 18.4143 6.9892L20.453 4.94956C20.8437 4.5617 21.2865 4.27502 21.7623 4.0811C22.2353 3.89002 22.7433 3.79163 23.2513 3.79163C23.7603 3.79163 24.2655 3.89002 24.7423 4.0811C25.2153 4.27502 25.659 4.5617 26.0497 4.94956C26.4395 5.34122 26.7251 5.78393 26.9181 6.25884C27.1092 6.73376 27.2076 7.24082 27.2076 7.74789C27.2076 8.25592 27.1092 8.76202 26.9181 9.23881C26.7251 9.71372 26.4395 10.1564 26.0497 10.5462L24.01 12.5859C23.6202 12.9756 23.1766 13.2613 22.7007 13.4543C22.2268 13.6473 21.7197 13.7438 21.2117 13.7438C21.1757 13.7438 21.1398 13.7428 21.1048 13.7419L18.0047 16.843C18.1012 16.8865 18.1986 16.9291 18.2961 16.9679C19.2317 17.3482 20.2222 17.5374 21.2117 17.5374C22.2012 17.5374 23.1927 17.3482 24.1254 16.9679C25.0591 16.5895 25.9361 16.019 26.69 15.2669L28.7297 13.2264C29.4827 12.4743 30.0531 11.5964 30.4315 10.6617C30.81 9.72898 30.9992 8.73756 30.9992 7.74801C30.9992 6.75846 30.81 5.76691 30.4316 4.83416Z" fill="white"/>
<path d="M9.70036 21.2986C10.4411 22.0403 11.6416 22.0403 12.3814 21.2986L21.2985 12.3814C22.0383 11.6416 22.0402 10.4421 21.2985 9.70045C20.5578 8.96065 19.3572 8.96065 18.6175 9.70045L9.70036 18.6195C8.96056 19.3593 8.96056 20.5588 9.70036 21.2986Z" fill="white"/>
</g>
<defs>
<clipPath id="clip0_8_550">
<rect width="30.9991" height="30.9991" fill="white"/>
</clipPath>
</defs>
</svg>
