<svg width="137" height="53" viewBox="0 0 137 53" fill="none" xmlns="http://www.w3.org/2000/svg">
<path d="M54.6193 13.8182V40H49.1733V13.8182H54.6193ZM58.9819 40V20.3636H64.4279V40H58.9819ZM61.7177 17.8324C60.908 17.8324 60.2134 17.5639 59.6339 17.027C59.0629 16.4815 58.7773 15.8295 58.7773 15.071C58.7773 14.321 59.0629 13.6776 59.6339 13.1406C60.2134 12.5952 60.908 12.3224 61.7177 12.3224C62.5273 12.3224 63.2177 12.5952 63.7887 13.1406C64.3683 13.6776 64.658 14.321 64.658 15.071C64.658 15.8295 64.3683 16.4815 63.7887 17.027C63.2177 17.5639 62.5273 17.8324 61.7177 17.8324ZM68.7905 47.3636V20.3636H74.1598V23.6619H74.4027C74.6413 23.1335 74.9865 22.5966 75.4382 22.0511C75.8984 21.4972 76.495 21.0369 77.228 20.6705C77.9695 20.2955 78.8899 20.108 79.9893 20.108C81.4212 20.108 82.7422 20.483 83.9524 21.233C85.1626 21.9744 86.13 23.0952 86.8544 24.5952C87.5788 26.0866 87.9411 27.9574 87.9411 30.2074C87.9411 32.3977 87.5874 34.2472 86.88 35.7557C86.1811 37.2557 85.2266 38.3935 84.0163 39.169C82.8146 39.9361 81.468 40.3196 79.9766 40.3196C78.9197 40.3196 78.0206 40.1449 77.2791 39.7955C76.5462 39.446 75.9453 39.0071 75.4766 38.4787C75.0078 37.9418 74.6499 37.4006 74.4027 36.8551H74.2365V47.3636H68.7905ZM74.1214 30.1818C74.1214 31.3494 74.2834 32.3679 74.6072 33.2372C74.9311 34.1065 75.3999 34.7841 76.0135 35.2699C76.6271 35.7472 77.3729 35.9858 78.2507 35.9858C79.1371 35.9858 79.8871 35.7429 80.5007 35.2571C81.1143 34.7628 81.5788 34.081 81.8942 33.2116C82.218 32.3338 82.38 31.3239 82.38 30.1818C82.38 29.0483 82.2223 28.0511 81.907 27.1903C81.5916 26.3295 81.1271 25.6562 80.5135 25.1705C79.8999 24.6847 79.1456 24.4418 78.2507 24.4418C77.3643 24.4418 76.6143 24.6761 76.0007 25.1449C75.3956 25.6136 74.9311 26.2784 74.6072 27.1392C74.2834 28 74.1214 29.0142 74.1214 30.1818ZM104.164 31.6392V20.3636H109.61V40H104.381V36.4332H104.177C103.734 37.5838 102.996 38.5085 101.965 39.2074C100.942 39.9062 99.6939 40.2557 98.2195 40.2557C96.907 40.2557 95.7521 39.9574 94.755 39.3608C93.7578 38.7642 92.978 37.9162 92.4155 36.8168C91.8615 35.7173 91.5803 34.4006 91.5717 32.8665V20.3636H97.0178V31.8949C97.0263 33.054 97.3374 33.9702 97.951 34.6435C98.5646 35.3168 99.3871 35.6534 100.418 35.6534C101.075 35.6534 101.688 35.5043 102.259 35.206C102.83 34.8991 103.29 34.4474 103.64 33.8509C103.998 33.2543 104.173 32.517 104.164 31.6392ZM113.966 40V20.3636H119.246V23.7898H119.451C119.809 22.571 120.409 21.6506 121.253 21.0284C122.097 20.3977 123.069 20.0824 124.168 20.0824C124.441 20.0824 124.735 20.0994 125.05 20.1335C125.365 20.1676 125.642 20.2145 125.881 20.2741V25.1065C125.625 25.0298 125.272 24.9616 124.82 24.902C124.368 24.8423 123.955 24.8125 123.58 24.8125C122.779 24.8125 122.063 24.9872 121.432 25.3366C120.81 25.6776 120.316 26.1548 119.949 26.7685C119.591 27.3821 119.412 28.0895 119.412 28.8906V40H113.966ZM134.143 13.8182V40H128.697V13.8182H134.143Z" fill="#46A6FF"/>
<g clip-path="url(#clip0_1_15)">
<path fill-rule="evenodd" clip-rule="evenodd" d="M34.9809 6.35998C36.2882 6.4821 37.5572 6.86556 38.7142 7.48737C39.8713 8.10915 40.8925 8.95646 41.7198 9.97884C42.5468 11.0012 43.1635 12.1782 43.5354 13.4412C43.9073 14.7042 44.0273 16.0289 43.8891 17.3389C43.7509 18.6488 43.3571 19.9193 42.7298 21.0767C42.1048 22.2301 41.2597 23.2492 40.2421 24.0744L23.9342 37.5738L23.9205 37.5847C22.6929 38.5701 21.1714 39.2792 19.464 39.1434C17.7276 39.0055 16.2934 38.0348 15.1842 36.6764C13.8429 35.0339 13.6079 33.185 13.9848 31.5961C14.3385 30.1052 15.2145 28.8657 16.1224 28.0885L16.1362 28.0767L29.2933 17.1701C29.8825 16.6817 30.7561 16.7634 31.2445 17.3526L32.4237 18.7751C32.9123 19.3644 32.8305 20.238 32.2412 20.7264L19.1158 31.6067C18.8649 31.8259 18.5804 32.2364 18.4794 32.6623C18.4335 32.8559 18.4315 33.0252 18.4629 33.1765C18.4928 33.3206 18.5663 33.5149 18.7622 33.7548C19.336 34.4575 19.7083 34.529 19.8299 34.5386C19.9793 34.5505 20.3633 34.5134 21.0168 33.9922L37.3162 20.4997L37.3265 20.4914C37.8736 20.0491 38.3302 19.5002 38.6687 18.8756C39.0073 18.2509 39.2205 17.5638 39.2954 16.8542C39.3703 16.1447 39.305 15.428 39.1044 14.7461C38.9035 14.0642 38.5714 13.4316 38.1286 12.8843C37.686 12.3371 37.1415 11.8862 36.5276 11.5563C35.9138 11.2265 35.2422 11.0238 34.5513 10.9592C33.8605 10.8947 33.1629 10.9695 32.4986 11.1799C31.8344 11.3904 31.2158 11.7327 30.6795 12.1884L30.6688 12.1975L14.2405 25.8156L14.2275 25.8262C13.3592 26.525 12.6349 27.3925 12.0979 28.3791C11.5608 29.3658 11.2223 30.4513 11.1028 31.5722C10.9832 32.6932 11.0851 33.8258 11.4019 34.9042C11.6926 35.8935 12.5154 37.3158 13.2851 38.267C14.0822 39.2523 15.4772 40.5429 16.3447 41.0086C17.3195 41.5318 18.3869 41.8528 19.4849 41.9541C20.5829 42.0554 21.6909 41.9349 22.7451 41.5988C23.7992 41.2627 24.7791 40.7176 25.6273 39.9936L25.6399 39.9827L41.6935 26.6751C42.2829 26.1865 43.1564 26.2683 43.6449 26.8576L44.8241 28.2801C45.3125 28.8693 45.2308 29.7429 44.6416 30.2313L28.6131 43.5183C27.3023 44.6341 25.785 45.478 24.1481 45.9999C22.5054 46.5234 20.7761 46.7121 19.0607 46.5538C17.3453 46.3957 15.6795 45.894 14.1604 45.0788C12.534 44.206 10.6848 42.3972 9.694 41.1726C8.67581 39.9141 7.48405 37.9557 6.97004 36.2063C6.48218 34.546 6.32586 32.8043 6.50955 31.0822C6.69322 29.3602 7.2134 27.6907 8.04057 26.171C8.86494 24.6563 9.97834 23.3194 11.3176 22.2387L27.6998 8.6585C28.6995 7.81179 29.856 7.17164 31.1034 6.77641C32.3556 6.37964 33.6737 6.23787 34.9809 6.35998Z" fill="#46A6FF" stroke="#46A6FF"/>
</g>
<defs>
<clipPath id="clip0_1_15">
<rect width="44.345" height="44.345" fill="white" transform="translate(0 9.14257) rotate(-11.8979)"/>
</clipPath>
</defs>
</svg>
