<svg width="455" height="340" viewBox="0 0 455 340" fill="none" xmlns="http://www.w3.org/2000/svg">
<g clip-path="url(#clip0_40_2)">
<path d="M439.353 37.5H15.6465C7.00517 37.5 0 44.4956 0 53.125V131.25C0 139.879 7.00517 146.875 15.6465 146.875H439.353C447.995 146.875 455 139.879 455 131.25V53.125C455 44.4956 447.995 37.5 439.353 37.5Z" fill="#EDEDED"/>
<path d="M13.7689 56.25C10.3123 56.25 7.51027 53.5917 7.51027 50.3125C7.51027 47.0333 10.3123 44.375 13.7689 44.375C17.2254 44.375 20.0275 47.0333 20.0275 50.3125C20.0275 53.5917 17.2254 56.25 13.7689 56.25Z" fill="#FF0C0C"/>
<path d="M30.3541 56.25C27.0704 56.25 24.4085 53.5917 24.4085 50.3125C24.4085 47.0333 27.0704 44.375 30.3541 44.375C33.6378 44.375 36.2998 47.0333 36.2998 50.3125C36.2998 53.5917 33.6378 56.25 30.3541 56.25Z" fill="#FFDC16"/>
<path d="M46.9395 56.25C43.483 56.25 40.6809 53.5917 40.6809 50.3125C40.6809 47.0333 43.483 44.375 46.9395 44.375C50.3961 44.375 53.1981 47.0333 53.1981 50.3125C53.1981 53.5917 50.3961 56.25 46.9395 56.25Z" fill="#00FF26"/>
<path d="M424.646 71.25H30.9801C19.7464 71.25 10.6396 80.3442 10.6396 91.5625C10.6396 102.781 19.7464 111.875 30.9801 111.875H424.646C435.88 111.875 444.986 102.781 444.986 91.5625C444.986 80.3442 435.88 71.25 424.646 71.25Z" fill="#D9D9D9"/>
<path d="M45.1934 92.1488V96.25H44.1444V87.1594H45.1934V90.4969H45.2823C45.4424 90.145 45.6824 89.8656 46.0024 89.6581C46.3254 89.4481 46.7551 89.3431 47.2915 89.3431C47.7567 89.3431 48.1642 89.4362 48.5138 89.6225C48.8635 89.8062 49.1347 90.0888 49.3273 90.4706C49.5229 90.8494 49.6207 91.3319 49.6207 91.9175V96.25H48.5717V91.9888C48.5717 91.4469 48.4309 91.0281 48.1493 90.7325C47.8708 90.4338 47.4841 90.2844 46.9892 90.2844C46.6455 90.2844 46.3373 90.3569 46.0647 90.5019C45.795 90.6469 45.5816 90.8581 45.4245 91.1362C45.2705 91.4144 45.1934 91.7519 45.1934 92.1488ZM54.5091 89.4319V90.3194H50.9708V89.4319H54.5091ZM52.0021 87.7981H53.0511V94.2969C53.0511 94.5925 53.0941 94.815 53.18 94.9625C53.2689 95.1075 53.3815 95.2056 53.5178 95.2556C53.6571 95.3031 53.8038 95.3269 53.9579 95.3269C54.0735 95.3269 54.1683 95.3206 54.2424 95.3088C54.3165 95.2944 54.3757 95.2825 54.4202 95.2738L54.6336 96.2144C54.5624 96.2412 54.4631 96.2675 54.3357 96.2944C54.2083 96.3238 54.0468 96.3388 53.8512 96.3388C53.5549 96.3388 53.2645 96.275 52.98 96.1481C52.6985 96.0206 52.4644 95.8269 52.2777 95.5663C52.094 95.3063 52.0021 94.9775 52.0021 94.5813V87.7981ZM59.0563 89.4319V90.3194H55.5181V89.4319H59.0563ZM56.5494 87.7981H57.5984V94.2969C57.5984 94.5925 57.6414 94.815 57.7273 94.9625C57.8162 95.1075 57.9288 95.2056 58.0651 95.2556C58.2044 95.3031 58.351 95.3269 58.5052 95.3269C58.6207 95.3269 58.7156 95.3206 58.7897 95.3088C58.8638 95.2944 58.923 95.2825 58.9675 95.2738L59.1808 96.2144C59.1097 96.2412 59.0105 96.2675 58.883 96.2944C58.7556 96.3238 58.5941 96.3388 58.3985 96.3388C58.1021 96.3388 57.8117 96.275 57.5273 96.1481C57.2457 96.0206 57.0116 95.8269 56.8249 95.5663C56.6412 95.3063 56.5494 94.9775 56.5494 94.5813V87.7981ZM60.6343 98.8069V89.4319H61.6478V90.515H61.7722C61.8493 90.3963 61.956 90.2456 62.0923 90.0619C62.2316 89.8756 62.4302 89.71 62.6879 89.565C62.9489 89.4169 63.3013 89.3431 63.7456 89.3431C64.3208 89.3431 64.8278 89.4869 65.2659 89.7738C65.7046 90.0606 66.0469 90.4675 66.2929 90.9944C66.5389 91.5213 66.6615 92.1425 66.6615 92.8588C66.6615 93.5806 66.5389 94.2069 66.2929 94.7363C66.0469 95.2631 65.7058 95.6712 65.2702 95.9612C64.8346 96.2487 64.3327 96.3919 63.7638 96.3919C63.3251 96.3919 62.974 96.3194 62.7105 96.1744C62.4464 96.0269 62.2435 95.8594 62.1012 95.6731C61.9589 95.4837 61.8493 95.3269 61.7722 95.2025H61.6834V98.8069H60.6343ZM61.6656 92.8406C61.6656 93.3556 61.7411 93.81 61.8923 94.2038C62.0434 94.5944 62.2642 94.9006 62.5546 95.1225C62.845 95.3413 63.2005 95.4513 63.6211 95.4513C64.0598 95.4513 64.426 95.3356 64.7195 95.105C65.0155 94.8713 65.2377 94.5575 65.386 94.1638C65.5375 93.7669 65.6126 93.3263 65.6126 92.8406C65.6126 92.3613 65.5387 91.9294 65.3904 91.545C65.2452 91.1569 65.0243 90.8506 64.7282 90.6256C64.4347 90.3981 64.0661 90.2844 63.6211 90.2844C63.1949 90.2844 62.8363 90.3919 62.5457 90.6081C62.2553 90.8213 62.036 91.12 61.8878 91.505C61.7396 91.8863 61.6656 92.3319 61.6656 92.8406ZM73.0985 90.9587L72.1559 91.225C72.0965 91.0681 72.0089 90.9156 71.8937 90.7681C71.7811 90.6169 71.6271 90.4925 71.4312 90.395C71.2359 90.2975 70.9856 90.2487 70.6802 90.2487C70.2621 90.2487 69.9141 90.345 69.6356 90.5369C69.3602 90.7262 69.2219 90.9675 69.2219 91.2606C69.2219 91.5213 69.317 91.7269 69.5067 91.8775C69.6963 92.0288 69.9923 92.1544 70.3954 92.255L71.4093 92.5037C72.0195 92.6512 72.4745 92.8781 72.7737 93.1825C73.0728 93.4844 73.2224 93.8738 73.2224 94.35C73.2224 94.7406 73.1098 95.09 72.8851 95.3975C72.6623 95.7056 72.3512 95.9481 71.9513 96.1256C71.5514 96.3031 71.0864 96.3919 70.5556 96.3919C69.859 96.3919 69.2826 96.2413 68.8264 95.9394C68.3701 95.6375 68.081 95.1963 67.9596 94.6163L68.9553 94.3681C69.0504 94.735 69.2294 95.01 69.4935 95.1938C69.7602 95.3769 70.1081 95.4688 70.5381 95.4688C71.0269 95.4688 71.4149 95.365 71.7022 95.1581C71.9926 94.9481 72.1378 94.6963 72.1378 94.4031C72.1378 94.1669 72.0552 93.9681 71.8893 93.8087C71.7235 93.6456 71.4681 93.5244 71.1245 93.4444L69.9867 93.1781C69.3615 93.03 68.9021 92.8012 68.6086 92.49C68.3182 92.1762 68.173 91.7844 68.173 91.3138C68.173 90.9294 68.2812 90.5887 68.4978 90.2931C68.7168 89.9969 69.0148 89.765 69.3909 89.5963C69.7702 89.4275 70.2001 89.3431 70.6802 89.3431C71.3555 89.3431 71.8862 89.4912 72.2711 89.7869C72.6598 90.0831 72.9351 90.4737 73.0985 90.9587ZM75.5663 96.3213C75.3472 96.3213 75.1588 96.2425 75.0017 96.0856C74.8446 95.9288 74.7664 95.7413 74.7664 95.5219C74.7664 95.3031 74.8446 95.115 75.0017 94.9581C75.1588 94.8013 75.3472 94.7231 75.5663 94.7231C75.7853 94.7231 75.9737 94.8013 76.1308 94.9581C76.2879 95.115 76.3661 95.3031 76.3661 95.5219C76.3661 95.6669 76.3292 95.8 76.2553 95.9213C76.184 96.0431 76.0876 96.1406 75.9662 96.2144C75.8479 96.2856 75.7146 96.3213 75.5663 96.3213ZM75.5663 91.2606C75.3472 91.2606 75.1588 91.1825 75.0017 91.0256C74.8446 90.8688 74.7664 90.6806 74.7664 90.4619C74.7664 90.2425 74.8446 90.055 75.0017 89.8981C75.1588 89.7413 75.3472 89.6625 75.5663 89.6625C75.7853 89.6625 75.9737 89.7413 76.1308 89.8981C76.2879 90.055 76.3661 90.2425 76.3661 90.4619C76.3661 90.6069 76.3292 90.74 76.2553 90.8613C76.184 90.9825 76.0876 91.08 75.9662 91.1544C75.8479 91.225 75.7146 91.2606 75.5663 91.2606ZM81.4669 86.7331L78.5335 97.6175H77.5734L80.5068 86.7331H81.4669ZM85.9286 86.7331L82.9952 97.6175H82.0351L84.9685 86.7331H85.9286ZM87.8481 98.8069C87.6704 98.8069 87.5114 98.7919 87.3725 98.7625C87.2329 98.7356 87.1365 98.7094 87.0833 98.6825L87.3499 97.7594C87.6047 97.8244 87.83 97.8481 88.0259 97.83C88.2211 97.8125 88.3945 97.725 88.546 97.5681C88.6999 97.4144 88.8407 97.1644 88.9678 96.8181L89.1637 96.2856L86.639 89.4319H87.7768L89.6612 94.865H89.7326L91.6171 89.4319H92.7555L89.8571 97.2444C89.727 97.5963 89.5649 97.8881 89.3727 98.1188C89.18 98.3525 88.9559 98.5256 88.7012 98.6381C88.4496 98.7506 88.1648 98.8069 87.8481 98.8069ZM96.669 96.3919C96.0525 96.3919 95.5118 96.2456 95.0468 95.9525C94.5843 95.6594 94.2225 95.25 93.9622 94.7231C93.7043 94.1963 93.5754 93.5806 93.5754 92.8763C93.5754 92.1663 93.7043 91.5463 93.9622 91.0163C94.2225 90.4869 94.5843 90.0756 95.0468 89.7825C95.5118 89.4894 96.0525 89.3431 96.669 89.3431C97.2855 89.3431 97.825 89.4894 98.2868 89.7825C98.7525 90.0756 99.1136 90.4869 99.3715 91.0163C99.6324 91.5463 99.7626 92.1663 99.7626 92.8763C99.7626 93.5806 99.6324 94.1963 99.3715 94.7231C99.1136 95.25 98.7525 95.6594 98.2868 95.9525C97.825 96.2456 97.2855 96.3919 96.669 96.3919ZM96.669 95.4513C97.1371 95.4513 97.5227 95.3312 97.825 95.0912C98.1272 94.8519 98.3507 94.5369 98.4959 94.1463C98.6411 93.7556 98.7137 93.3319 98.7137 92.8763C98.7137 92.4206 98.6411 91.9962 98.4959 91.6025C98.3507 91.2087 98.1272 90.8906 97.825 90.6481C97.5227 90.4056 97.1371 90.2844 96.669 90.2844C96.2008 90.2844 95.8153 90.4056 95.5137 90.6481C95.2114 90.8906 94.9873 91.2087 94.8421 91.6025C94.6969 91.9962 94.6243 92.4206 94.6243 92.8763C94.6243 93.3319 94.6969 93.7556 94.8421 94.1463C94.9873 94.5369 95.2114 94.8519 95.5137 95.0912C95.8153 95.3312 96.2008 95.4513 96.669 95.4513ZM105.667 93.4625V89.4319H106.716V96.25H105.667V95.0956H105.596C105.436 95.4419 105.187 95.7369 104.849 95.9794C104.511 96.2188 104.084 96.3388 103.569 96.3388C103.142 96.3388 102.763 96.2456 102.431 96.0594C102.099 95.87 101.838 95.5856 101.648 95.2069C101.459 94.825 101.364 94.3444 101.364 93.7644V89.4319H102.413V93.6931C102.413 94.1906 102.553 94.5869 102.831 94.8825C103.112 95.1788 103.471 95.3269 103.906 95.3269C104.167 95.3269 104.433 95.26 104.703 95.1269C104.975 94.9938 105.203 94.7894 105.387 94.5144C105.574 94.2394 105.667 93.8887 105.667 93.4625ZM108.637 96.25V89.4319H109.651V90.4619H109.722C109.846 90.1244 110.072 89.8506 110.397 89.6406C110.723 89.4306 111.091 89.325 111.5 89.325C111.577 89.325 111.673 89.3269 111.789 89.33C111.904 89.3325 111.992 89.3369 112.051 89.3431V90.4081C112.016 90.3994 111.934 90.3863 111.807 90.3681C111.682 90.3475 111.55 90.3375 111.411 90.3375C111.079 90.3375 110.783 90.4069 110.522 90.5462C110.264 90.6819 110.06 90.8713 109.908 91.1144C109.76 91.3538 109.686 91.6275 109.686 91.9356V96.25H108.637ZM114.344 87.1594V96.25H113.294V87.1594H114.344ZM119.038 96.3919C118.422 96.3919 117.881 96.2456 117.416 95.9525C116.954 95.6594 116.593 95.25 116.332 94.7231C116.074 94.1963 115.945 93.5806 115.945 92.8763C115.945 92.1663 116.074 91.5463 116.332 91.0163C116.593 90.4869 116.954 90.0756 117.416 89.7825C117.881 89.4894 118.422 89.3431 119.038 89.3431C119.655 89.3431 120.194 89.4894 120.657 89.7825C121.122 90.0756 121.484 90.4869 121.741 91.0163C122.002 91.5463 122.132 92.1663 122.132 92.8763C122.132 93.5806 122.002 94.1963 121.741 94.7231C121.484 95.25 121.122 95.6594 120.657 95.9525C120.194 96.2456 119.655 96.3919 119.038 96.3919ZM119.038 95.4513C119.507 95.4513 119.892 95.3312 120.194 95.0912C120.497 94.8519 120.72 94.5369 120.865 94.1463C121.011 93.7556 121.083 93.3319 121.083 92.8763C121.083 92.4206 121.011 91.9962 120.865 91.6025C120.72 91.2087 120.497 90.8906 120.194 90.6481C119.892 90.4056 119.507 90.2844 119.038 90.2844C118.57 90.2844 118.185 90.4056 117.883 90.6481C117.581 90.8906 117.357 91.2087 117.212 91.6025C117.066 91.9962 116.994 92.4206 116.994 92.8763C116.994 93.3319 117.066 93.7556 117.212 94.1463C117.357 94.5369 117.581 94.8519 117.883 95.0912C118.185 95.3312 118.57 95.4513 119.038 95.4513ZM124.783 92.1488V96.25H123.734V89.4319H124.747V90.4969H124.836C124.996 90.1506 125.239 89.8725 125.565 89.6625C125.891 89.4494 126.312 89.3431 126.827 89.3431C127.29 89.3431 127.694 89.4375 128.041 89.6269C128.388 89.8138 128.657 90.0975 128.85 90.4794C129.043 90.8581 129.139 91.3375 129.139 91.9175V96.25H128.09V91.9888C128.09 91.4531 127.951 91.0356 127.672 90.7369C127.394 90.435 127.011 90.2844 126.525 90.2844C126.19 90.2844 125.891 90.3569 125.628 90.5019C125.367 90.6469 125.161 90.8581 125.009 91.1362C124.858 91.4144 124.783 91.7519 124.783 92.1488ZM133.812 98.9487C133.305 98.9487 132.869 98.8837 132.505 98.7537C132.14 98.6263 131.837 98.4575 131.594 98.2475C131.354 98.0406 131.163 97.8181 131.02 97.5819L131.856 96.9956C131.951 97.12 132.071 97.2619 132.216 97.4219C132.361 97.5844 132.56 97.725 132.812 97.8438C133.066 97.965 133.4 98.0256 133.812 98.0256C134.363 98.0256 134.818 97.8925 135.176 97.6262C135.535 97.36 135.714 96.9425 135.714 96.3744V94.9894H135.625C135.548 95.1138 135.439 95.2675 135.296 95.4513C135.157 95.6313 134.955 95.7925 134.692 95.935C134.431 96.0738 134.079 96.1438 133.634 96.1438C133.083 96.1438 132.588 96.0131 132.149 95.7531C131.713 95.4925 131.369 95.1138 131.114 94.6163C130.862 94.1194 130.736 93.5156 130.736 92.8056C130.736 92.1069 130.858 91.4988 131.104 90.9813C131.35 90.46 131.693 90.0575 132.131 89.7738C132.57 89.4869 133.077 89.3431 133.652 89.3431C134.096 89.3431 134.449 89.4169 134.709 89.565C134.973 89.71 135.175 89.8756 135.314 90.0619C135.457 90.2456 135.566 90.3963 135.643 90.515H135.75V89.4319H136.763V96.445C136.763 97.0312 136.63 97.5075 136.363 97.8744C136.099 98.2444 135.744 98.5156 135.296 98.6869C134.852 98.8619 134.357 98.9487 133.812 98.9487ZM133.776 95.2025C134.197 95.2025 134.552 95.1063 134.843 94.9138C135.133 94.7213 135.354 94.445 135.505 94.0837C135.656 93.7225 135.732 93.2906 135.732 92.7875C135.732 92.2963 135.658 91.8631 135.51 91.4869C135.362 91.1113 135.142 90.8169 134.852 90.6038C134.562 90.3906 134.203 90.2844 133.776 90.2844C133.332 90.2844 132.961 90.3963 132.665 90.6213C132.372 90.8463 132.151 91.1481 132.003 91.5269C131.857 91.9056 131.785 92.3263 131.785 92.7875C131.785 93.2613 131.859 93.68 132.007 94.0438C132.158 94.405 132.381 94.6888 132.674 94.8963C132.97 95.1006 133.337 95.2025 133.776 95.2025ZM141.261 96.3919C140.693 96.3919 140.19 96.2487 139.754 95.9612C139.319 95.6712 138.978 95.2631 138.732 94.7363C138.486 94.2069 138.363 93.5806 138.363 92.8588C138.363 92.1425 138.486 91.5213 138.732 90.9944C138.978 90.4675 139.321 90.0606 139.759 89.7738C140.198 89.4869 140.704 89.3431 141.28 89.3431C141.724 89.3431 142.075 89.4169 142.333 89.565C142.593 89.71 142.792 89.8756 142.928 90.0619C143.068 90.2456 143.176 90.3963 143.253 90.515H143.342V87.1594H144.391V96.25H143.378V95.2025H143.253C143.176 95.3269 143.066 95.4837 142.924 95.6731C142.782 95.8594 142.579 96.0269 142.315 96.1744C142.051 96.3194 141.7 96.3919 141.261 96.3919ZM141.404 95.4513C141.825 95.4513 142.18 95.3413 142.471 95.1225C142.761 94.9006 142.982 94.5944 143.133 94.2038C143.284 93.81 143.359 93.3556 143.359 92.8406C143.359 92.3319 143.286 91.8863 143.137 91.505C142.99 91.12 142.77 90.8213 142.479 90.6081C142.189 90.3919 141.83 90.2844 141.404 90.2844C140.959 90.2844 140.589 90.3981 140.293 90.6256C139.999 90.8506 139.778 91.1569 139.631 91.545C139.485 91.9294 139.413 92.3613 139.413 92.8406C139.413 93.3263 139.487 93.7669 139.635 94.1638C139.786 94.5575 140.008 94.8713 140.301 95.105C140.597 95.3356 140.965 95.4513 141.404 95.4513ZM149.231 96.3919C148.615 96.3919 148.075 96.2456 147.609 95.9525C147.147 95.6594 146.785 95.25 146.524 94.7231C146.267 94.1963 146.138 93.5806 146.138 92.8763C146.138 92.1663 146.267 91.5463 146.524 91.0163C146.785 90.4869 147.147 90.0756 147.609 89.7825C148.075 89.4894 148.615 89.3431 149.231 89.3431C149.848 89.3431 150.387 89.4894 150.85 89.7825C151.315 90.0756 151.676 90.4869 151.934 91.0163C152.195 91.5463 152.325 92.1663 152.325 92.8763C152.325 93.5806 152.195 94.1963 151.934 94.7231C151.676 95.25 151.315 95.6594 150.85 95.9525C150.387 96.2456 149.848 96.3919 149.231 96.3919ZM149.231 95.4513C149.7 95.4513 150.085 95.3312 150.387 95.0912C150.689 94.8519 150.913 94.5369 151.059 94.1463C151.204 93.7556 151.277 93.3319 151.277 92.8763C151.277 92.4206 151.204 91.9962 151.059 91.6025C150.913 91.2087 150.689 90.8906 150.387 90.6481C150.085 90.4056 149.7 90.2844 149.231 90.2844C148.763 90.2844 148.378 90.4056 148.076 90.6481C147.774 90.8906 147.55 91.2087 147.404 91.6025C147.259 91.9962 147.187 92.4206 147.187 92.8763C147.187 93.3319 147.259 93.7556 147.404 94.1463C147.55 94.5369 147.774 94.8519 148.076 95.0912C148.378 95.3312 148.763 95.4513 149.231 95.4513ZM153.926 96.25V89.4319H154.94V90.4969H155.029C155.171 90.1331 155.401 89.8506 155.718 89.6494C156.035 89.445 156.416 89.3431 156.86 89.3431C157.31 89.3431 157.685 89.445 157.985 89.6494C158.287 89.8506 158.523 90.1331 158.692 90.4969H158.763C158.938 90.145 159.2 89.8656 159.55 89.6581C159.899 89.4481 160.318 89.3431 160.808 89.3431C161.418 89.3431 161.917 89.5338 162.305 89.9156C162.693 90.2944 162.887 90.885 162.887 91.6869V96.25H161.839V91.6869C161.839 91.1838 161.701 90.8244 161.425 90.6081C161.149 90.3919 160.825 90.2844 160.452 90.2844C159.972 90.2844 159.6 90.4294 159.336 90.7194C159.072 91.0063 158.941 91.37 158.941 91.8112V96.25H157.874V91.58C157.874 91.1925 157.748 90.8806 157.496 90.6438C157.244 90.4038 156.919 90.2844 156.522 90.2844C156.25 90.2844 155.995 90.3569 155.758 90.5019C155.524 90.6469 155.334 90.8481 155.189 91.105C155.047 91.36 154.975 91.6544 154.975 91.9888V96.25H153.926ZM166.815 96.41C166.382 96.41 165.99 96.3281 165.637 96.1656C165.285 96 165.004 95.7619 164.797 95.4513C164.589 95.1375 164.486 94.7588 164.486 94.3144C164.486 93.9238 164.563 93.6075 164.717 93.365C164.871 93.1194 165.077 92.9269 165.335 92.7875C165.592 92.6488 165.877 92.545 166.188 92.4769C166.502 92.4056 166.818 92.3494 167.135 92.3081C167.55 92.255 167.886 92.215 168.144 92.1881C168.405 92.1588 168.595 92.11 168.713 92.0419C168.834 91.9738 168.895 91.8556 168.895 91.6869V91.6513C168.895 91.2131 168.775 90.8731 168.535 90.6306C168.298 90.3875 167.938 90.2662 167.455 90.2662C166.954 90.2662 166.561 90.3756 166.277 90.595C165.992 90.8137 165.793 91.0475 165.677 91.2963L164.681 90.9412C164.859 90.5269 165.096 90.2044 165.393 89.9731C165.692 89.7394 166.018 89.5769 166.37 89.485C166.726 89.3906 167.076 89.3431 167.419 89.3431C167.639 89.3431 167.891 89.3694 168.175 89.4231C168.463 89.4731 168.74 89.5781 169.006 89.7381C169.276 89.8981 169.5 90.1394 169.677 90.4619C169.855 90.7844 169.944 91.2162 169.944 91.7575V96.25H168.895V95.3269H168.842C168.771 95.4744 168.652 95.6331 168.486 95.8019C168.321 95.9706 168.1 96.1138 167.824 96.2325C167.548 96.3506 167.212 96.41 166.815 96.41ZM166.975 95.4688C167.39 95.4688 167.74 95.3875 168.024 95.2244C168.311 95.0619 168.528 94.8519 168.673 94.5944C168.821 94.3369 168.895 94.0662 168.895 93.7819V92.8231C168.851 92.8763 168.753 92.925 168.602 92.9694C168.454 93.0113 168.282 93.0481 168.086 93.0806C167.894 93.11 167.705 93.1369 167.522 93.1606C167.341 93.1813 167.194 93.1988 167.081 93.2138C166.809 93.2494 166.554 93.3069 166.317 93.3869C166.083 93.4638 165.893 93.5806 165.748 93.7375C165.606 93.8912 165.535 94.1013 165.535 94.3681C165.535 94.7319 165.669 95.0069 165.939 95.1938C166.212 95.3769 166.557 95.4688 166.975 95.4688ZM171.859 96.25V89.4319H172.908V96.25H171.859ZM172.392 88.2956C172.188 88.2956 172.011 88.2256 171.864 88.0869C171.718 87.9475 171.646 87.7806 171.646 87.585C171.646 87.39 171.718 87.2225 171.864 87.0838C172.011 86.9444 172.188 86.875 172.392 86.875C172.597 86.875 172.772 86.9444 172.917 87.0838C173.065 87.2225 173.139 87.39 173.139 87.585C173.139 87.7806 173.065 87.9475 172.917 88.0869C172.772 88.2256 172.597 88.2956 172.392 88.2956ZM175.878 92.1488V96.25H174.829V89.4319H175.843V90.4969H175.932C176.092 90.1506 176.335 89.8725 176.661 89.6625C176.987 89.4494 177.407 89.3431 177.923 89.3431C178.386 89.3431 178.79 89.4375 179.137 89.6269C179.483 89.8138 179.753 90.0975 179.945 90.4794C180.138 90.8581 180.234 91.3375 180.234 91.9175V96.25H179.185V91.9888C179.185 91.4531 179.046 91.0356 178.767 90.7369C178.489 90.435 178.106 90.2844 177.621 90.2844C177.286 90.2844 176.987 90.3569 176.723 90.5019C176.462 90.6469 176.256 90.8581 176.105 91.1362C175.954 91.4144 175.878 91.7519 175.878 92.1488ZM182.916 96.3213C182.697 96.3213 182.508 96.2425 182.352 96.0856C182.195 95.9288 182.116 95.7413 182.116 95.5219C182.116 95.3031 182.195 95.115 182.352 94.9581C182.508 94.8013 182.697 94.7231 182.916 94.7231C183.135 94.7231 183.324 94.8013 183.48 94.9581C183.637 95.115 183.716 95.3031 183.716 95.5219C183.716 95.6669 183.679 95.8 183.605 95.9213C183.534 96.0431 183.438 96.1406 183.316 96.2144C183.197 96.2856 183.064 96.3213 182.916 96.3213ZM188.372 96.3919C187.732 96.3919 187.181 96.2413 186.718 95.9394C186.256 95.6375 185.901 95.2219 185.652 94.6919C185.403 94.1625 185.278 93.5569 185.278 92.8763C185.278 92.1838 185.406 91.5731 185.661 91.0431C185.918 90.5106 186.277 90.095 186.736 89.7956C187.199 89.4938 187.738 89.3431 188.354 89.3431C188.834 89.3431 189.267 89.4319 189.652 89.6094C190.038 89.7869 190.353 90.0356 190.599 90.355C190.845 90.675 190.998 91.0475 191.057 91.4738H190.008C189.928 91.1631 189.75 90.8875 189.475 90.6481C189.202 90.4056 188.834 90.2844 188.372 90.2844C187.963 90.2844 187.605 90.3906 187.297 90.6038C186.991 90.8138 186.753 91.1113 186.581 91.4956C186.412 91.8775 186.327 92.3263 186.327 92.8406C186.327 93.3675 186.41 93.8262 186.576 94.2169C186.745 94.6075 186.982 94.9106 187.288 95.1269C187.596 95.3431 187.958 95.4513 188.372 95.4513C188.645 95.4513 188.892 95.4038 189.115 95.3088C189.337 95.2144 189.525 95.0781 189.679 94.9006C189.833 94.7231 189.943 94.51 190.008 94.2612H191.057C190.998 94.6637 190.851 95.0263 190.617 95.3488C190.386 95.6688 190.079 95.9231 189.697 96.1125C189.318 96.2988 188.876 96.3919 188.372 96.3919ZM195.364 96.3919C194.748 96.3919 194.207 96.2456 193.742 95.9525C193.279 95.6594 192.918 95.25 192.657 94.7231C192.399 94.1963 192.27 93.5806 192.27 92.8763C192.27 92.1663 192.399 91.5463 192.657 91.0163C192.918 90.4869 193.279 90.0756 193.742 89.7825C194.207 89.4894 194.748 89.3431 195.364 89.3431C195.98 89.3431 196.52 89.4894 196.982 89.7825C197.447 90.0756 197.809 90.4869 198.067 91.0163C198.327 91.5463 198.458 92.1663 198.458 92.8763C198.458 93.5806 198.327 94.1963 198.067 94.7231C197.809 95.25 197.447 95.6594 196.982 95.9525C196.52 96.2456 195.98 96.3919 195.364 96.3919ZM195.364 95.4513C195.833 95.4513 196.218 95.3312 196.52 95.0912C196.822 94.8519 197.046 94.5369 197.191 94.1463C197.336 93.7556 197.409 93.3319 197.409 92.8763C197.409 92.4206 197.336 91.9962 197.191 91.6025C197.046 91.2087 196.822 90.8906 196.52 90.6481C196.218 90.4056 195.833 90.2844 195.364 90.2844C194.896 90.2844 194.511 90.4056 194.209 90.6481C193.906 90.8906 193.682 91.2087 193.537 91.6025C193.392 91.9962 193.319 92.4206 193.319 92.8763C193.319 93.3319 193.392 93.7556 193.537 94.1463C193.682 94.5369 193.906 94.8519 194.209 95.0912C194.511 95.3312 194.896 95.4513 195.364 95.4513ZM200.059 96.25V89.4319H201.073V90.4969H201.162C201.304 90.1331 201.534 89.8506 201.85 89.6494C202.168 89.445 202.548 89.3431 202.993 89.3431C203.443 89.3431 203.818 89.445 204.118 89.6494C204.42 89.8506 204.655 90.1331 204.824 90.4969H204.895C205.07 90.145 205.333 89.8656 205.682 89.6581C206.032 89.4481 206.451 89.3431 206.94 89.3431C207.551 89.3431 208.05 89.5338 208.438 89.9156C208.826 90.2944 209.02 90.885 209.02 91.6869V96.25H207.971V91.6869C207.971 91.1838 207.834 90.8244 207.558 90.6081C207.282 90.3919 206.958 90.2844 206.584 90.2844C206.104 90.2844 205.733 90.4294 205.469 90.7194C205.205 91.0063 205.074 91.37 205.074 91.8112V96.25H204.006V91.58C204.006 91.1925 203.881 90.8806 203.628 90.6438C203.377 90.4038 203.052 90.2844 202.655 90.2844C202.382 90.2844 202.128 90.3569 201.89 90.5019C201.656 90.6469 201.467 90.8481 201.322 91.105C201.179 91.36 201.108 91.6544 201.108 91.9888V96.25H200.059ZM214.157 86.7331L211.223 97.6175H210.263L213.197 86.7331H214.157ZM215.4 96.25V89.4319H216.413V90.4969H216.502C216.645 90.1331 216.874 89.8506 217.191 89.6494C217.509 89.445 217.889 89.3431 218.334 89.3431C218.784 89.3431 219.159 89.445 219.458 89.6494C219.761 89.8506 219.997 90.1331 220.166 90.4969H220.236C220.411 90.145 220.674 89.8656 221.023 89.6581C221.373 89.4481 221.792 89.3431 222.281 89.3431C222.892 89.3431 223.391 89.5338 223.779 89.9156C224.167 90.2944 224.361 90.885 224.361 91.6869V96.25H223.312V91.6869C223.312 91.1838 223.175 90.8244 222.899 90.6081C222.623 90.3919 222.299 90.2844 221.925 90.2844C221.445 90.2844 221.074 90.4294 220.81 90.7194C220.546 91.0063 220.414 91.37 220.414 91.8112V96.25H219.348V91.58C219.348 91.1925 219.221 90.8806 218.969 90.6438C218.718 90.4038 218.393 90.2844 217.996 90.2844C217.723 90.2844 217.469 90.3569 217.231 90.5019C216.997 90.6469 216.808 90.8481 216.663 91.105C216.521 91.36 216.449 91.6544 216.449 91.9888V96.25H215.4ZM229.053 96.3919C228.437 96.3919 227.896 96.2456 227.431 95.9525C226.969 95.6594 226.607 95.25 226.346 94.7231C226.088 94.1963 225.959 93.5806 225.959 92.8763C225.959 92.1663 226.088 91.5463 226.346 91.0163C226.607 90.4869 226.969 90.0756 227.431 89.7825C227.896 89.4894 228.437 89.3431 229.053 89.3431C229.669 89.3431 230.209 89.4894 230.671 89.7825C231.136 90.0756 231.498 90.4869 231.756 91.0163C232.016 91.5463 232.147 92.1663 232.147 92.8763C232.147 93.5806 232.016 94.1963 231.756 94.7231C231.498 95.25 231.136 95.6594 230.671 95.9525C230.209 96.2456 229.669 96.3919 229.053 96.3919ZM229.053 95.4513C229.521 95.4513 229.906 95.3312 230.209 95.0912C230.511 94.8519 230.735 94.5369 230.88 94.1463C231.025 93.7556 231.098 93.3319 231.098 92.8763C231.098 92.4206 231.025 91.9962 230.88 91.6025C230.735 91.2087 230.511 90.8906 230.209 90.6481C229.906 90.4056 229.521 90.2844 229.053 90.2844C228.585 90.2844 228.2 90.4056 227.897 90.6481C227.595 90.8906 227.372 91.2087 227.226 91.6025C227.081 91.9962 227.008 92.4206 227.008 92.8763C227.008 93.3319 227.081 93.7556 227.226 94.1463C227.372 94.5369 227.595 94.8519 227.897 95.0912C228.2 95.3312 228.585 95.4513 229.053 95.4513ZM233.748 96.25V89.4319H234.762V90.4619H234.833C234.957 90.1244 235.182 89.8506 235.508 89.6406C235.835 89.4306 236.202 89.325 236.611 89.325C236.688 89.325 236.784 89.3269 236.9 89.33C237.015 89.3325 237.103 89.3369 237.162 89.3431V90.4081C237.126 90.3994 237.045 90.3863 236.917 90.3681C236.793 90.3475 236.661 90.3375 236.522 90.3375C236.19 90.3375 235.893 90.4069 235.633 90.5462C235.375 90.6819 235.171 90.8713 235.02 91.1144C234.871 91.3538 234.797 91.6275 234.797 91.9356V96.25H233.748ZM241.06 96.3919C240.402 96.3919 239.835 96.2469 239.358 95.9569C238.884 95.6638 238.518 95.2556 238.26 94.7319C238.005 94.205 237.877 93.5925 237.877 92.8944C237.877 92.1956 238.005 91.58 238.26 91.0475C238.518 90.5119 238.876 90.095 239.336 89.7956C239.798 89.4938 240.337 89.3431 240.953 89.3431C241.309 89.3431 241.66 89.4025 242.007 89.5206C242.354 89.6388 242.67 89.8313 242.954 90.0975C243.238 90.3613 243.465 90.71 243.634 91.145C243.803 91.58 243.887 92.1156 243.887 92.7519V93.1963H238.625V92.2906H242.82C242.82 91.9056 242.743 91.5625 242.589 91.2606C242.438 90.9588 242.222 90.7206 241.94 90.5462C241.662 90.3712 241.333 90.2844 240.953 90.2844C240.535 90.2844 240.174 90.3875 239.869 90.595C239.567 90.7987 239.334 91.0656 239.171 91.3937C239.008 91.7225 238.926 92.0744 238.926 92.45V93.0538C238.926 93.5688 239.016 94.0056 239.194 94.3637C239.374 94.7187 239.625 94.9894 239.945 95.1756C240.264 95.3594 240.636 95.4513 241.06 95.4513C241.336 95.4513 241.585 95.4125 241.807 95.3356C242.032 95.2556 242.226 95.1375 242.389 94.9806C242.553 94.8206 242.678 94.6225 242.767 94.3856L243.78 94.67C243.674 95.0131 243.494 95.315 243.243 95.575C242.991 95.8325 242.68 96.0338 242.309 96.1788C241.939 96.3213 241.522 96.3919 241.06 96.3919ZM246.532 87.1594V96.25H245.483V87.1594H246.532ZM251.227 96.3919C250.61 96.3919 250.07 96.2456 249.605 95.9525C249.142 95.6594 248.781 95.25 248.52 94.7231C248.262 94.1963 248.133 93.5806 248.133 92.8763C248.133 92.1663 248.262 91.5463 248.52 91.0163C248.781 90.4869 249.142 90.0756 249.605 89.7825C250.07 89.4894 250.61 89.3431 251.227 89.3431C251.843 89.3431 252.383 89.4894 252.845 89.7825C253.31 90.0756 253.672 90.4869 253.929 91.0163C254.19 91.5463 254.321 92.1663 254.321 92.8763C254.321 93.5806 254.19 94.1963 253.929 94.7231C253.672 95.25 253.31 95.6594 252.845 95.9525C252.383 96.2456 251.843 96.3919 251.227 96.3919ZM251.227 95.4513C251.695 95.4513 252.081 95.3312 252.383 95.0912C252.685 94.8519 252.909 94.5369 253.054 94.1463C253.199 93.7556 253.272 93.3319 253.272 92.8763C253.272 92.4206 253.199 91.9962 253.054 91.6025C252.909 91.2087 252.685 90.8906 252.383 90.6481C252.081 90.4056 251.695 90.2844 251.227 90.2844C250.759 90.2844 250.374 90.4056 250.072 90.6481C249.769 90.8906 249.545 91.2087 249.4 91.6025C249.255 91.9962 249.182 92.4206 249.182 92.8763C249.182 93.3319 249.255 93.7556 249.4 94.1463C249.545 94.5369 249.769 94.8519 250.072 95.0912C250.374 95.3312 250.759 95.4513 251.227 95.4513ZM256.971 92.1488V96.25H255.922V89.4319H256.935V90.4969H257.024C257.184 90.1506 257.427 89.8725 257.753 89.6625C258.079 89.4494 258.5 89.3431 259.016 89.3431C259.478 89.3431 259.883 89.4375 260.229 89.6269C260.576 89.8138 260.846 90.0975 261.039 90.4794C261.231 90.8581 261.327 91.3375 261.327 91.9175V96.25H260.278V91.9888C260.278 91.4531 260.139 91.0356 259.861 90.7369C259.582 90.435 259.2 90.2844 258.713 90.2844C258.379 90.2844 258.079 90.3569 257.816 90.5019C257.555 90.6469 257.349 90.8581 257.198 91.1362C257.047 91.4144 256.971 91.7519 256.971 92.1488ZM266 98.9487C265.493 98.9487 265.058 98.8837 264.694 98.7537C264.329 98.6263 264.025 98.4575 263.782 98.2475C263.542 98.0406 263.351 97.8181 263.208 97.5819L264.045 96.9956C264.139 97.12 264.259 97.2619 264.404 97.4219C264.55 97.5844 264.748 97.725 265 97.8438C265.255 97.965 265.588 98.0256 266 98.0256C266.551 98.0256 267.006 97.8925 267.365 97.6262C267.723 97.36 267.902 96.9425 267.902 96.3744V94.9894H267.813C267.736 95.1138 267.627 95.2675 267.485 95.4513C267.345 95.6313 267.144 95.7925 266.88 95.935C266.619 96.0738 266.267 96.1438 265.823 96.1438C265.271 96.1438 264.776 96.0131 264.337 95.7531C263.902 95.4925 263.557 95.1138 263.302 94.6163C263.05 94.1194 262.924 93.5156 262.924 92.8056C262.924 92.1069 263.047 91.4988 263.293 90.9813C263.539 90.46 263.881 90.0575 264.32 89.7738C264.759 89.4869 265.265 89.3431 265.84 89.3431C266.285 89.3431 266.637 89.4169 266.898 89.565C267.162 89.71 267.363 89.8756 267.502 90.0619C267.644 90.2456 267.755 90.3963 267.832 90.515H267.938V89.4319H268.952V96.445C268.952 97.0312 268.818 97.5075 268.551 97.8744C268.288 98.2444 267.932 98.5156 267.485 98.6869C267.041 98.8619 266.545 98.9487 266 98.9487ZM265.965 95.2025C266.385 95.2025 266.741 95.1063 267.031 94.9138C267.322 94.7213 267.542 94.445 267.694 94.0837C267.845 93.7225 267.921 93.2906 267.921 92.7875C267.921 92.2963 267.846 91.8631 267.698 91.4869C267.55 91.1113 267.331 90.8169 267.041 90.6038C266.75 90.3906 266.392 90.2844 265.965 90.2844C265.52 90.2844 265.15 90.3963 264.853 90.6213C264.56 90.8463 264.339 91.1481 264.191 91.5269C264.046 91.9056 263.973 92.3263 263.973 92.7875C263.973 93.2613 264.047 93.68 264.195 94.0438C264.347 94.405 264.569 94.6888 264.862 94.8963C265.159 95.1006 265.526 95.2025 265.965 95.2025ZM275.175 93.4625V89.4319H276.224V96.25H275.175V95.0956H275.104C274.943 95.4419 274.695 95.7369 274.357 95.9794C274.019 96.2188 273.592 96.3388 273.076 96.3388C272.65 96.3388 272.271 96.2456 271.939 96.0594C271.607 95.87 271.346 95.5856 271.156 95.2069C270.967 94.825 270.872 94.3444 270.872 93.7644V89.4319H271.921V93.6931C271.921 94.1906 272.06 94.5869 272.338 94.8825C272.62 95.1788 272.979 95.3269 273.414 95.3269C273.675 95.3269 273.941 95.26 274.21 95.1269C274.483 94.9938 274.711 94.7894 274.894 94.5144C275.082 94.2394 275.175 93.8887 275.175 93.4625ZM278.145 96.25V89.4319H279.158V90.4619H279.23C279.354 90.1244 279.579 89.8506 279.905 89.6406C280.231 89.4306 280.599 89.325 281.008 89.325C281.085 89.325 281.181 89.3269 281.296 89.33C281.412 89.3325 281.5 89.3369 281.559 89.3431V90.4081C281.524 90.3994 281.442 90.3863 281.314 90.3681C281.19 90.3475 281.058 90.3375 280.919 90.3375C280.587 90.3375 280.291 90.4069 280.03 90.5462C279.772 90.6819 279.568 90.8713 279.416 91.1144C279.268 91.3538 279.194 91.6275 279.194 91.9356V96.25H278.145ZM283.851 87.1594V96.25H282.802V87.1594H283.851ZM288.351 96.3744C287.752 96.3744 287.236 96.265 286.804 96.0456C286.371 95.8269 286.038 95.5262 285.804 95.145C285.57 94.7631 285.453 94.3263 285.453 93.835C285.453 93.4563 285.533 93.1206 285.692 92.8275C285.856 92.5319 286.079 92.2581 286.364 92.0063C286.651 91.7519 286.982 91.4975 287.355 91.2431L288.671 90.2662C288.929 90.0975 289.135 89.9169 289.289 89.725C289.446 89.5325 289.525 89.2806 289.525 88.97C289.525 88.7394 289.422 88.5156 289.218 88.3C289.016 88.0838 288.751 87.9756 288.422 87.9756C288.191 87.9756 287.986 88.035 287.808 88.1531C287.634 88.2688 287.496 88.4169 287.395 88.5975C287.297 88.775 287.248 88.9581 287.248 89.1475C287.248 89.3606 287.307 89.5769 287.422 89.7956C287.541 90.0119 287.69 90.2338 287.871 90.4619C288.054 90.6863 288.244 90.9175 288.44 91.1544L292.618 96.25H291.356L287.906 92.095C287.586 91.7106 287.296 91.3612 287.035 91.0475C286.775 90.7337 286.567 90.4244 286.413 90.12C286.259 89.815 286.182 89.485 286.182 89.13C286.182 88.7219 286.272 88.3638 286.453 88.0556C286.637 87.745 286.893 87.5037 287.222 87.3325C287.554 87.1575 287.942 87.07 288.386 87.07C288.843 87.07 289.235 87.1594 289.565 87.3369C289.893 87.5113 290.147 87.7438 290.324 88.0338C290.502 88.3206 290.591 88.6325 290.591 88.97C290.591 89.405 290.483 89.7825 290.267 90.1019C290.05 90.4219 289.755 90.7194 289.382 90.9944L287.569 92.3438C287.159 92.6456 286.883 92.9388 286.738 93.2225C286.592 93.5069 286.519 93.7106 286.519 93.835C286.519 94.1194 286.594 94.3844 286.742 94.63C286.89 94.8756 287.099 95.0737 287.368 95.2244C287.638 95.3756 287.954 95.4513 288.315 95.4513C288.659 95.4513 288.994 95.3787 289.32 95.2337C289.646 95.0856 289.941 94.8725 290.204 94.5944C290.471 94.3163 290.682 93.9819 290.836 93.5913C290.993 93.2006 291.071 92.7613 291.071 92.2725H292.085C292.085 92.8763 292.015 93.3694 291.876 93.7506C291.736 94.1325 291.579 94.4313 291.405 94.6475C291.23 94.8638 291.089 95.025 290.982 95.1313C290.946 95.1756 290.914 95.22 290.885 95.2644C290.855 95.3088 290.822 95.3531 290.787 95.3975C290.493 95.7263 290.123 95.9719 289.675 96.1344C289.228 96.2944 288.787 96.3744 288.351 96.3744ZM293.779 96.25V89.4319H294.793V90.4969H294.882C295.024 90.1331 295.254 89.8506 295.57 89.6494C295.888 89.445 296.269 89.3431 296.713 89.3431C297.163 89.3431 297.538 89.445 297.838 89.6494C298.14 89.8506 298.375 90.1331 298.544 90.4969H298.616C298.79 90.145 299.053 89.8656 299.402 89.6581C299.752 89.4481 300.171 89.3431 300.66 89.3431C301.271 89.3431 301.77 89.5338 302.158 89.9156C302.546 90.2944 302.74 90.885 302.74 91.6869V96.25H301.691V91.6869C301.691 91.1838 301.554 90.8244 301.278 90.6081C301.002 90.3919 300.678 90.2844 300.304 90.2844C299.824 90.2844 299.453 90.4294 299.189 90.7194C298.925 91.0063 298.794 91.37 298.794 91.8112V96.25H297.726V91.58C297.726 91.1925 297.601 90.8806 297.348 90.6438C297.097 90.4038 296.772 90.2844 296.375 90.2844C296.102 90.2844 295.848 90.3569 295.61 90.5019C295.376 90.6469 295.187 90.8481 295.042 91.105C294.899 91.36 294.828 91.6544 294.828 91.9888V96.25H293.779ZM308.961 93.4625V89.4319H310.01V96.25H308.961V95.0956H308.89C308.73 95.4419 308.481 95.7369 308.143 95.9794C307.806 96.2188 307.379 96.3388 306.863 96.3388C306.437 96.3388 306.057 96.2456 305.726 96.0594C305.393 95.87 305.133 95.5856 304.943 95.2069C304.754 94.825 304.658 94.3444 304.658 93.7644V89.4319H305.707V93.6931C305.707 94.1906 305.847 94.5869 306.125 94.8825C306.407 95.1788 306.766 95.3269 307.201 95.3269C307.462 95.3269 307.727 95.26 307.997 95.1269C308.27 94.9938 308.497 94.7894 308.681 94.5144C308.868 94.2394 308.961 93.8887 308.961 93.4625ZM312.98 87.1594V96.25H311.932V87.1594H312.98ZM317.872 89.4319V90.3194H314.333V89.4319H317.872ZM315.364 87.7981H316.413V94.2969C316.413 94.5925 316.457 94.815 316.542 94.9625C316.631 95.1075 316.744 95.2056 316.88 95.2556C317.019 95.3031 317.166 95.3269 317.32 95.3269C317.436 95.3269 317.531 95.3206 317.604 95.3088C317.679 95.2944 317.738 95.2825 317.783 95.2738L317.996 96.2144C317.925 96.2412 317.825 96.2675 317.698 96.2944C317.571 96.3238 317.409 96.3388 317.213 96.3388C316.917 96.3388 316.627 96.275 316.342 96.1481C316.061 96.0206 315.827 95.8269 315.64 95.5663C315.456 95.3063 315.364 94.9775 315.364 94.5813V87.7981ZM319.449 96.25V89.4319H320.498V96.25H319.449ZM319.983 88.2956C319.778 88.2956 319.602 88.2256 319.454 88.0869C319.309 87.9475 319.236 87.7806 319.236 87.585C319.236 87.39 319.309 87.2225 319.454 87.0838C319.602 86.9444 319.778 86.875 319.983 86.875C320.187 86.875 320.362 86.9444 320.507 87.0838C320.655 87.2225 320.729 87.39 320.729 87.585C320.729 87.7806 320.655 87.9475 320.507 88.0869C320.362 88.2256 320.187 88.2956 319.983 88.2956ZM322.42 98.8069V89.4319H323.433V90.515H323.558C323.635 90.3963 323.742 90.2456 323.878 90.0619C324.017 89.8756 324.215 89.71 324.473 89.565C324.734 89.4169 325.087 89.3431 325.531 89.3431C326.106 89.3431 326.613 89.4869 327.052 89.7738C327.49 90.0606 327.832 90.4675 328.078 90.9944C328.324 91.5213 328.447 92.1425 328.447 92.8588C328.447 93.5806 328.324 94.2069 328.078 94.7363C327.832 95.2631 327.492 95.6712 327.056 95.9612C326.62 96.2487 326.118 96.3919 325.549 96.3919C325.11 96.3919 324.759 96.3194 324.496 96.1744C324.232 96.0269 324.029 95.8594 323.887 95.6731C323.744 95.4837 323.635 95.3269 323.558 95.2025H323.469V98.8069H322.42ZM323.451 92.8406C323.451 93.3556 323.526 93.81 323.678 94.2038C323.829 94.5944 324.049 94.9006 324.34 95.1225C324.63 95.3413 324.986 95.4513 325.407 95.4513C325.845 95.4513 326.211 95.3356 326.505 95.105C326.801 94.8713 327.024 94.5575 327.171 94.1638C327.323 93.7669 327.398 93.3263 327.398 92.8406C327.398 92.3613 327.324 91.9294 327.176 91.545C327.03 91.1569 326.81 90.8506 326.513 90.6256C326.22 90.3981 325.851 90.2844 325.407 90.2844C324.98 90.2844 324.621 90.3919 324.331 90.6081C324.041 90.8213 323.822 91.12 323.673 91.505C323.525 91.8863 323.451 92.3319 323.451 92.8406ZM332.057 96.41C331.624 96.41 331.231 96.3281 330.879 96.1656C330.526 96 330.246 95.7619 330.038 95.4513C329.831 95.1375 329.727 94.7588 329.727 94.3144C329.727 93.9238 329.804 93.6075 329.958 93.365C330.113 93.1194 330.319 92.9269 330.577 92.7875C330.834 92.6488 331.119 92.545 331.43 92.4769C331.744 92.4056 332.059 92.3494 332.377 92.3081C332.791 92.255 333.128 92.215 333.385 92.1881C333.646 92.1588 333.836 92.11 333.954 92.0419C334.076 91.9738 334.137 91.8556 334.137 91.6869V91.6513C334.137 91.2131 334.017 90.8731 333.777 90.6306C333.54 90.3875 333.18 90.2662 332.696 90.2662C332.196 90.2662 331.803 90.3756 331.518 90.595C331.234 90.8137 331.034 91.0475 330.919 91.2963L329.923 90.9412C330.101 90.5269 330.338 90.2044 330.634 89.9731C330.933 89.7394 331.259 89.5769 331.612 89.485C331.968 89.3906 332.317 89.3431 332.661 89.3431C332.88 89.3431 333.132 89.3694 333.417 89.4231C333.704 89.4731 333.981 89.5781 334.248 89.7381C334.518 89.8981 334.741 90.1394 334.919 90.4619C335.097 90.7844 335.186 91.2162 335.186 91.7575V96.25H334.137V95.3269H334.083C334.013 95.4744 333.894 95.6331 333.728 95.8019C333.562 95.9706 333.341 96.1138 333.066 96.2325C332.79 96.3506 332.453 96.41 332.057 96.41ZM332.216 95.4688C332.631 95.4688 332.981 95.3875 333.266 95.2244C333.553 95.0619 333.769 94.8519 333.914 94.5944C334.063 94.3369 334.137 94.0662 334.137 93.7819V92.8231C334.093 92.8763 333.994 92.925 333.844 92.9694C333.695 93.0113 333.523 93.0481 333.328 93.0806C333.135 93.11 332.947 93.1369 332.763 93.1606C332.582 93.1813 332.436 93.1988 332.323 93.2138C332.05 93.2494 331.796 93.3069 331.559 93.3869C331.324 93.4638 331.135 93.5806 330.99 93.7375C330.848 93.8912 330.776 94.1013 330.776 94.3681C330.776 94.7319 330.911 95.0069 331.181 95.1938C331.453 95.3769 331.799 95.4688 332.216 95.4688ZM337.101 96.25V89.4319H338.114V90.4619H338.185C338.31 90.1244 338.535 89.8506 338.861 89.6406C339.186 89.4306 339.554 89.325 339.963 89.325C340.04 89.325 340.137 89.3269 340.252 89.33C340.367 89.3325 340.455 89.3369 340.515 89.3431V90.4081C340.479 90.3994 340.398 90.3863 340.27 90.3681C340.145 90.3475 340.013 90.3375 339.874 90.3375C339.543 90.3375 339.246 90.4069 338.985 90.5462C338.727 90.6819 338.523 90.8713 338.372 91.1144C338.224 91.3538 338.149 91.6275 338.149 91.9356V96.25H337.101ZM343.767 96.41C343.334 96.41 342.942 96.3281 342.589 96.1656C342.236 96 341.957 95.7619 341.749 95.4513C341.542 95.1375 341.438 94.7588 341.438 94.3144C341.438 93.9238 341.515 93.6075 341.669 93.365C341.823 93.1194 342.029 92.9269 342.287 92.7875C342.545 92.6488 342.829 92.545 343.14 92.4769C343.454 92.4056 343.77 92.3494 344.087 92.3081C344.502 92.255 344.838 92.215 345.096 92.1881C345.357 92.1588 345.547 92.11 345.665 92.0419C345.786 91.9738 345.848 91.8556 345.848 91.6869V91.6513C345.848 91.2131 345.727 90.8731 345.487 90.6306C345.25 90.3875 344.89 90.2662 344.407 90.2662C343.906 90.2662 343.514 90.3756 343.229 90.595C342.945 90.8137 342.745 91.0475 342.629 91.2963L341.634 90.9412C341.811 90.5269 342.048 90.2044 342.345 89.9731C342.644 89.7394 342.97 89.5769 343.322 89.485C343.678 89.3906 344.028 89.3431 344.372 89.3431C344.591 89.3431 344.842 89.3694 345.127 89.4231C345.414 89.4731 345.692 89.5781 345.958 89.7381C346.228 89.8981 346.451 90.1394 346.63 90.4619C346.808 90.7844 346.896 91.2162 346.896 91.7575V96.25H345.848V95.3269H345.794C345.723 95.4744 345.604 95.6331 345.438 95.8019C345.272 95.9706 345.051 96.1138 344.776 96.2325C344.501 96.3506 344.164 96.41 343.767 96.41ZM343.927 95.4688C344.342 95.4688 344.692 95.3875 344.976 95.2244C345.264 95.0619 345.48 94.8519 345.625 94.5944C345.773 94.3369 345.848 94.0662 345.848 93.7819V92.8231C345.803 92.8763 345.705 92.925 345.554 92.9694C345.406 93.0113 345.234 93.0481 345.038 93.0806C344.846 93.11 344.657 93.1369 344.474 93.1606C344.293 93.1813 344.146 93.1988 344.034 93.2138C343.761 93.2494 343.506 93.3069 343.269 93.3869C343.035 93.4638 342.845 93.5806 342.7 93.7375C342.558 93.8912 342.487 94.1013 342.487 94.3681C342.487 94.7319 342.622 95.0069 342.892 95.1938C343.164 95.3769 343.509 95.4688 343.927 95.4688ZM348.811 96.25V89.4319H349.824V90.4969H349.913C350.056 90.1331 350.285 89.8506 350.602 89.6494C350.919 89.445 351.3 89.3431 351.744 89.3431C352.195 89.3431 352.57 89.445 352.869 89.6494C353.171 89.8506 353.407 90.1331 353.576 90.4969H353.647C353.822 90.145 354.084 89.8656 354.434 89.6581C354.784 89.4481 355.203 89.3431 355.692 89.3431C356.303 89.3431 356.801 89.5338 357.19 89.9156C357.578 90.2944 357.772 90.885 357.772 91.6869V96.25H356.723V91.6869C356.723 91.1838 356.585 90.8244 356.309 90.6081C356.034 90.3919 355.71 90.2844 355.336 90.2844C354.856 90.2844 354.484 90.4294 354.22 90.7194C353.957 91.0063 353.825 91.37 353.825 91.8112V96.25H352.758V91.58C352.758 91.1925 352.632 90.8806 352.38 90.6438C352.129 90.4038 351.804 90.2844 351.407 90.2844C351.134 90.2844 350.879 90.3569 350.642 90.5019C350.408 90.6469 350.219 90.8481 350.073 91.105C349.931 91.36 349.86 91.6544 349.86 91.9888V96.25H348.811ZM364.526 90.9587L363.584 91.225C363.525 91.0681 363.437 90.9156 363.322 90.7681C363.209 90.6169 363.055 90.4925 362.86 90.395C362.664 90.2975 362.413 90.2487 362.108 90.2487C361.691 90.2487 361.342 90.345 361.063 90.5369C360.788 90.7262 360.65 90.9675 360.65 91.2606C360.65 91.5213 360.745 91.7269 360.935 91.8775C361.124 92.0288 361.421 92.1544 361.824 92.255L362.837 92.5037C363.448 92.6512 363.902 92.8781 364.202 93.1825C364.501 93.4844 364.651 93.8738 364.651 94.35C364.651 94.7406 364.538 95.09 364.313 95.3975C364.091 95.7056 363.78 95.9481 363.38 96.1256C362.979 96.3031 362.514 96.3919 361.984 96.3919C361.288 96.3919 360.711 96.2413 360.255 95.9394C359.799 95.6375 359.509 95.1963 359.388 94.6163L360.384 94.3681C360.478 94.735 360.658 95.01 360.921 95.1938C361.188 95.3769 361.537 95.4688 361.966 95.4688C362.455 95.4688 362.843 95.365 363.131 95.1581C363.421 94.9481 363.566 94.6963 363.566 94.4031C363.566 94.1669 363.483 93.9681 363.317 93.8087C363.151 93.6456 362.897 93.5244 362.553 93.4444L361.415 93.1781C360.789 93.03 360.331 92.8012 360.037 92.49C359.747 92.1762 359.601 91.7844 359.601 91.3138C359.601 90.9294 359.71 90.5887 359.926 90.2931C360.145 89.9969 360.443 89.765 360.819 89.5963C361.199 89.4275 361.628 89.3431 362.108 89.3431C362.784 89.3431 363.314 89.4912 363.7 89.7869C364.088 90.0831 364.364 90.4737 364.526 90.9587ZM366.995 96.3213C366.775 96.3213 366.587 96.2425 366.43 96.0856C366.273 95.9288 366.194 95.7413 366.194 95.5219C366.194 95.3031 366.273 95.115 366.43 94.9581C366.587 94.8013 366.775 94.7231 366.995 94.7231C367.214 94.7231 367.402 94.8013 367.559 94.9581C367.716 95.115 367.795 95.3031 367.795 95.5219C367.795 95.6669 367.758 95.8 367.683 95.9213C367.612 96.0431 367.516 96.1406 367.395 96.2144C367.276 96.2856 367.142 96.3213 366.995 96.3213ZM370.441 96.3213C370.222 96.3213 370.034 96.2425 369.877 96.0856C369.72 95.9288 369.641 95.7413 369.641 95.5219C369.641 95.3031 369.72 95.115 369.877 94.9581C370.034 94.8013 370.222 94.7231 370.441 94.7231C370.661 94.7231 370.849 94.8013 371.006 94.9581C371.163 95.115 371.242 95.3031 371.242 95.5219C371.242 95.6669 371.205 95.8 371.13 95.9213C371.06 96.0431 370.963 96.1406 370.842 96.2144C370.723 96.2856 370.59 96.3213 370.441 96.3213Z" fill="black"/>
<path d="M29.4141 94.3735C31.7468 94.3735 33.6378 92.4851 33.6378 90.1556C33.6378 87.8262 31.7468 85.9377 29.4141 85.9377C27.0814 85.9377 25.1904 87.8262 25.1904 90.1556C25.1904 92.4851 27.0814 94.3735 29.4141 94.3735Z" stroke="black" stroke-width="3"/>
<path d="M20.9697 99.1669L26.3954 93.0744" stroke="black" stroke-width="4"/>
<path d="M206.647 30.6822L229.637 2.68348" stroke="#3646F4" stroke-width="7"/>
<path d="M230.486 30.5036L207.495 2.50491" stroke="#3646F4" stroke-width="8"/>
<path d="M439.353 230.625H15.6465C7.00517 230.625 0 237.621 0 246.25V324.375C0 333.004 7.00517 340 15.6465 340H439.353C447.995 340 455 333.004 455 324.375V246.25C455 237.621 447.995 230.625 439.353 230.625Z" fill="#EDEDED"/>
<path d="M13.7689 251.875C10.3123 251.875 7.51027 249.217 7.51027 245.938C7.51027 242.658 10.3123 240 13.7689 240C17.2254 240 20.0275 242.658 20.0275 245.938C20.0275 249.217 17.2254 251.875 13.7689 251.875Z" fill="#FF0C0C"/>
<path d="M30.3541 251.875C27.0704 251.875 24.4085 249.217 24.4085 245.938C24.4085 242.658 27.0704 240 30.3541 240C33.6378 240 36.2998 242.658 36.2998 245.938C36.2998 249.217 33.6378 251.875 30.3541 251.875Z" fill="#FFDC16"/>
<path d="M46.9395 251.875C43.483 251.875 40.6809 249.217 40.6809 245.938C40.6809 242.658 43.483 240 46.9395 240C50.3961 240 53.1981 242.658 53.1981 245.938C53.1981 249.217 50.3961 251.875 46.9395 251.875Z" fill="#00FF26"/>
<path d="M424.646 271.875H30.9801C19.7464 271.875 10.6396 280.969 10.6396 292.188C10.6396 303.406 19.7464 312.5 30.9801 312.5H424.646C435.88 312.5 444.986 303.406 444.986 292.188C444.986 280.969 435.88 271.875 424.646 271.875Z" fill="#D9D9D9"/>
<path d="M45.1934 291.524V295.625H44.1444V286.534H45.1934V289.872H45.2823C45.4424 289.52 45.6824 289.241 46.0024 289.033C46.3254 288.823 46.7551 288.718 47.2915 288.718C47.7567 288.718 48.1642 288.811 48.5138 288.997C48.8635 289.181 49.1347 289.464 49.3273 289.846C49.5229 290.224 49.6207 290.707 49.6207 291.292V295.625H48.5717V291.364C48.5717 290.822 48.4309 290.403 48.1493 290.107C47.8708 289.809 47.4841 289.659 46.9892 289.659C46.6455 289.659 46.3373 289.732 46.0647 289.877C45.795 290.022 45.5816 290.233 45.4245 290.511C45.2705 290.789 45.1934 291.127 45.1934 291.524ZM54.5091 288.807V289.694H50.9708V288.807H54.5091ZM52.0021 287.173H53.0511V293.672C53.0511 293.967 53.0941 294.19 53.18 294.337C53.2689 294.482 53.3815 294.581 53.5178 294.631C53.6571 294.678 53.8038 294.702 53.9579 294.702C54.0735 294.702 54.1683 294.696 54.2424 294.684C54.3165 294.669 54.3757 294.657 54.4202 294.649L54.6336 295.589C54.5624 295.616 54.4631 295.643 54.3357 295.669C54.2083 295.699 54.0468 295.714 53.8512 295.714C53.5549 295.714 53.2645 295.65 52.98 295.523C52.6985 295.396 52.4644 295.202 52.2777 294.941C52.094 294.681 52.0021 294.352 52.0021 293.956V287.173ZM59.0563 288.807V289.694H55.5181V288.807H59.0563ZM56.5494 287.173H57.5984V293.672C57.5984 293.967 57.6414 294.19 57.7273 294.337C57.8162 294.482 57.9288 294.581 58.0651 294.631C58.2044 294.678 58.351 294.702 58.5052 294.702C58.6207 294.702 58.7155 294.696 58.7897 294.684C58.8638 294.669 58.923 294.657 58.9675 294.649L59.1808 295.589C59.1097 295.616 59.0105 295.643 58.883 295.669C58.7556 295.699 58.5941 295.714 58.3985 295.714C58.1021 295.714 57.8117 295.65 57.5273 295.523C57.2457 295.396 57.0116 295.202 56.8249 294.941C56.6412 294.681 56.5494 294.352 56.5494 293.956V287.173ZM60.6343 298.182V288.807H61.6478V289.89H61.7722C61.8493 289.771 61.956 289.621 62.0923 289.437C62.2316 289.251 62.4302 289.085 62.6879 288.94C62.9489 288.792 63.3013 288.718 63.7456 288.718C64.3208 288.718 64.8278 288.862 65.2659 289.149C65.7046 289.436 66.0469 289.842 66.2929 290.369C66.5389 290.896 66.6615 291.517 66.6615 292.234C66.6615 292.956 66.5389 293.582 66.2929 294.111C66.0469 294.638 65.7058 295.046 65.2702 295.336C64.8346 295.624 64.3327 295.767 63.7638 295.767C63.3251 295.767 62.974 295.694 62.7105 295.549C62.4464 295.402 62.2435 295.234 62.1012 295.048C61.9589 294.859 61.8493 294.702 61.7722 294.577H61.6834V298.182H60.6343ZM61.6656 292.216C61.6656 292.731 61.7411 293.185 61.8923 293.579C62.0434 293.969 62.2642 294.276 62.5546 294.498C62.845 294.716 63.2005 294.826 63.6211 294.826C64.0598 294.826 64.426 294.711 64.7195 294.48C65.0155 294.246 65.2377 293.932 65.386 293.539C65.5375 293.142 65.6126 292.701 65.6126 292.216C65.6126 291.736 65.5387 291.304 65.3904 290.92C65.2452 290.532 65.0243 290.226 64.7282 290.001C64.4347 289.773 64.0661 289.659 63.6211 289.659C63.1949 289.659 62.8363 289.767 62.5457 289.983C62.2553 290.196 62.036 290.495 61.8878 290.88C61.7396 291.261 61.6656 291.707 61.6656 292.216ZM73.0985 290.334L72.1559 290.6C72.0965 290.443 72.0089 290.291 71.8937 290.143C71.7811 289.992 71.6271 289.867 71.4312 289.77C71.2359 289.672 70.9856 289.624 70.6802 289.624C70.2621 289.624 69.9141 289.72 69.6356 289.912C69.3602 290.101 69.2219 290.342 69.2219 290.636C69.2219 290.896 69.317 291.102 69.5067 291.252C69.6963 291.404 69.9923 291.529 70.3954 291.63L71.4093 291.879C72.0195 292.026 72.4745 292.253 72.7737 292.557C73.0728 292.859 73.2224 293.249 73.2224 293.725C73.2224 294.116 73.1098 294.465 72.8851 294.772C72.6623 295.081 72.3512 295.323 71.9513 295.501C71.5514 295.678 71.0864 295.767 70.5556 295.767C69.859 295.767 69.2826 295.616 68.8264 295.314C68.3701 295.012 68.081 294.571 67.9596 293.991L68.9553 293.743C69.0504 294.11 69.2294 294.385 69.4935 294.569C69.7602 294.752 70.1081 294.844 70.5381 294.844C71.0269 294.844 71.4149 294.74 71.7022 294.533C71.9926 294.323 72.1378 294.071 72.1378 293.778C72.1378 293.542 72.0552 293.343 71.8893 293.184C71.7235 293.021 71.4681 292.899 71.1245 292.819L69.9867 292.553C69.3615 292.405 68.9021 292.176 68.6086 291.865C68.3182 291.551 68.173 291.159 68.173 290.689C68.173 290.304 68.2812 289.964 68.4978 289.668C68.7168 289.372 69.0148 289.14 69.3909 288.971C69.7702 288.802 70.2001 288.718 70.6802 288.718C71.3555 288.718 71.8862 288.866 72.2711 289.162C72.6598 289.458 72.9351 289.849 73.0985 290.334ZM75.5663 295.696C75.3472 295.696 75.1588 295.617 75.0017 295.461C74.8446 295.304 74.7664 295.116 74.7664 294.897C74.7664 294.678 74.8446 294.49 75.0017 294.333C75.1588 294.176 75.3472 294.098 75.5663 294.098C75.7853 294.098 75.9737 294.176 76.1308 294.333C76.2879 294.49 76.3661 294.678 76.3661 294.897C76.3661 295.042 76.3292 295.175 76.2553 295.296C76.184 295.418 76.0876 295.516 75.9662 295.589C75.8479 295.661 75.7146 295.696 75.5663 295.696ZM75.5663 290.636C75.3472 290.636 75.1588 290.557 75.0017 290.401C74.8446 290.244 74.7664 290.056 74.7664 289.837C74.7664 289.618 74.8446 289.43 75.0017 289.273C75.1588 289.116 75.3472 289.037 75.5663 289.037C75.7853 289.037 75.9737 289.116 76.1308 289.273C76.2879 289.43 76.3661 289.618 76.3661 289.837C76.3661 289.982 76.3292 290.115 76.2553 290.236C76.184 290.357 76.0876 290.455 75.9662 290.529C75.8479 290.6 75.7146 290.636 75.5663 290.636ZM81.4669 286.108L78.5335 296.992H77.5734L80.5068 286.108H81.4669ZM85.9286 286.108L82.9952 296.992H82.0351L84.9685 286.108H85.9286ZM89.946 295.767C89.3058 295.767 88.755 295.616 88.2925 295.314C87.83 295.012 87.4745 294.597 87.2254 294.067C86.9769 293.537 86.8524 292.932 86.8524 292.251C86.8524 291.559 86.9794 290.948 87.2348 290.418C87.492 289.886 87.8506 289.47 88.31 289.171C88.7725 288.869 89.312 288.718 89.9285 288.718C90.4085 288.718 90.841 288.807 91.2259 288.984C91.6114 289.162 91.9269 289.411 92.1728 289.73C92.4188 290.05 92.5715 290.422 92.6309 290.849H91.582C91.5019 290.538 91.3242 290.262 91.0481 290.023C90.7759 289.781 90.4085 289.659 89.946 289.659C89.5373 289.659 89.1787 289.766 88.8702 289.979C88.5647 290.189 88.3263 290.486 88.1548 290.871C87.9858 291.252 87.9013 291.701 87.9013 292.216C87.9013 292.743 87.9839 293.201 88.1504 293.592C88.3188 293.982 88.556 294.286 88.8614 294.502C89.1693 294.718 89.5311 294.826 89.946 294.826C90.2189 294.826 90.4661 294.779 90.6883 294.684C90.9105 294.589 91.0988 294.453 91.2528 294.276C91.4068 294.098 91.5163 293.885 91.582 293.636H92.6309C92.5715 294.039 92.425 294.401 92.191 294.724C91.9594 295.044 91.6527 295.298 91.2703 295.487C90.8911 295.674 90.4498 295.767 89.946 295.767ZM95.2132 286.534V295.625H94.1643V286.534H95.2132ZM97.1346 295.625V288.807H98.1836V295.625H97.1346ZM97.6679 287.671C97.4638 287.671 97.2873 287.601 97.139 287.462C96.9938 287.322 96.9212 287.156 96.9212 286.96C96.9212 286.765 96.9938 286.598 97.139 286.459C97.2873 286.319 97.4638 286.25 97.6679 286.25C97.8725 286.25 98.0471 286.319 98.1923 286.459C98.3407 286.598 98.4151 286.765 98.4151 286.96C98.4151 287.156 98.3407 287.322 98.1923 287.462C98.0471 287.601 97.8725 287.671 97.6679 287.671ZM100.105 298.182V288.807H101.118V289.89H101.243C101.32 289.771 101.427 289.621 101.563 289.437C101.702 289.251 101.901 289.085 102.158 288.94C102.419 288.792 102.772 288.718 103.217 288.718C103.791 288.718 104.298 288.862 104.737 289.149C105.175 289.436 105.517 289.842 105.763 290.369C106.009 290.896 106.133 291.517 106.133 292.234C106.133 292.956 106.009 293.582 105.763 294.111C105.517 294.638 105.177 295.046 104.741 295.336C104.306 295.624 103.803 295.767 103.234 295.767C102.796 295.767 102.444 295.694 102.181 295.549C101.917 295.402 101.714 295.234 101.572 295.048C101.43 294.859 101.32 294.702 101.243 294.577H101.154V298.182H100.105ZM101.136 292.216C101.136 292.731 101.212 293.185 101.363 293.579C101.514 293.969 101.735 294.276 102.025 294.498C102.316 294.716 102.672 294.826 103.092 294.826C103.531 294.826 103.896 294.711 104.19 294.48C104.487 294.246 104.709 293.932 104.856 293.539C105.008 293.142 105.084 292.701 105.084 292.216C105.084 291.736 105.009 291.304 104.861 290.92C104.716 290.532 104.495 290.226 104.199 290.001C103.906 289.773 103.537 289.659 103.092 289.659C102.665 289.659 102.307 289.767 102.016 289.983C101.726 290.196 101.507 290.495 101.359 290.88C101.21 291.261 101.136 291.707 101.136 292.216ZM112.036 292.837V288.807H113.085V295.625H112.036V294.471H111.964C111.804 294.817 111.556 295.112 111.218 295.354C110.88 295.594 110.453 295.714 109.937 295.714C109.511 295.714 109.132 295.621 108.799 295.434C108.468 295.245 108.207 294.961 108.017 294.582C107.827 294.2 107.733 293.719 107.733 293.139V288.807H108.782V293.068C108.782 293.566 108.921 293.962 109.199 294.257C109.481 294.554 109.84 294.702 110.275 294.702C110.536 294.702 110.802 294.635 111.071 294.502C111.344 294.369 111.572 294.164 111.755 293.889C111.942 293.614 112.036 293.264 112.036 292.837ZM115.006 295.625V288.807H116.019V289.837H116.091C116.215 289.499 116.44 289.226 116.766 289.016C117.092 288.806 117.459 288.7 117.869 288.7C117.946 288.7 118.042 288.702 118.157 288.705C118.273 288.707 118.361 288.712 118.419 288.718V289.783C118.384 289.774 118.302 289.761 118.175 289.743C118.051 289.722 117.919 289.712 117.78 289.712C117.448 289.712 117.152 289.782 116.891 289.921C116.633 290.057 116.428 290.246 116.277 290.489C116.129 290.729 116.055 291.002 116.055 291.311V295.625H115.006ZM120.712 286.534V295.625H119.663V286.534H120.712ZM123.398 295.696C123.179 295.696 122.991 295.617 122.834 295.461C122.677 295.304 122.598 295.116 122.598 294.897C122.598 294.678 122.677 294.49 122.834 294.333C122.991 294.176 123.179 294.098 123.398 294.098C123.617 294.098 123.806 294.176 123.963 294.333C124.12 294.49 124.198 294.678 124.198 294.897C124.198 295.042 124.161 295.175 124.087 295.296C124.016 295.418 123.92 295.516 123.798 295.589C123.68 295.661 123.547 295.696 123.398 295.696ZM126.081 295.625V288.807H127.13V295.625H126.081ZM126.614 287.671C126.41 287.671 126.233 287.601 126.085 287.462C125.94 287.322 125.867 287.156 125.867 286.96C125.867 286.765 125.94 286.598 126.085 286.459C126.233 286.319 126.41 286.25 126.614 286.25C126.819 286.25 126.993 286.319 127.138 286.459C127.287 286.598 127.361 286.765 127.361 286.96C127.361 287.156 127.287 287.322 127.138 287.462C126.993 287.601 126.819 287.671 126.614 287.671ZM130.1 291.524V295.625H129.051V288.807H130.064V289.872H130.154C130.313 289.526 130.556 289.247 130.882 289.037C131.208 288.824 131.629 288.718 132.145 288.718C132.607 288.718 133.011 288.813 133.358 289.002C133.705 289.189 133.975 289.472 134.167 289.854C134.36 290.233 134.457 290.712 134.457 291.292V295.625H133.407V291.364C133.407 290.828 133.268 290.411 132.99 290.112C132.711 289.81 132.329 289.659 131.842 289.659C131.507 289.659 131.208 289.732 130.945 289.877C130.684 290.022 130.478 290.233 130.327 290.511C130.176 290.789 130.1 291.127 130.1 291.524ZM139.591 286.108L136.658 296.992H135.698L138.631 286.108H139.591ZM141.617 288.807L143.253 291.594L144.889 288.807H146.098L143.893 292.216L146.098 295.625H144.889L143.253 292.979L141.617 295.625H140.408L142.577 292.216L140.408 288.807H141.617ZM148.27 298.182C148.093 298.182 147.934 298.167 147.795 298.137C147.655 298.111 147.559 298.084 147.506 298.057L147.772 297.134C148.027 297.199 148.252 297.223 148.448 297.205C148.644 297.188 148.817 297.1 148.968 296.943C149.122 296.789 149.263 296.539 149.39 296.193L149.586 295.661L147.061 288.807H148.199L150.084 294.24H150.155L152.039 288.807H153.178L150.28 296.619C150.149 296.971 149.987 297.263 149.795 297.494C149.602 297.727 149.378 297.901 149.124 298.013C148.872 298.126 148.587 298.182 148.27 298.182ZM154.366 295.625V294.826L158.243 289.854V289.783H154.491V288.807H159.594V289.641L155.825 294.577V294.649H159.719V295.625H154.366ZM163.343 295.785C162.911 295.785 162.518 295.703 162.165 295.541C161.813 295.375 161.532 295.137 161.325 294.826C161.118 294.512 161.014 294.134 161.014 293.689C161.014 293.299 161.091 292.982 161.245 292.74C161.399 292.494 161.605 292.302 161.863 292.162C162.121 292.024 162.406 291.92 162.717 291.852C163.031 291.781 163.346 291.724 163.664 291.683C164.078 291.63 164.415 291.59 164.672 291.563C164.933 291.534 165.123 291.485 165.241 291.417C165.363 291.349 165.423 291.231 165.423 291.062V291.026C165.423 290.588 165.304 290.248 165.064 290.006C164.826 289.762 164.466 289.641 163.983 289.641C163.483 289.641 163.09 289.751 162.805 289.97C162.521 290.189 162.321 290.422 162.205 290.671L161.21 290.316C161.387 289.902 161.624 289.579 161.921 289.348C162.22 289.114 162.546 288.952 162.899 288.86C163.254 288.766 163.604 288.718 163.948 288.718C164.167 288.718 164.419 288.744 164.704 288.798C164.991 288.848 165.268 288.953 165.535 289.113C165.805 289.273 166.028 289.514 166.206 289.837C166.383 290.159 166.472 290.591 166.472 291.132V295.625H165.423V294.702H165.37C165.299 294.849 165.181 295.008 165.015 295.177C164.849 295.346 164.628 295.489 164.353 295.607C164.077 295.726 163.74 295.785 163.343 295.785ZM163.503 294.844C163.918 294.844 164.268 294.762 164.552 294.599C164.84 294.437 165.056 294.227 165.201 293.969C165.35 293.712 165.423 293.441 165.423 293.157V292.198C165.379 292.251 165.281 292.3 165.131 292.344C164.982 292.386 164.81 292.423 164.615 292.456C164.422 292.485 164.234 292.512 164.05 292.536C163.869 292.556 163.722 292.574 163.61 292.589C163.337 292.624 163.083 292.682 162.846 292.762C162.611 292.839 162.422 292.956 162.277 293.112C162.135 293.266 162.063 293.476 162.063 293.743C162.063 294.107 162.198 294.382 162.467 294.569C162.74 294.752 163.085 294.844 163.503 294.844ZM171.25 295.767C170.592 295.767 170.025 295.622 169.547 295.332C169.073 295.039 168.707 294.631 168.449 294.107C168.195 293.58 168.067 292.967 168.067 292.269C168.067 291.571 168.195 290.955 168.449 290.422C168.707 289.887 169.066 289.47 169.525 289.171C169.988 288.869 170.527 288.718 171.143 288.718C171.499 288.718 171.85 288.777 172.196 288.896C172.543 289.014 172.859 289.206 173.143 289.472C173.428 289.736 173.655 290.085 173.824 290.52C173.993 290.955 174.077 291.491 174.077 292.127V292.571H168.814V291.666H173.01C173.01 291.281 172.933 290.937 172.779 290.636C172.628 290.334 172.412 290.096 172.13 289.921C171.852 289.746 171.522 289.659 171.143 289.659C170.726 289.659 170.364 289.762 170.059 289.97C169.756 290.174 169.524 290.441 169.361 290.769C169.198 291.097 169.116 291.449 169.116 291.825V292.429C169.116 292.944 169.205 293.381 169.383 293.739C169.563 294.094 169.814 294.364 170.134 294.551C170.454 294.734 170.826 294.826 171.25 294.826C171.526 294.826 171.775 294.787 171.997 294.711C172.222 294.631 172.416 294.512 172.579 294.356C172.742 294.196 172.868 293.997 172.957 293.761L173.97 294.045C173.864 294.388 173.684 294.69 173.433 294.95C173.18 295.208 172.869 295.409 172.499 295.554C172.128 295.696 171.712 295.767 171.25 295.767ZM175.815 295.625V286.534H176.864V289.89H176.953C177.03 289.771 177.136 289.621 177.273 289.437C177.412 289.251 177.611 289.085 177.869 288.94C178.13 288.792 178.482 288.718 178.926 288.718C179.502 288.718 180.008 288.862 180.447 289.149C180.885 289.436 181.228 289.842 181.474 290.369C181.72 290.896 181.842 291.517 181.842 292.234C181.842 292.956 181.72 293.582 181.474 294.111C181.228 294.638 180.887 295.046 180.451 295.336C180.015 295.624 179.513 295.767 178.945 295.767C178.506 295.767 178.155 295.694 177.891 295.549C177.627 295.402 177.424 295.234 177.282 295.048C177.14 294.859 177.03 294.702 176.953 294.577H176.828V295.625H175.815ZM176.846 292.216C176.846 292.731 176.922 293.185 177.073 293.579C177.224 293.969 177.445 294.276 177.735 294.498C178.026 294.716 178.381 294.826 178.802 294.826C179.241 294.826 179.607 294.711 179.9 294.48C180.196 294.246 180.418 293.932 180.567 293.539C180.718 293.142 180.793 292.701 180.793 292.216C180.793 291.736 180.719 291.304 180.571 290.92C180.426 290.532 180.205 290.226 179.909 290.001C179.615 289.773 179.247 289.659 178.802 289.659C178.376 289.659 178.017 289.767 177.727 289.983C177.436 290.196 177.217 290.495 177.068 290.88C176.92 291.261 176.846 291.707 176.846 292.216ZM186.221 295.767C185.581 295.767 185.03 295.616 184.567 295.314C184.105 295.012 183.749 294.597 183.5 294.067C183.252 293.537 183.127 292.932 183.127 292.251C183.127 291.559 183.254 290.948 183.51 290.418C183.767 289.886 184.125 289.47 184.585 289.171C185.047 288.869 185.587 288.718 186.203 288.718C186.683 288.718 187.116 288.807 187.501 288.984C187.886 289.162 188.202 289.411 188.448 289.73C188.694 290.05 188.846 290.422 188.906 290.849H187.857C187.777 290.538 187.599 290.262 187.323 290.023C187.051 289.781 186.683 289.659 186.221 289.659C185.812 289.659 185.453 289.766 185.145 289.979C184.84 290.189 184.601 290.486 184.43 290.871C184.261 291.252 184.176 291.701 184.176 292.216C184.176 292.743 184.259 293.201 184.425 293.592C184.594 293.982 184.831 294.286 185.136 294.502C185.445 294.718 185.806 294.826 186.221 294.826C186.494 294.826 186.741 294.779 186.963 294.684C187.185 294.589 187.374 294.453 187.528 294.276C187.682 294.098 187.792 293.885 187.857 293.636H188.906C188.846 294.039 188.7 294.401 188.466 294.724C188.234 295.044 187.927 295.298 187.546 295.487C187.166 295.674 186.725 295.767 186.221 295.767Z" fill="black"/>
<path d="M30.6658 294.999C32.9985 294.999 34.8895 293.11 34.8895 290.781C34.8895 288.451 32.9985 286.563 30.6658 286.563C28.3332 286.563 26.4421 288.451 26.4421 290.781C26.4421 293.11 28.3332 294.999 30.6658 294.999Z" stroke="black" stroke-width="3"/>
<path d="M22.2214 299.792L27.6471 293.699" stroke="black" stroke-width="4"/>
<path d="M202.312 208.683L215.455 222.433" stroke="#46A6FF" stroke-width="9"/>
<path d="M241.117 199.441L215.457 226.316" stroke="#46A6FF" stroke-width="9"/>
</g>
<defs>
<clipPath id="clip0_40_2">
<rect width="455" height="340" fill="white"/>
</clipPath>
</defs>
</svg>
