<svg width="39" height="39" viewBox="0 0 39 39" fill="none" xmlns="http://www.w3.org/2000/svg">
<g clip-path="url(#clip0_16_1817)">
<path fill-rule="evenodd" clip-rule="evenodd" d="M11.0311 24.9397L13.7884 27.5657L2.75731 38.0716L0 35.4456L11.0311 24.9397ZM25.35 23.2144C19.9738 23.2144 15.6 19.0489 15.6 13.9287C15.6 8.80857 19.9738 4.643 25.35 4.643C30.7261 4.643 35.1 8.80857 35.1 13.9287C35.1 19.0489 30.7261 23.2144 25.35 23.2144ZM25.35 0.928711C17.8113 0.928711 11.7 6.749 11.7 13.9287C11.7 21.1084 17.8113 26.9287 25.35 26.9287C32.8887 26.9287 39 21.1084 39 13.9287C39 6.749 32.8887 0.928711 25.35 0.928711Z" fill="black"/>
</g>
<defs>
<clipPath id="clip0_16_1817">
<rect width="39" height="39" fill="white"/>
</clipPath>
</defs>
</svg>
