<svg width="35" height="35" viewBox="0 0 35 35" fill="none" xmlns="http://www.w3.org/2000/svg">
<path d="M29.6769 13.0126L29.1429 12.7155C29.0601 12.6694 29.0192 12.6462 28.9791 12.6222C28.5809 12.3837 28.2453 12.0541 28.0003 11.6597C27.9756 11.62 27.9525 11.5784 27.9049 11.4962C27.8575 11.414 27.8335 11.3724 27.8113 11.3312C27.5917 10.921 27.4728 10.4638 27.4657 9.99842C27.4649 9.95163 27.4651 9.90384 27.4667 9.8088L27.4772 9.18863C27.4938 8.19619 27.5023 7.69845 27.3627 7.25173C27.2389 6.85493 27.0317 6.48948 26.7549 6.17932C26.4421 5.82873 26.0089 5.57862 25.142 5.07902L24.4218 4.66404C23.5573 4.16584 23.1249 3.91666 22.6659 3.82166C22.2599 3.73762 21.8407 3.74151 21.4362 3.83233C20.9794 3.93486 20.5524 4.19053 19.699 4.7016L19.6941 4.70392L19.1781 5.01288C19.0966 5.06174 19.0553 5.08636 19.0143 5.10909C18.6085 5.33472 18.1555 5.45948 17.6913 5.47439C17.6447 5.47589 17.597 5.47589 17.5019 5.47589C17.4074 5.47589 17.3577 5.47589 17.311 5.47439C16.8459 5.45943 16.392 5.33398 15.9855 5.10743C15.9445 5.08459 15.904 5.05977 15.8223 5.01068L15.303 4.69893C14.4437 4.18302 14.0133 3.92468 13.5541 3.82166C13.1479 3.73051 12.7274 3.72799 12.3199 3.81311C11.8597 3.90923 11.4272 4.16027 10.5621 4.66233L10.5582 4.66404L9.84707 5.0768L9.8392 5.08162C8.98193 5.57917 8.55226 5.82854 8.24206 6.1777C7.96678 6.48754 7.76103 6.85243 7.63787 7.24817C7.49866 7.69549 7.50608 8.19431 7.52285 9.19143L7.53328 9.81073C7.53486 9.9045 7.5376 9.95111 7.53691 9.99723C7.53 10.4635 7.40958 10.9217 7.1892 11.3326C7.16741 11.3733 7.14393 11.4139 7.09703 11.4951C7.05011 11.5764 7.02737 11.6168 7.00305 11.656C6.75698 12.0524 6.41978 12.384 6.01902 12.6229C5.97938 12.6466 5.9376 12.6693 5.85551 12.7148L5.32824 13.007C4.45095 13.4932 4.01241 13.7364 3.69331 14.0827C3.41101 14.389 3.19776 14.7522 3.06759 15.148C2.92044 15.5953 2.92056 16.0968 2.92285 17.0997L2.9247 17.9196C2.92696 18.9157 2.93007 19.4136 3.07755 19.8578C3.20802 20.2508 3.41972 20.6121 3.70043 20.9164C4.01773 21.2606 4.45191 21.5024 5.32253 21.9867L5.84511 22.2775C5.93406 22.3269 5.97881 22.3513 6.0217 22.3772C6.41882 22.6163 6.75338 22.9469 6.99734 23.3411C7.0237 23.3836 7.049 23.4278 7.0996 23.5163C7.14956 23.6036 7.17513 23.6472 7.19824 23.6909C7.41214 24.0959 7.52666 24.5459 7.53446 25.0038C7.53531 25.0533 7.53459 25.1033 7.53289 25.2039L7.52285 25.7982C7.50597 26.7988 7.4986 27.2996 7.63863 27.7481C7.76252 28.145 7.96956 28.5104 8.24633 28.8206C8.55917 29.1712 8.99288 29.4211 9.85989 29.9208L10.5799 30.3355C11.4445 30.8338 11.8766 31.0826 12.3356 31.1777C12.7417 31.2617 13.1609 31.2585 13.5655 31.1676C14.0228 31.065 14.4513 30.8085 15.3072 30.2958L15.8232 29.987C15.9049 29.938 15.9463 29.9135 15.9871 29.8907C16.393 29.6651 16.8455 29.5397 17.3097 29.5248C17.3564 29.5234 17.404 29.5234 17.4991 29.5234C17.5945 29.5234 17.642 29.5234 17.6889 29.5248C18.1539 29.5398 18.6094 29.6657 19.0158 29.8922C19.0515 29.9122 19.0874 29.9337 19.1502 29.9715L19.6989 30.3008C20.5583 30.8168 20.9877 31.0743 21.447 31.1774C21.8531 31.2686 22.274 31.2722 22.6816 31.1872C23.1416 31.0911 23.575 30.8395 24.4396 30.3377L25.1615 29.9187C26.0193 29.4208 26.4494 29.1712 26.7597 28.8219C27.035 28.5122 27.2411 28.1474 27.3642 27.7516C27.5024 27.3076 27.4941 26.8126 27.4775 25.8298L27.4667 25.1889C27.4651 25.0951 27.4649 25.0485 27.4657 25.0024C27.4725 24.536 27.5909 24.0777 27.8113 23.6667C27.8332 23.626 27.8568 23.585 27.9035 23.5041C27.9504 23.423 27.9748 23.3825 27.9991 23.3432C28.2451 22.9467 28.5826 22.615 28.9835 22.3759C29.0226 22.3526 29.063 22.3303 29.143 22.286L29.1458 22.2846L29.673 21.9924C30.5503 21.5063 30.9897 21.2626 31.3088 20.9164C31.5911 20.6102 31.8041 20.2473 31.9343 19.8517C32.0806 19.4071 32.0794 18.9085 32.0772 17.9172L32.0753 17.0798C32.073 16.0835 32.0718 15.5858 31.9244 15.1416C31.7939 14.7486 31.5809 14.3873 31.3002 14.0829C30.9833 13.7391 30.5484 13.4972 29.6796 13.0138L29.6769 13.0126Z" stroke="white" stroke-width="2" stroke-linecap="round" stroke-linejoin="round"/>
<path d="M11.667 17.5C11.667 20.7216 14.2787 23.3333 17.5003 23.3333C20.722 23.3333 23.3336 20.7216 23.3336 17.5C23.3336 14.2783 20.722 11.6666 17.5003 11.6666C14.2787 11.6666 11.667 14.2783 11.667 17.5Z" stroke="white" stroke-width="2" stroke-linecap="round" stroke-linejoin="round"/>
</svg>
