<svg width="76" height="76" viewBox="0 0 76 76" fill="none" xmlns="http://www.w3.org/2000/svg">
<path fill-rule="evenodd" clip-rule="evenodd" d="M43.7095 16.8888C43.7095 11.0591 48.457 6.33325 54.3131 6.33325C60.1692 6.33325 64.9167 11.0591 64.9167 16.8888C64.9167 22.7185 60.1692 27.4444 54.3131 27.4444C51.3561 27.4444 48.6837 26.2388 46.7625 24.2992L32.0838 34.2933C32.2193 34.9678 32.2905 35.6645 32.2905 36.376C32.2905 37.7852 32.0119 39.1323 31.5071 40.3635L47.6023 50.9383C49.4292 49.4509 51.7665 48.5554 54.3131 48.5554C60.1692 48.5554 64.9167 53.2813 64.9167 59.1111C64.9167 64.9406 60.1692 69.6666 54.3131 69.6666C48.457 69.6666 43.7095 64.9406 43.7095 59.1111C43.7095 57.5842 44.0363 56.1307 44.6238 54.8184L28.6586 44.3291C26.7962 45.9476 24.3568 46.9315 21.6869 46.9315C15.8307 46.9315 11.0834 42.2056 11.0834 36.376C11.0834 30.5463 15.8307 25.8204 21.6869 25.8204C25.0544 25.8204 28.0521 27.3829 29.993 29.8147L44.2191 20.1286C43.8881 19.1063 43.7095 18.017 43.7095 16.8888Z" fill="url(#paint0_linear_13_1739)"/>
<defs>
<linearGradient id="paint0_linear_13_1739" x1="38" y1="6.33325" x2="38" y2="69.6666" gradientUnits="userSpaceOnUse">
<stop stop-color="#46A6FF"/>
<stop offset="1" stop-color="#3646F4"/>
</linearGradient>
</defs>
</svg>
