<svg width="34" height="34" viewBox="0 0 34 34" fill="none" xmlns="http://www.w3.org/2000/svg">
<path d="M28.3332 19.4792C28.3332 18.8924 27.8575 18.4167 27.2707 18.4167H23.0207C22.4339 18.4167 21.9582 18.8924 21.9582 19.4792V29.0417H19.8332V6.02083C19.8332 4.98906 19.8309 4.32212 19.7649 3.8307C19.7028 3.36985 19.6028 3.22541 19.5219 3.14453C19.441 3.06365 19.2967 2.96362 18.8358 2.90165C18.3444 2.83558 17.6774 2.83333 16.6457 2.83333C15.6139 2.83333 14.9469 2.83558 14.4555 2.90165C13.9947 2.96362 13.8502 3.06365 13.7694 3.14453C13.6885 3.22541 13.5884 3.36985 13.5265 3.8307C13.4604 4.32212 13.4582 4.98906 13.4582 6.02083V29.0417H11.3332V12.3958C11.3332 11.809 10.8575 11.3333 10.2707 11.3333H6.02067C5.43387 11.3333 4.95817 11.809 4.95817 12.3958V29.0417H2.83317H2.479C1.89221 29.0417 1.4165 29.5174 1.4165 30.1042C1.4165 30.6909 1.89221 31.1667 2.479 31.1667H30.8123C31.3991 31.1667 31.8748 30.6909 31.8748 30.1042C31.8748 29.5174 31.3991 29.0417 30.8123 29.0417H30.4582H28.3332V19.4792Z" fill="white"/>
</svg>
