<svg width="37" height="37" viewBox="0 0 37 37" fill="none" xmlns="http://www.w3.org/2000/svg">
<path d="M33.2248 10.7302C32.93 9.10273 31.5251 7.91758 29.8948 7.54758C27.4551 7.03016 22.94 6.66016 18.0548 6.66016C13.1725 6.66016 8.58513 7.03016 6.14255 7.54758C4.51513 7.91758 3.10739 9.02758 2.81255 10.7302C2.51481 12.5802 2.21997 15.1702 2.21997 18.5002C2.21997 21.8302 2.51481 24.4202 2.88481 26.2702C3.18255 27.8976 4.58739 29.0827 6.21482 29.4527C8.80482 29.9702 13.2448 30.3402 18.13 30.3402C23.0151 30.3402 27.4551 29.9702 30.0451 29.4527C31.6725 29.0827 33.0774 27.9727 33.3751 26.2702C33.67 24.4202 34.04 21.755 34.1151 18.5002C33.9648 15.1702 33.5948 12.5802 33.2248 10.7302ZM14.06 23.6802V13.3202L23.0874 18.5002L14.06 23.6802Z" fill="white"/>
</svg>
